<svg xmlns="http://www.w3.org/2000/svg" width="46.765" height="45.206" viewBox="0 0 46.765 45.206"><defs><style>.a{fill:#fff;}</style></defs><g transform="translate(-2 -2)"><path class="a" d="M45.647,5.9h-3.9V8.235a1.559,1.559,0,0,1-1.559,1.559H38.633a1.559,1.559,0,0,0,1.559-1.559V3.559a1.559,1.559,0,0,0-3.118,0V5.9h-3.9V8.235a1.559,1.559,0,0,1-1.559,1.559H30.059a1.559,1.559,0,0,0,1.559-1.559V3.559a1.559,1.559,0,0,0-3.118,0V5.9H23.824V8.235a1.559,1.559,0,0,1-1.559,1.559H20.706a1.559,1.559,0,0,0,1.559-1.559V3.559a1.559,1.559,0,0,0-3.118,0V5.9h-3.9V8.235a1.559,1.559,0,0,1-1.559,1.559H12.132a1.559,1.559,0,0,0,1.559-1.559V3.559a1.559,1.559,0,0,0-3.118,0V5.9H5.118A3.118,3.118,0,0,0,2,9.015v4.677H48.765V9.015A3.118,3.118,0,0,0,45.647,5.9Z"/><path class="a" d="M2,47.839a3.117,3.117,0,0,0,3.118,3.118h40.53a3.117,3.117,0,0,0,3.118-3.118V19H2Zm10.132,0H5.9V41.6h6.235ZM5.9,36.6V32.573l2.016,2.016Zm3.118-.913,2.016,2.016H7Zm1.1-1.1,2.016-2.016V36.6Zm12.927,13.25H16.809V41.6h6.235ZM19.927,33.486l-2.016-2.016h4.031Zm3.118-.913V36.6l-2.016-2.016ZM16.809,36.6V32.573l2.016,2.016Zm3.118-.913,2.016,2.016H17.911Zm14.03,12.148H27.721V41.6h6.235ZM30.838,33.486l-2.016-2.016h4.031Zm3.118-.913V36.6l-2.016-2.016ZM27.721,36.6V32.573l2.016,2.016Zm3.118-.913,2.016,2.016H28.823Zm7.794-14.352h6.235v6.235H38.633Zm0,10.132h6.235v6.235H38.633ZM27.721,21.338h6.235v6.235H27.721Zm-10.912,0h6.235v6.235H16.809ZM9.015,33.486,7,31.471H11.03Z" transform="translate(0 -3.75)"/></g></svg>