<svg xmlns="http://www.w3.org/2000/svg" width="254.292" height="263.514" viewBox="0 0 254.292 263.514">
  <g id="_200_81" data-name="200_81" transform="translate(-625.291 -575.4)">
    <g id="Group_14012" data-name="Group 14012" transform="translate(625.291 575.4)">
      <g id="Group_13972" data-name="Group 13972" transform="translate(46.09 21.894)">
        <g id="Group_13913" data-name="Group 13913" transform="translate(40.223 80.617)">
          <path id="Path_684" data-name="Path 684" d="M1544.156,1728.5s7.436-1.17,13.042-16c1.095-2.888,2.246-5.747,3.548-8.541a75.738,75.738,0,0,0,6.974-30.6,11.909,11.909,0,0,1,12.986-11.664c10.513.991,21.913,11.042,12.514,55.462a152.646,152.646,0,0,0,27.368-1.887s16.043-4.719,17.931,9.437c0,0,1.887,8.494-2.831,10.381,0,0,9.437,2.359,8.965,12.74,0,0,1.416,10.381-5.19,11.8,0,0,6.606,2.831,4.247,13.212,0,0-1.378,7.1-5.625,7.569,0,0,4.681,12.249-7.587,16.024,0,0-6.606,6.134-38.693,7.078,0,0-27.368,2.831-41.052-9.909H1539.9v-63.7Z" transform="translate(-1539.9 -1661.651)" fill="#fcd5bc"/>
        </g>
        <g id="Group_13914" data-name="Group 13914" transform="translate(84.37 149.824)" opacity="0.2">
          <path id="Path_685" data-name="Path 685" d="M2007.917,2395s3.775,6.606,19.818,4.719l33.615-1.576-41.4,7S2005.794,2405.617,2007.917,2395Z" transform="translate(-2007.7 -2395)" fill="#1a6bbe"/>
        </g>
        <g id="Group_13915" data-name="Group 13915" transform="translate(85.314 172.002)" opacity="0.2">
          <path id="Path_686" data-name="Path 686" d="M2017.917,2630s2.831,8.021,19.818,5.662l36.8-.944-3.3,1.887-41.287,3.539S2015.794,2640.617,2017.917,2630Z" transform="translate(-2017.7 -2630)" fill="#1a6bbe"/>
        </g>
        <g id="Group_13916" data-name="Group 13916" transform="translate(98.648 203.956)" opacity="0.6">
          <path id="Path_687" data-name="Path 687" d="M2166.642,2969.676l-1.954,1.623a5.419,5.419,0,0,0-1.566,2.189c-.812,2.1-1.67,6.1,1.633,9.4,0,0-8.078-2.5-5.1-10.57,0,0,2.029-2.878,2.5-2.878s4.483-.84,4.483-.84Z" transform="translate(-2158.998 -2968.6)" fill="#fff"/>
        </g>
        <g id="Group_13917" data-name="Group 13917" transform="translate(90.523 191.848)" opacity="0.2">
          <path id="Path_688" data-name="Path 688" d="M2072.9,2840.3s4.445,6.578,18.129,7.05l32.719-.764-5.238,1.67s-40.929,11.136-44.7-3.02Z" transform="translate(-2072.9 -2840.3)" fill="#1a6bbe"/>
        </g>
        <g id="Group_13918" data-name="Group 13918" transform="translate(90.231 183.393)" opacity="0.6">
          <path id="Path_689" data-name="Path 689" d="M2081.148,2751.588l-5.662,2.359s-5.662,3.775-1.887,12.74c0,0-4.955-3.067-3.539-8.729l2.831-5.19s3.746-2.208,4-2.048S2081.148,2751.588,2081.148,2751.588Z" transform="translate(-2069.805 -2750.711)" fill="#fff"/>
        </g>
        <g id="Group_13919" data-name="Group 13919" transform="translate(85.019 161.149)" opacity="0.6">
          <path id="Path_690" data-name="Path 690" d="M2029.24,2515l-6.559,2.765a8.853,8.853,0,0,0-4.747,4.728,13.571,13.571,0,0,0-.019,10.447s-4.483-4.011-3.067-9.2c0,0,2.359-7.55,8.022-8.493Z" transform="translate(-2014.571 -2515)" fill="#fff"/>
        </g>
        <g id="Group_13920" data-name="Group 13920" transform="translate(82.936 136.14)" opacity="0.6">
          <path id="Path_691" data-name="Path 691" d="M2033.788,2250l-26.481,3.473a10.167,10.167,0,0,0-4.709,1.868c-9.39,4.568-9.39,18.723.991,18.252,0,0-6.842,2.6-9.673-4.483l-1.416-8.965s5.464-8.777,14.288-10.051Z" transform="translate(-1992.5 -2250)" fill="#fff"/>
        </g>
        <g id="Group_13921" data-name="Group 13921" transform="translate(66.421 86.06)">
          <path id="Path_692" data-name="Path 692" d="M1821.067,1719.981l-1.529,6.795-.151,9.362-1.887,6.134s10.475,3.388,14.675-1.142l.689-10.447C1832.864,1730.692,1832.184,1716.093,1821.067,1719.981Z" transform="translate(-1817.5 -1719.322)" fill="#fde6d7"/>
        </g>
        <g id="Group_13922" data-name="Group 13922" transform="translate(38.553 78.486)">
          <path id="Path_693" data-name="Path 693" d="M1569.508,1785.465c-9.116,0-25.1-1.4-35.153-10.192h-10.032a2.127,2.127,0,0,1-2.123-2.124v-63.7a2.111,2.111,0,0,1,1.453-2.01l4.247-1.416a2.8,2.8,0,0,1,.3-.075c.2-.047,6.483-1.576,11.428-14.656,1.3-3.454,2.454-6.219,3.614-8.692a73.739,73.739,0,0,0,6.776-29.718,14.039,14.039,0,0,1,15.317-13.75,16.764,16.764,0,0,1,12.438,6.946c6.351,8.625,7.182,24.952,2.473,48.545a150.135,150.135,0,0,0,24.3-1.878c1.151-.321,9.088-2.293,14.873,1.463,3.124,2.029,5.021,5.285,5.625,9.683.594,2.765.783,7.135-1.038,10.1a14.191,14.191,0,0,1,7.21,13.3c.453,3.643.047,9.352-3.407,12.3,2,2.246,3.983,6.332,2.416,13.25-.17.868-1.406,6.4-5.124,8.484a15.42,15.42,0,0,1-.887,9.862c-1.538,3.152-4.313,5.407-8.267,6.71-2,1.472-10.834,6.436-39.57,7.295C1575.794,1785.229,1573.217,1785.465,1569.508,1785.465Zm-43.071-14.439h8.729a2.135,2.135,0,0,1,1.444.566c12.825,11.948,39.126,9.381,39.391,9.352a.855.855,0,0,1,.16-.01c29.444-.868,36.89-6.191,37.333-6.531a1.746,1.746,0,0,1,.8-.453c2.992-.915,5.04-2.482,6.087-4.634,1.869-3.832.16-8.56.142-8.607a2.127,2.127,0,0,1,1.746-2.869c2.02-.227,3.416-4.049,3.775-5.87,0-.019.009-.038.009-.057,1.906-8.4-2.841-10.711-3.039-10.805a2.12,2.12,0,0,1,.415-4.02c4.558-.972,3.539-9.352,3.53-9.437a2.585,2.585,0,0,1-.019-.387,10.171,10.171,0,0,0-7.37-10.588,2.128,2.128,0,0,1-.264-4.03c2.51-1,1.859-6.531,1.548-7.956-.01-.057-.019-.123-.028-.179-.425-3.2-1.651-5.407-3.737-6.766-4.426-2.869-11.419-.934-11.485-.915l-.236.056a153.222,153.222,0,0,1-27.8,1.916,2.121,2.121,0,0,1-2-2.558c6.247-29.538,2.784-42.231-1.217-47.677a12.7,12.7,0,0,0-9.418-5.238,9.692,9.692,0,0,0-7.427,2.463,9.6,9.6,0,0,0-3.237,7.106,78.175,78.175,0,0,1-7.172,31.464c-1.113,2.369-2.218,5.039-3.492,8.39-5.549,14.675-12.948,16.977-14.486,17.308l-2.661.887v60.077Z" transform="translate(-1522.2 -1639.073)" fill="#efc1a3"/>
        </g>
        <g id="Group_13925" data-name="Group 13925" transform="translate(9.052 139.425)">
          <g id="Group_13923" data-name="Group 13923" transform="translate(2.123 2.123)">
            <path id="Path_694" data-name="Path 694" d="M1240.509,2386.1a8.422,8.422,0,0,1-8.409-8.408v-61.984a8.422,8.422,0,0,1,8.409-8.408h19.516a8.422,8.422,0,0,1,8.409,8.408v61.984a8.422,8.422,0,0,1-8.409,8.408Z" transform="translate(-1232.1 -2307.3)" fill="#1a6bbe"/>
          </g>
          <g id="Group_13924" data-name="Group 13924">
            <path id="Path_695" data-name="Path 695" d="M1239.648,2289.047a6.283,6.283,0,0,1,6.285,6.285v61.983a6.283,6.283,0,0,1-6.285,6.285h-19.516a6.283,6.283,0,0,1-6.285-6.285v-61.983a6.283,6.283,0,0,1,6.285-6.285h19.516m0-4.247h-19.516a10.548,10.548,0,0,0-10.532,10.532v61.983a10.548,10.548,0,0,0,10.532,10.532h19.516a10.548,10.548,0,0,0,10.532-10.532v-61.983a10.536,10.536,0,0,0-10.532-10.532Z" transform="translate(-1209.6 -2284.8)" fill="#1a6bbe"/>
          </g>
        </g>
        <g id="Group_13926" data-name="Group 13926" transform="translate(13.299 143.671)" opacity="0.6">
          <path id="Path_696" data-name="Path 696" d="M1280.4,2329.8h-19.516a6.283,6.283,0,0,0-6.285,6.285v61.983a6.287,6.287,0,0,0,4.332,5.974,6.253,6.253,0,0,1-1.944-4.539v-36.862c1.689-1.6,2.831-4.709,2.831-8.286s-1.142-6.691-2.831-8.286v-8.55a6.283,6.283,0,0,1,6.285-6.285h19.516a6.37,6.37,0,0,1,1.953.311A6.259,6.259,0,0,0,1280.4,2329.8Z" transform="translate(-1254.6 -2329.8)" fill="#fff"/>
        </g>
        <g id="Group_13927" data-name="Group 13927" transform="translate(80.952 134.364)">
          <path id="Path_697" data-name="Path 697" d="M1986.014,2234.838c-.283.113-.67.274-1.01.435s-.7.33-1.038.5c-.689.349-1.359.727-2.01,1.142a18.613,18.613,0,0,0-3.482,2.812,11.064,11.064,0,0,0-2.284,3.482,8.826,8.826,0,0,0-.529,3.973,12.617,12.617,0,0,0,1.189,4.152,5.406,5.406,0,0,0,.444.8c.189.274.4.548.613.812a7.983,7.983,0,0,0,5.238,2.765c.349.01.7.057,1.047.057l1.057-.047,2.482-.321q9.937-1.274,19.894-2.425,9.951-1.175,19.941-2.18a.261.261,0,0,1,.292.245.278.278,0,0,1-.217.292q-9.838,2.024-19.7,3.841-9.866,1.868-19.752,3.6l-2.472.434c-.472.057-.963.094-1.444.132s-.972-.01-1.453-.01a11.294,11.294,0,0,1-5.606-1.859,12.048,12.048,0,0,1-2.265-1.935,13.922,13.922,0,0,1-.934-1.161,9.233,9.233,0,0,1-.812-1.359,16.4,16.4,0,0,1-1.642-5.417,12.541,12.541,0,0,1,.746-5.879,14.389,14.389,0,0,1,1.359-2.624,16.08,16.08,0,0,1,1.821-2.218,20.658,20.658,0,0,1,4.369-3.369c.783-.462,1.576-.878,2.388-1.255.406-.188.821-.359,1.246-.528s.821-.312,1.331-.472a1.887,1.887,0,0,1,1.255,3.558Z" transform="translate(-1971.479 -2231.175)" fill="#efc1a3"/>
        </g>
        <g id="Group_13928" data-name="Group 13928" transform="translate(81.794 158.878)">
          <path id="Path_698" data-name="Path 698" d="M1990.384,2494.438c-.085.057-.255.179-.387.274s-.283.217-.415.33c-.274.227-.557.462-.821.708a16.569,16.569,0,0,0-1.5,1.548,12.548,12.548,0,0,0-2.1,3.548,9.592,9.592,0,0,0-.576,3.879,8.962,8.962,0,0,0,1.133,3.737,9.148,9.148,0,0,0,2.624,2.954,10.408,10.408,0,0,0,1.755,1.048,12.2,12.2,0,0,0,1.954.727,13,13,0,0,0,4.2.425c.34-.019.755-.057,1.161-.094l1.208-.113,2.416-.226q9.683-.892,19.375-1.67,9.7-.807,19.4-1.425a.266.266,0,0,1,.283.255.269.269,0,0,1-.227.283q-9.6,1.642-19.214,3.086-9.612,1.5-19.242,2.85l-2.407.34-1.208.17c-.406.057-.783.113-1.255.16a15.9,15.9,0,0,1-8.078-1.189,15.024,15.024,0,0,1-2.463-1.35,13.052,13.052,0,0,1-3.86-4.171,12.411,12.411,0,0,1-1.708-5.474c-.057-.481-.009-.963-.019-1.444a9.115,9.115,0,0,1,.132-1.434c.038-.236.066-.481.113-.717l.179-.7c.066-.236.123-.462.189-.689l.255-.67a15.391,15.391,0,0,1,2.935-4.7,20.226,20.226,0,0,1,1.944-1.878c.34-.293.7-.566,1.066-.831.189-.132.368-.264.566-.387s.368-.236.632-.4a1.885,1.885,0,0,1,2.048,3.161Z" transform="translate(-1980.4 -2490.941)" fill="#efc1a3"/>
        </g>
        <g id="Group_13929" data-name="Group 13929" transform="translate(96.715 201.881)">
          <path id="Path_699" data-name="Path 699" d="M2151.862,2967.75c-8.021,0-11.107-5.313-11.589-6.238-4.2-6.823.151-12.306,2.218-14.354a1.888,1.888,0,1,1,2.652,2.689c-2.18,2.152-4.228,5.587-1.623,9.749.038.066.075.132.113.208.085.17,2.322,4.577,9.182,4.152a1.886,1.886,0,1,1,.236,3.765Q2152.428,2967.75,2151.862,2967.75Z" transform="translate(-2138.509 -2946.612)" fill="#efc1a3"/>
        </g>
        <g id="Group_13930" data-name="Group 13930" transform="translate(87.395 181.524)">
          <path id="Path_700" data-name="Path 700" d="M2048.052,2734.351a10.615,10.615,0,0,0-3.615,4.228,7.3,7.3,0,0,0-.557,2.548,8.689,8.689,0,0,0,.321,2.69,9.481,9.481,0,0,0,2.926,4.605,10.234,10.234,0,0,0,5.049,2.378l-.179-.019c3.275.2,6.55.358,9.824.377,3.275.047,6.559-.01,9.834-.179s6.54-.472,9.8-.934a68.951,68.951,0,0,0,9.645-2.029.281.281,0,0,1,.34.179.27.27,0,0,1-.151.321,43.8,43.8,0,0,1-4.69,1.755c-1.585.519-3.208.962-4.823,1.368a94.936,94.936,0,0,1-9.871,1.812c-3.322.453-6.663.7-10,.887s-6.691.179-10.032.17a.317.317,0,0,1-.094-.01l-.085-.01a14.049,14.049,0,0,1-7.135-3.02,13.213,13.213,0,0,1-4.312-6.568,12.291,12.291,0,0,1-.472-3.982,11.171,11.171,0,0,1,.944-4,11.922,11.922,0,0,1,2.274-3.322,15.192,15.192,0,0,1,2.982-2.4,1.888,1.888,0,0,1,2.142,3.1Z" transform="translate(-2039.752 -2730.907)" fill="#efc1a3"/>
        </g>
        <g id="Group_13931" data-name="Group 13931" transform="translate(64.598 83.685)">
          <path id="Path_701" data-name="Path 701" d="M1806.008,1722.767a17.312,17.312,0,0,1-6.823-1.321,1.653,1.653,0,1,1,1.3-3.039c4.369,1.869,9.135.868,11.579.1a2.092,2.092,0,0,0,1.435-1.765c1.236-10.862-1.01-15.505-3.124-17.487a6.618,6.618,0,0,0-5.351-1.746,1.652,1.652,0,0,1-.613-3.246,9.936,9.936,0,0,1,8.163,2.529c3.917,3.624,5.332,10.456,4.2,20.328a5.393,5.393,0,0,1-3.737,4.539A24.182,24.182,0,0,1,1806.008,1722.767Z" transform="translate(-1798.182 -1694.159)" fill="#efc1a3"/>
        </g>
        <g id="Group_13943" data-name="Group 13943" transform="translate(56.099)">
          <g id="Group_13934" data-name="Group 13934">
            <g id="Group_13932" data-name="Group 13932" transform="translate(2.126 2.123)">
              <path id="Path_702" data-name="Path 702" d="M1765.768,875.085a4.629,4.629,0,0,1-2.765-.915l-8.559-6.219a.473.473,0,0,0-.274-.094.454.454,0,0,0-.274.094l-8.559,6.219a4.693,4.693,0,0,1-2.765.915,4.762,4.762,0,0,1-3.841-1.972,4.643,4.643,0,0,1-.651-4.209l3.265-10.069a.475.475,0,0,0-.17-.529l-8.559-6.219a4.714,4.714,0,0,1,2.765-8.531h10.579a.476.476,0,0,0,.453-.33l3.265-10.069a4.72,4.72,0,0,1,8.975,0l3.275,10.069a.476.476,0,0,0,.453.33h10.579a4.714,4.714,0,0,1,2.765,8.531l-8.559,6.219a.461.461,0,0,0-.17.529l3.275,10.069a4.643,4.643,0,0,1-.651,4.209A4.793,4.793,0,0,1,1765.768,875.085Z" transform="translate(-1730.658 -829.9)" fill="#e2ac3c"/>
            </g>
          </g>
          <g id="Group_13935" data-name="Group 13935" transform="translate(32.055 17.185)" opacity="0.6">
            <path id="Path_704" data-name="Path 704" d="M2047.885,989.755a2.6,2.6,0,0,0,2.473,1.793h10.579a2.517,2.517,0,0,1,1.755.68,2.546,2.546,0,0,0-2.52-2.01h-10.589a2.567,2.567,0,0,1-1.783-.717Z" transform="translate(-2047.8 -989.5)" fill="#fff"/>
          </g>
          <g id="Group_13936" data-name="Group 13936" transform="translate(11.403 30.331)" opacity="0.6">
            <path id="Path_705" data-name="Path 705" d="M1829.873,1141.578l3.275-10.069a2.591,2.591,0,0,0-.717-2.708,2.508,2.508,0,0,1-.057,1.368l-3.275,10.07a2.511,2.511,0,0,0,.7,2.69A2.67,2.67,0,0,1,1829.873,1141.578Z" transform="translate(-1828.964 -1128.8)" fill="#fff"/>
          </g>
          <g id="Group_13937" data-name="Group 13937" transform="translate(4.237 4.249)" opacity="0.6">
            <path id="Path_706" data-name="Path 706" d="M1756.392,867.409h10.589a2.607,2.607,0,0,0,2.472-1.793l3.275-10.069a2.6,2.6,0,0,1,4.237-1.1l-.075-.227a2.6,2.6,0,0,0-4.936,0l-3.275,10.06a2.6,2.6,0,0,1-2.473,1.793h-10.588a2.588,2.588,0,0,0-1.765,4.483A2.594,2.594,0,0,1,1756.392,867.409Z" transform="translate(-1753.025 -852.425)" fill="#fff"/>
          </g>
          <g id="Group_13938" data-name="Group 13938" transform="translate(25.808 5.068)" opacity="0.2">
            <path id="Path_707" data-name="Path 707" d="M1981.6,861.525v20.639l6.125-8.843-4.256-12.221Z" transform="translate(-1981.6 -861.1)" fill="#1a6bbe"/>
          </g>
          <g id="Group_13939" data-name="Group 13939" transform="translate(12.935 26.131)" opacity="0.2">
            <path id="Path_708" data-name="Path 708" d="M1858.072,1084.3l-12.872,18.771,1.463,1.265,11.542-7.691Z" transform="translate(-1845.2 -1084.3)" fill="#1a6bbe"/>
          </g>
          <g id="Group_13940" data-name="Group 13940" transform="translate(4.366 21.875)" opacity="0.2">
            <path id="Path_709" data-name="Path 709" d="M1754.4,1039.2l21.441,4.256-10.626,4.162Z" transform="translate(-1754.4 -1039.2)" fill="#1a6bbe"/>
          </g>
          <g id="Group_13941" data-name="Group 13941" transform="translate(25.808 26.131)" opacity="0.2">
            <path id="Path_710" data-name="Path 710" d="M1981.6,1084.3l14.354,19.176-.425-5.105-3.812-9.626Z" transform="translate(-1981.6 -1084.3)" fill="#1a6bbe"/>
          </g>
          <g id="Group_13942" data-name="Group 13942" transform="translate(25.808 21.677)" opacity="0.1">
            <path id="Path_711" data-name="Path 711" d="M1981.6,1041.554l20.233-4.454-10.117,8.9Z" transform="translate(-1981.6 -1037.1)" fill="#1a6bbe"/>
          </g>
        </g>
        <g id="Group_13955" data-name="Group 13955" transform="translate(0 33.228)">
          <g id="Group_13946" data-name="Group 13946">
            <g id="Group_13944" data-name="Group 13944" transform="translate(2.356 2.34)">
              <path id="Path_712" data-name="Path 712" d="M1174,1229.976a4.9,4.9,0,0,1-2.907-.962l-8.56-6.219a.232.232,0,0,0-.141-.047.282.282,0,0,0-.142.047l-8.559,6.219a4.947,4.947,0,0,1-2.907.962,5.008,5.008,0,0,1-4.039-2.076,4.866,4.866,0,0,1-.679-4.426l3.275-10.069a.238.238,0,0,0-.085-.264l-8.56-6.219a4.955,4.955,0,0,1,2.907-8.965h10.589a.244.244,0,0,0,.226-.161l3.275-10.069a4.949,4.949,0,0,1,9.418,0l3.275,10.069a.235.235,0,0,0,.227.161H1181.2a4.955,4.955,0,0,1,2.907,8.965l-8.559,6.219a.238.238,0,0,0-.085.264l3.275,10.069a4.869,4.869,0,0,1-.689,4.426A5.065,5.065,0,0,1,1174,1229.976Z" transform="translate(-1138.645 -1184.3)" fill="#e2ac3c"/>
            </g>
          </g>
          <g id="Group_13947" data-name="Group 13947" transform="translate(32.541 17.657)" opacity="0.6">
            <path id="Path_714" data-name="Path 714" d="M1458.576,1346.855a2.6,2.6,0,0,0,2.473,1.793h10.589a2.517,2.517,0,0,1,1.755.68,2.546,2.546,0,0,0-2.52-2.01h-10.589a2.568,2.568,0,0,1-1.784-.717Z" transform="translate(-1458.5 -1346.6)" fill="#fff"/>
          </g>
          <g id="Group_13948" data-name="Group 13948" transform="translate(11.88 30.803)" opacity="0.6">
            <path id="Path_715" data-name="Path 715" d="M1240.473,1498.678l3.275-10.069a2.592,2.592,0,0,0-.717-2.708,2.509,2.509,0,0,1-.057,1.368l-3.275,10.069a2.511,2.511,0,0,0,.7,2.69A2.67,2.67,0,0,1,1240.473,1498.678Z" transform="translate(-1239.564 -1485.9)" fill="#fff"/>
          </g>
          <g id="Group_13949" data-name="Group 13949" transform="translate(4.713 4.721)" opacity="0.6">
            <path id="Path_716" data-name="Path 716" d="M1166.991,1224.509h10.589a2.607,2.607,0,0,0,2.473-1.793l3.275-10.07a2.6,2.6,0,0,1,4.237-1.1l-.075-.227a2.6,2.6,0,0,0-4.936,0l-3.275,10.069a2.6,2.6,0,0,1-2.473,1.793h-10.589a2.588,2.588,0,0,0-1.765,4.483A2.6,2.6,0,0,1,1166.991,1224.509Z" transform="translate(-1163.625 -1209.525)" fill="#fff"/>
          </g>
          <g id="Group_13950" data-name="Group 13950" transform="translate(26.284 5.54)" opacity="0.2">
            <path id="Path_717" data-name="Path 717" d="M1392.2,1218.625v20.639l6.125-8.843-4.256-12.221Z" transform="translate(-1392.2 -1218.2)" fill="#1a6bbe"/>
          </g>
          <g id="Group_13951" data-name="Group 13951" transform="translate(13.412 26.603)" opacity="0.2">
            <path id="Path_718" data-name="Path 718" d="M1268.672,1441.4l-12.872,18.771,1.463,1.265,11.542-7.691Z" transform="translate(-1255.8 -1441.4)" fill="#1a6bbe"/>
          </g>
          <g id="Group_13952" data-name="Group 13952" transform="translate(4.843 22.347)" opacity="0.2">
            <path id="Path_719" data-name="Path 719" d="M1165,1396.3l21.441,4.256-10.626,4.152Z" transform="translate(-1165 -1396.3)" fill="#1a6bbe"/>
          </g>
          <g id="Group_13953" data-name="Group 13953" transform="translate(26.284 26.603)" opacity="0.2">
            <path id="Path_720" data-name="Path 720" d="M1392.2,1441.4l14.354,19.176-.425-5.115-3.813-9.617Z" transform="translate(-1392.2 -1441.4)" fill="#1a6bbe"/>
          </g>
          <g id="Group_13954" data-name="Group 13954" transform="translate(26.284 22.149)" opacity="0.1">
            <path id="Path_721" data-name="Path 721" d="M1392.2,1398.654l20.233-4.454-10.117,8.9Z" transform="translate(-1392.2 -1394.2)" fill="#1a6bbe"/>
          </g>
        </g>
        <g id="Group_13967" data-name="Group 13967" transform="translate(115.077 33.228)">
          <g id="Group_13958" data-name="Group 13958">
            <g id="Group_13956" data-name="Group 13956" transform="translate(2.347 2.34)">
              <path id="Path_722" data-name="Path 722" d="M2393.311,1229.976a4.9,4.9,0,0,1-2.906-.962l-8.56-6.219a.232.232,0,0,0-.141-.047.283.283,0,0,0-.142.047l-8.56,6.219a4.946,4.946,0,0,1-2.906.962,5.008,5.008,0,0,1-4.039-2.076,4.9,4.9,0,0,1-.689-4.426l3.275-10.069a.238.238,0,0,0-.085-.264l-8.56-6.219a4.955,4.955,0,0,1,2.907-8.965h10.588a.244.244,0,0,0,.227-.161l3.275-10.069a4.949,4.949,0,0,1,9.418,0l3.275,10.069a.235.235,0,0,0,.227.161H2400.5a4.955,4.955,0,0,1,2.907,8.965l-8.559,6.219a.238.238,0,0,0-.085.264l3.275,10.069a4.869,4.869,0,0,1-.689,4.426A5.021,5.021,0,0,1,2393.311,1229.976Z" transform="translate(-2357.945 -1184.3)" fill="#e2ac3c"/>
            </g>
          </g>
          <g id="Group_13959" data-name="Group 13959" transform="translate(32.532 17.657)" opacity="0.6">
            <path id="Path_724" data-name="Path 724" d="M2677.885,1346.855a2.6,2.6,0,0,0,2.472,1.793h10.579a2.517,2.517,0,0,1,1.755.68,2.546,2.546,0,0,0-2.52-2.01h-10.588a2.568,2.568,0,0,1-1.784-.717Z" transform="translate(-2677.8 -1346.6)" fill="#fff"/>
          </g>
          <g id="Group_13960" data-name="Group 13960" transform="translate(11.89 30.803)" opacity="0.6">
            <path id="Path_725" data-name="Path 725" d="M2459.973,1498.678l3.275-10.069a2.592,2.592,0,0,0-.717-2.708,2.506,2.506,0,0,1-.057,1.368l-3.275,10.069a2.511,2.511,0,0,0,.7,2.69A2.476,2.476,0,0,1,2459.973,1498.678Z" transform="translate(-2459.064 -1485.9)" fill="#fff"/>
          </g>
          <g id="Group_13961" data-name="Group 13961" transform="translate(4.723 4.721)" opacity="0.6">
            <path id="Path_726" data-name="Path 726" d="M2386.491,1224.509h10.588a2.607,2.607,0,0,0,2.473-1.793l3.275-10.07a2.6,2.6,0,0,1,4.237-1.1l-.075-.227a2.6,2.6,0,0,0-4.936,0l-3.275,10.069a2.6,2.6,0,0,1-2.473,1.793h-10.588a2.588,2.588,0,0,0-1.765,4.483A2.588,2.588,0,0,1,2386.491,1224.509Z" transform="translate(-2383.125 -1209.525)" fill="#fff"/>
          </g>
          <g id="Group_13962" data-name="Group 13962" transform="translate(26.285 5.54)" opacity="0.2">
            <path id="Path_727" data-name="Path 727" d="M2611.6,1218.625v20.639l6.134-8.843-4.266-12.221Z" transform="translate(-2611.6 -1218.2)" fill="#1a6bbe"/>
          </g>
          <g id="Group_13963" data-name="Group 13963" transform="translate(13.422 26.603)" opacity="0.2">
            <path id="Path_728" data-name="Path 728" d="M2488.163,1441.4l-12.863,18.771,1.453,1.265,11.551-7.691Z" transform="translate(-2475.3 -1441.4)" fill="#1a6bbe"/>
          </g>
          <g id="Group_13964" data-name="Group 13964" transform="translate(4.853 22.347)" opacity="0.2">
            <path id="Path_729" data-name="Path 729" d="M2384.5,1396.3l21.432,4.256-10.626,4.152Z" transform="translate(-2384.5 -1396.3)" fill="#1a6bbe"/>
          </g>
          <g id="Group_13965" data-name="Group 13965" transform="translate(26.285 26.603)" opacity="0.2">
            <path id="Path_730" data-name="Path 730" d="M2611.6,1441.4l14.354,19.176-.425-5.115-3.812-9.617Z" transform="translate(-2611.6 -1441.4)" fill="#1a6bbe"/>
          </g>
          <g id="Group_13966" data-name="Group 13966" transform="translate(26.285 22.149)" opacity="0.1">
            <path id="Path_731" data-name="Path 731" d="M2611.6,1398.654l20.233-4.454-10.117,8.9Z" transform="translate(-2611.6 -1394.2)" fill="#1a6bbe"/>
          </g>
        </g>
        <g id="Group_13968" data-name="Group 13968" transform="translate(98.601 208.759)" opacity="0.2">
          <path id="Path_732" data-name="Path 732" d="M2159.585,3020.491s10.806,11.7,38.9-.991l-6.578,5.945-25.952,6.606S2155.1,3030.636,2159.585,3020.491Z" transform="translate(-2158.5 -3019.5)" fill="#efc1a3"/>
        </g>
        <g id="Group_13969" data-name="Group 13969" transform="translate(56.285 96.033)" opacity="0.2">
          <path id="Path_733" data-name="Path 733" d="M1754.879,1932.395s-12.466-1.935-11.523-9.956c0,0-.963-5.728,6.361-9.466,0,0-14.382-3.275-12.023-14.6,0,0,1.076-6.5,8.8-8.682,0,0-14.939-3.407-8.8-15.76l5.068-5.917a16.224,16.224,0,0,1,7.21-3.142v-11.023s3.3-26.254-1.652-28.849c0,0,0,24.537-6.606,32.558a21.4,21.4,0,0,0-3.152,7.937c-2.718,1.453-13.958,8.409-7.7,21.319l3.067,4.483s-10.853,8.022-2.359,18.4c0,0,2.831,3.775,6.134,4.719,0,0-6.842,6.37-2.6,14.392a29.507,29.507,0,0,0,4.841,4.379,5.3,5.3,0,0,1-1.076,9.229c-5.407,2.123-14.316,3.548-28.774,1.491,0,0,26.66,12.032,49.781,6.37C1759.872,1950.278,1747.065,1945.173,1754.879,1932.395Z" transform="translate(-1710.1 -1825)" fill="#efc1a3"/>
        </g>
        <g id="Group_13970" data-name="Group 13970" transform="translate(13.101 144.398)" opacity="0.2">
          <path id="Path_734" data-name="Path 734" d="M1282.227,2337.5s.472,69.835-29.727,71.723l3.775,3.775H1282.7l5.087-7.078-1.312-67.476Z" transform="translate(-1252.5 -2337.5)" fill="#1a6bbe"/>
        </g>
        <g id="Group_13971" data-name="Group 13971" transform="translate(66.062 90.37)" opacity="0.2">
          <path id="Path_735" data-name="Path 735" d="M1826.563,1765a68.182,68.182,0,0,1-.179,7.408,11.666,11.666,0,0,1-12.485,10.645c-.066-.009-.132-.009-.2-.019,0,0,8.135,4.237,15.1.066C1828.809,1783.091,1829.63,1770.9,1826.563,1765Z" transform="translate(-1813.7 -1765)" fill="#efc1a3"/>
        </g>
      </g>
      <g id="Group_14011" data-name="Group 14011" transform="translate(0 0)">
        <g id="Group_13973" data-name="Group 13973" transform="translate(0 87.545)">
          <path id="Path_736" data-name="Path 736" d="M654.349,1535.374a.988.988,0,0,1-.915-.613c-1.453-3.445-3.284-5.615-5.256-6.342a11.4,11.4,0,0,1-.651,2.048,4.679,4.679,0,0,1-2.888,2.661,3.088,3.088,0,0,1-3.548-1.076,2.386,2.386,0,0,1-.028-2.624,6.509,6.509,0,0,1,5.351-3.256c-.028-4.294-3.143-7.7-3.643-8.21a1.543,1.543,0,0,1-.132-.085,7.114,7.114,0,0,1-2.284,3.558c-2.6,2.208-5.294,2.69-7.767,1.4a4.066,4.066,0,0,1-1.982-4.841,6.065,6.065,0,0,1,3.6-4.143c1.784-.651,4-.387,6.634.8-.283-3.426-1.472-5.964-3.539-7.55-4.2-3.218-10.711-1.661-10.768-1.642a1,1,0,1,1-.481-1.935c.3-.076,7.512-1.8,12.466,2,2.793,2.142,4.266,5.568,4.379,10.192.34.2.689.406,1.038.632a1.025,1.025,0,0,1,.16.123c.217.217,4.445,4.388,4.322,9.947,2.142.6,4.719,2.529,6.861,7.587a.992.992,0,0,1-.528,1.3A1.246,1.246,0,0,1,654.349,1535.374Zm-8.173-7.191a4.859,4.859,0,0,0-.925.217c-1.8.623-2.68,2.1-2.576,2.463a1.122,1.122,0,0,0,1.368.359,2.651,2.651,0,0,0,1.633-1.538A8,8,0,0,0,646.177,1528.183Zm-9.919-12.693a3.94,3.94,0,0,0-1.378.227,4.1,4.1,0,0,0-2.378,2.869,2.076,2.076,0,0,0,1,2.472c1.727.9,3.6.51,5.559-1.151a5.189,5.189,0,0,0,1.755-3.058A10.43,10.43,0,0,0,636.258,1515.49Z" transform="translate(-625.291 -1503.068)" fill="#1a6bbe"/>
        </g>
        <g id="Group_13974" data-name="Group 13974" transform="translate(222.891 138.543)">
          <path id="Path_737" data-name="Path 737" d="M2988.129,2078.635a1.006,1.006,0,0,1-.368-.066.991.991,0,0,1-.557-1.293c2.171-5.5,4.9-7.606,7.182-8.3-.292-5.955,4.143-10.56,4.37-10.8a1.108,1.108,0,0,1,.161-.132c.387-.255.764-.5,1.132-.727v-.094c.019-4.926,1.51-8.616,4.454-10.966,5.2-4.152,12.919-2.491,13.25-2.416a1,1,0,0,1-.434,1.944h0c-.066-.019-7.135-1.519-11.58,2.039-2.237,1.793-3.473,4.615-3.662,8.39,2.831-1.369,5.228-1.736,7.163-1.076a6.406,6.406,0,0,1,3.917,4.313,4.288,4.288,0,0,1-1.972,5.162c-2.586,1.425-5.436.981-8.248-1.265a7.6,7.6,0,0,1-2.576-3.869c-.085.057-.161.1-.246.16-.51.548-3.832,4.36-3.728,9.041a6.935,6.935,0,0,1,5.832,3.332,2.514,2.514,0,0,1,.038,2.746,3.24,3.24,0,0,1-3.708,1.217,4.932,4.932,0,0,1-3.115-2.746,11.744,11.744,0,0,1-.764-2.246c-1.765.642-3.822,2.491-5.605,7.012A1.022,1.022,0,0,1,2988.129,2078.635Zm8.531-7.937a9.7,9.7,0,0,0,.595,1.708,2.965,2.965,0,0,0,1.84,1.652,1.279,1.279,0,0,0,1.566-.481c.123-.34-.765-1.868-2.624-2.576A4.993,4.993,0,0,0,2996.661,2070.7Zm5.493-12.287a5.638,5.638,0,0,0,2.029,3.379c2.161,1.727,4.2,2.085,6.04,1.076a2.313,2.313,0,0,0,1.047-2.774,4.44,4.44,0,0,0-2.671-3.067C3007.023,2056.5,3004.824,2056.977,3002.153,2058.411Z" transform="translate(-2987.132 -2043.459)" fill="#1a6bbe"/>
        </g>
        <g id="Group_13986" data-name="Group 13986" transform="translate(207.927 24.433)">
          <g id="Group_13975" data-name="Group 13975" transform="translate(14.278)">
            <path id="Path_738" data-name="Path 738" d="M2981.049,842.947a1.4,1.4,0,0,1-.34-.047,1.185,1.185,0,0,1-.793-1.472l1.888-6.285a1.182,1.182,0,1,1,2.265.68l-1.888,6.285A1.18,1.18,0,0,1,2981.049,842.947Z" transform="translate(-2979.866 -834.302)" fill="#1a6bbe"/>
          </g>
          <g id="Group_13976" data-name="Group 13976" transform="translate(8.692 18.582)">
            <path id="Path_739" data-name="Path 739" d="M2921.849,1039.847a1.4,1.4,0,0,1-.34-.047,1.185,1.185,0,0,1-.793-1.472l1.888-6.285a1.182,1.182,0,0,1,2.265.679l-1.888,6.285A1.18,1.18,0,0,1,2921.849,1039.847Z" transform="translate(-2920.666 -1031.203)" fill="#1a6bbe"/>
          </g>
          <g id="Group_13979" data-name="Group 13979" transform="translate(1.003 6.284)">
            <g id="Group_13977" data-name="Group 13977" transform="translate(17.081)">
              <path id="Path_740" data-name="Path 740" d="M3021.372,906.357a1.179,1.179,0,0,1-.557-2.218l5.785-3.1a1.178,1.178,0,0,1,1.114,2.076l-5.785,3.1A1.066,1.066,0,0,1,3021.372,906.357Z" transform="translate(-3020.192 -900.892)" fill="#1a6bbe"/>
            </g>
            <g id="Group_13978" data-name="Group 13978" transform="translate(0 9.192)">
              <path id="Path_741" data-name="Path 741" d="M2840.372,1003.757a1.179,1.179,0,0,1-.557-2.218l5.785-3.1a1.178,1.178,0,0,1,1.114,2.076l-5.785,3.1A1.191,1.191,0,0,1,2840.372,1003.757Z" transform="translate(-2839.192 -998.292)" fill="#1a6bbe"/>
            </g>
          </g>
          <g id="Group_13982" data-name="Group 13982" transform="translate(0 8.701)">
            <g id="Group_13980" data-name="Group 13980" transform="translate(18.582 5.587)">
              <path id="Path_742" data-name="Path 742" d="M3032.934,989.949a1.4,1.4,0,0,1-.34-.047l-6.285-1.887a1.182,1.182,0,1,1,.679-2.265l6.285,1.887a1.185,1.185,0,0,1,.793,1.472A1.2,1.2,0,0,1,3032.934,989.949Z" transform="translate(-3025.466 -985.702)" fill="#1a6bbe"/>
            </g>
            <g id="Group_13981" data-name="Group 13981">
              <path id="Path_743" data-name="Path 743" d="M2836.034,930.749a1.4,1.4,0,0,1-.34-.047l-6.285-1.887a1.182,1.182,0,1,1,.679-2.265l6.285,1.887a1.181,1.181,0,0,1-.34,2.312Z" transform="translate(-2828.566 -926.502)" fill="#1a6bbe"/>
            </g>
          </g>
          <g id="Group_13985" data-name="Group 13985" transform="translate(6.288 0.99)">
            <g id="Group_13983" data-name="Group 13983" transform="translate(9.192 17.091)">
              <path id="Path_744" data-name="Path 744" d="M2996.877,1034.037a1.166,1.166,0,0,1-1.038-.623l-3.1-5.785a1.178,1.178,0,0,1,2.076-1.114l3.1,5.785a1.171,1.171,0,0,1-.481,1.595A1.19,1.19,0,0,1,2996.877,1034.037Z" transform="translate(-2992.592 -1025.892)" fill="#1a6bbe"/>
            </g>
            <g id="Group_13984" data-name="Group 13984">
              <path id="Path_745" data-name="Path 745" d="M2899.478,852.937a1.167,1.167,0,0,1-1.039-.623l-3.1-5.785a1.178,1.178,0,0,1,2.076-1.114l3.1,5.785a1.171,1.171,0,0,1-.481,1.595A1.065,1.065,0,0,1,2899.478,852.937Z" transform="translate(-2895.192 -844.792)" fill="#1a6bbe"/>
            </g>
          </g>
        </g>
        <g id="Group_13998" data-name="Group 13998" transform="translate(44.409 5.228)">
          <g id="Group_13987" data-name="Group 13987" transform="translate(15.769)">
            <path id="Path_746" data-name="Path 746" d="M1264.149,640.107a1.405,1.405,0,0,1-.34-.047,1.185,1.185,0,0,1-.793-1.472l2.086-6.946a1.182,1.182,0,1,1,2.265.68l-2.086,6.946A1.181,1.181,0,0,1,1264.149,640.107Z" transform="translate(-1262.966 -630.802)" fill="#1a6bbe"/>
          </g>
          <g id="Group_13988" data-name="Group 13988" transform="translate(9.607 20.516)">
            <path id="Path_747" data-name="Path 747" d="M1198.849,857.507a1.4,1.4,0,0,1-.34-.047,1.185,1.185,0,0,1-.793-1.472l2.086-6.946a1.182,1.182,0,1,1,2.265.679l-2.086,6.946A1.2,1.2,0,0,1,1198.849,857.507Z" transform="translate(-1197.666 -848.203)" fill="#1a6bbe"/>
          </g>
          <g id="Group_13991" data-name="Group 13991" transform="translate(1.107 6.935)">
            <g id="Group_13989" data-name="Group 13989" transform="translate(18.865)">
              <path id="Path_748" data-name="Path 748" d="M1308.672,710.087a1.179,1.179,0,0,1-.557-2.218l6.389-3.435a1.178,1.178,0,1,1,1.113,2.076l-6.389,3.435A1.064,1.064,0,0,1,1308.672,710.087Z" transform="translate(-1307.492 -704.292)" fill="#1a6bbe"/>
            </g>
            <g id="Group_13990" data-name="Group 13990" transform="translate(0 10.145)">
              <path id="Path_749" data-name="Path 749" d="M1108.772,817.587a1.179,1.179,0,0,1-.557-2.218l6.389-3.435a1.178,1.178,0,0,1,1.114,2.076l-6.389,3.435A1.19,1.19,0,0,1,1108.772,817.587Z" transform="translate(-1107.592 -811.792)" fill="#1a6bbe"/>
            </g>
          </g>
          <g id="Group_13994" data-name="Group 13994" transform="translate(0 9.607)">
            <g id="Group_13992" data-name="Group 13992" transform="translate(20.516 6.162)">
              <path id="Path_750" data-name="Path 750" d="M1321.395,802.347a1.4,1.4,0,0,1-.34-.047l-6.946-2.086a1.182,1.182,0,0,1,.679-2.265l6.946,2.086a1.185,1.185,0,0,1,.793,1.472A1.2,1.2,0,0,1,1321.395,802.347Z" transform="translate(-1313.266 -797.903)" fill="#1a6bbe"/>
            </g>
            <g id="Group_13993" data-name="Group 13993">
              <path id="Path_751" data-name="Path 751" d="M1103.995,737.047a1.4,1.4,0,0,1-.34-.047l-6.946-2.086a1.182,1.182,0,0,1,.679-2.265l6.946,2.086a1.181,1.181,0,0,1-.34,2.312Z" transform="translate(-1095.866 -732.603)" fill="#1a6bbe"/>
            </g>
          </g>
          <g id="Group_13997" data-name="Group 13997" transform="translate(6.948 1.103)">
            <g id="Group_13995" data-name="Group 13995" transform="translate(10.136 18.865)">
              <path id="Path_752" data-name="Path 752" d="M1281.507,851.141a1.167,1.167,0,0,1-1.038-.623l-3.435-6.389a1.178,1.178,0,1,1,2.076-1.114l3.435,6.389a1.181,1.181,0,0,1-1.038,1.736Z" transform="translate(-1276.892 -842.392)" fill="#1a6bbe"/>
            </g>
            <g id="Group_13996" data-name="Group 13996">
              <path id="Path_753" data-name="Path 753" d="M1174.107,651.241a1.166,1.166,0,0,1-1.038-.623l-3.435-6.389a1.178,1.178,0,1,1,2.076-1.114l3.435,6.389a1.171,1.171,0,0,1-.481,1.595A1.19,1.19,0,0,1,1174.107,651.241Z" transform="translate(-1169.492 -642.492)" fill="#1a6bbe"/>
            </g>
          </g>
        </g>
        <g id="Group_13999" data-name="Group 13999" transform="translate(27.454 244.649)">
          <path id="Path_754" data-name="Path 754" d="M916.889,3167.8s4.3,5.077-.689,9.824a7.469,7.469,0,0,1,9.56,2.982s-2.793-7.635.444-10.353C926.194,3170.263,920.418,3172.122,916.889,3167.8Z" transform="translate(-916.2 -3167.8)" fill="#1a6bbe"/>
        </g>
        <g id="Group_14000" data-name="Group 14000" transform="translate(190.915 258.116)">
          <circle id="Ellipse_92" data-name="Ellipse 92" cx="2.699" cy="2.699" r="2.699" transform="translate(0 0)" fill="#1a6bbe"/>
        </g>
        <g id="Group_14001" data-name="Group 14001" transform="translate(206.099 235.306)">
          <path id="Path_755" data-name="Path 755" d="M2816.334,3068.8s-.538,6.342-7.135,6.163a7.143,7.143,0,0,1,4.426,8.5s3.293-7.05,7.323-6.682C2820.949,3076.774,2815.787,3074.1,2816.334,3068.8Z" transform="translate(-2809.2 -3068.8)" fill="#1a6bbe"/>
        </g>
        <g id="Group_14002" data-name="Group 14002" transform="translate(231.023 93.013)">
          <circle id="Ellipse_93" data-name="Ellipse 93" cx="2.699" cy="2.699" r="2.699" fill="#1a6bbe"/>
        </g>
        <g id="Group_14003" data-name="Group 14003" transform="translate(104.31)">
          <path id="Path_756" data-name="Path 756" d="M1730.6,584.714l3.52,2.038s2.35-6.181,8.984-7.286l-1-4.067C1742.1,575.409,1733.752,576.5,1730.6,584.714Z" transform="translate(-1730.6 -575.4)" fill="#8bc34a"/>
        </g>
        <g id="Group_14004" data-name="Group 14004" transform="translate(14.109 153.656)">
          <path id="Path_757" data-name="Path 757" d="M774.8,2205.082l3.794-1.482s1.378,6.474,7.757,8.569l-1.614,3.86C784.747,2216.038,776.659,2213.679,774.8,2205.082Z" transform="translate(-774.8 -2203.6)" fill="#19b5fe"/>
        </g>
        <g id="Group_14005" data-name="Group 14005" transform="translate(228.276 204.333)">
          <path id="Path_758" data-name="Path 758" d="M3055.732,2749.66l.651-3.643s-6.021-.094-9.022-5.417l-3.161,2.124C3044.2,2742.714,3047.729,2749.518,3055.732,2749.66Z" transform="translate(-3044.2 -2740.6)" fill="#ff5722"/>
        </g>
        <g id="Group_14006" data-name="Group 14006" transform="translate(14.973 43.514)">
          <circle id="Ellipse_94" data-name="Ellipse 94" cx="2.699" cy="2.699" r="2.699" transform="translate(0 5.328) rotate(-80.782)" fill="#1a6bbe"/>
        </g>
        <g id="Group_14007" data-name="Group 14007" transform="translate(201.928 137.131)">
          <path id="Path_759" data-name="Path 759" d="M2773.9,2039.664l1.718-3.284s-5.709-1.9-6.965-7.88l-3.652,1.066A13.82,13.82,0,0,0,2773.9,2039.664Z" transform="translate(-2765 -2028.5)" fill="#e2ac3c"/>
        </g>
        <g id="Group_14008" data-name="Group 14008" transform="translate(7.098 196.378)">
          <path id="Path_760" data-name="Path 760" d="M709.116,2656.3l1.812,3.228s-5.662,2.057-6.748,8.069l-3.68-.963A13.782,13.782,0,0,1,709.116,2656.3Z" transform="translate(-700.499 -2656.3)" fill="#e2ac3c"/>
        </g>
        <g id="Group_14009" data-name="Group 14009" transform="translate(169.36 120.579)">
          <path id="Path_761" data-name="Path 761" d="M2430.224,1854.346l-3.492-1.246s-1.085,5.927-6.833,8l1.566,3.473A13.8,13.8,0,0,0,2430.224,1854.346Z" transform="translate(-2419.9 -1853.1)" fill="#19b5fe"/>
        </g>
        <g id="Group_14010" data-name="Group 14010" transform="translate(159.951 16.694)">
          <path id="Path_762" data-name="Path 762" d="M2331.43,761.7l.8-3.614s-6.011-.34-8.786-5.785l-3.247,1.991A13.765,13.765,0,0,0,2331.43,761.7Z" transform="translate(-2320.2 -752.3)" fill="#ff5722"/>
        </g>
      </g>
    </g>
  </g>
</svg>
