<svg xmlns="http://www.w3.org/2000/svg" width="20.911" height="12.465" viewBox="0 0 20.911 12.465">
  <g id="eye_1_" data-name="eye (1)" transform="translate(0 -98.725)">
    <path id="Path_343" data-name="Path 343" d="M10.456,98.725c-4,0-7.619,2.186-10.292,5.736a.828.828,0,0,0,0,.988c2.674,3.555,6.3,5.741,10.292,5.741s7.619-2.186,10.292-5.736a.828.828,0,0,0,0-.988C18.074,100.911,14.451,98.725,10.456,98.725Zm.287,10.621a4.4,4.4,0,1,1,4.1-4.1A4.4,4.4,0,0,1,10.742,109.346Zm-.133-2.028a2.368,2.368,0,1,1,2.212-2.212A2.364,2.364,0,0,1,10.61,107.319Z" transform="translate(0 0)" fill="#b0b0b0"/>
  </g>
</svg>
