<svg xmlns="http://www.w3.org/2000/svg" width="94.002" height="28.98" viewBox="0 0 94.002 28.98">
  <g id="google-wallet-2" transform="translate(0.002 -32.251)">
    <g id="Group_13815" data-name="Group 13815" transform="translate(32.812 41.382)">
      <path id="Path_588" data-name="Path 588" d="M125.428,60.894c-.133.073-.271.161-.408.221a2.827,2.827,0,0,1-1.2.236,2.649,2.649,0,0,1-1.643-.48,3.2,3.2,0,0,1-1.258-2.608,2.8,2.8,0,0,1,2.826-2.852,2.388,2.388,0,0,1,1.271.346,2.056,2.056,0,0,1,.867,1.223l-2.9,1.172-.948.077a2.74,2.74,0,0,0,2.54,2.478,3.186,3.186,0,0,0,1.507-.431l-.655.618m-1.158-3.68c.232-.086.358-.16.358-.335a1.227,1.227,0,0,0-1.223-1.062,1.524,1.524,0,0,0-1.42,1.719c0,.208.025.432.038.653l2.248-.974" transform="translate(-90.588 -52.447)" fill="#b0b0b0"/>
      <path id="Path_589" data-name="Path 589" d="M117.894,58.453h-2.185c.285-.368.333-.407.333-.65V55.791c0-.964.013-2.336.053-3.62.009-.631.058-1.42.069-1.989h-.96l.925-.446H117.9c-.383.224-.506.3-.555.731-.1.95-.111,2.456-.111,4.211v2.85c0,.481.087.557.493.591.209.029.42.042.629.065l-.458.271" transform="translate(-87.855 -49.736)" fill="#b0b0b0"/>
      <path id="Path_590" data-name="Path 590" d="M88.824,53.768a2.014,2.014,0,0,1-.16,3.422.866.866,0,0,0-.348.606.679.679,0,0,0,.321.528l.446.346a2.152,2.152,0,0,1,1.035,1.73c0,1.162-1.122,2.333-3.247,2.333-1.788,0-2.653-.849-2.653-1.764a1.78,1.78,0,0,1,.95-1.508,5.3,5.3,0,0,1,2.356-.568,1.3,1.3,0,0,1-.369-.838,1.1,1.1,0,0,1,.124-.484c-.137.013-.272.025-.394.025a1.95,1.95,0,0,1-2.049-1.938A2.221,2.221,0,0,1,85.623,54a3.371,3.371,0,0,1,2.211-.679h2.543l-.791.444h-.763m-.878,5.481a2.23,2.23,0,0,0-.283-.011,4.929,4.929,0,0,0-1.3.2A1.387,1.387,0,0,0,85.3,60.709c0,.875.853,1.506,2.172,1.506,1.186,0,1.817-.57,1.817-1.333,0-.631-.409-.964-1.348-1.632m.36-2.343a1.255,1.255,0,0,0,.308-.9c0-.886-.531-2.274-1.555-2.274a1.156,1.156,0,0,0-.865.407,1.428,1.428,0,0,0-.272.915c0,.827.481,2.2,1.543,2.2a1.272,1.272,0,0,0,.84-.345m-7.121,2.17a2.913,2.913,0,0,1-3.014-2.911,3.06,3.06,0,0,1,3.2-3,2.886,2.886,0,0,1,2.95,2.914,3.012,3.012,0,0,1-3.134,3m1.543-1a2.237,2.237,0,0,0,.369-1.368c0-1.086-.519-3.161-2.049-3.161a1.739,1.739,0,0,0-1.112.417,1.883,1.883,0,0,0-.567,1.51c0,1.223.606,3.233,2.1,3.233a1.579,1.579,0,0,0,1.261-.631m-8.112,1A2.912,2.912,0,0,1,71.6,56.166a3.059,3.059,0,0,1,3.2-3,2.887,2.887,0,0,1,2.95,2.914,3.015,3.015,0,0,1-3.135,3m1.542-1a2.224,2.224,0,0,0,.371-1.368c0-1.086-.519-3.161-2.049-3.161a1.737,1.737,0,0,0-1.111.417,1.876,1.876,0,0,0-.57,1.51c0,1.223.607,3.233,2.1,3.233a1.575,1.575,0,0,0,1.259-.631m-5.351.572-1.656.381a12.468,12.468,0,0,1-1.91.2,4.113,4.113,0,0,1-4.409-4.189,4.377,4.377,0,0,1,4.677-4.33,6.6,6.6,0,0,1,1.769.244,4.516,4.516,0,0,1,1.53.716l-.961.914-.4.093.289-.462a3.3,3.3,0,0,0-2.477-1.09,3.2,3.2,0,0,0-3.2,3.415,4.094,4.094,0,0,0,4.1,4.227,3.393,3.393,0,0,0,1.47-.292V56.61l-1.747.1.926-.5H71.26l-.3.29a.269.269,0,0,0-.115.185c-.011.1-.021.44-.021.555v1.414m32.171.268H102.1l-1.28-5.591h.691l1.052,5.014,1.1-5.014h.89l1.109,5.014,1.027-5.014h.681l-1.27,5.591h-.879l-1.109-4.991-1.132,4.991m8.468-3.881c0-.913-.4-1.26-1.328-1.26a1.156,1.156,0,0,0-1.247,1.039l-.624-.091a1.765,1.765,0,0,1,1.894-1.525c1.237,0,1.927.531,1.927,1.767V57.82a4.448,4.448,0,0,0,.1,1.1h-.648a2.045,2.045,0,0,1-.08-.589,1.909,1.909,0,0,1-1.476.716,1.726,1.726,0,0,1-1.839-1.871,1.759,1.759,0,0,1,1.986-1.779,3.254,3.254,0,0,1,1.328.243v-.6m0,1.2a3.039,3.039,0,0,0-1.338-.276c-.786,0-1.341.392-1.341,1.213A1.153,1.153,0,0,0,110,58.455a1.691,1.691,0,0,0,1.444-.959V56.237m1.9-5.291h.633v7.971h-.633Zm1.985,0h.637v7.971h-.637Zm3.79,7.5c.683,0,1.179-.4,1.3-1.455l.647.093c-.161,1.35-.936,1.964-1.95,1.964-1.331,0-2.114-.971-2.114-2.969,0-1.791.669-2.875,2.045-2.875,1.444,0,2.019,1.2,2.019,2.829v.208h-3.4c0,1.536.575,2.206,1.455,2.206m1.272-2.783v-.022c-.037-1.04-.453-1.849-1.34-1.849-.868,0-1.34.728-1.387,1.872h2.727m3.627,3.223a1.99,1.99,0,0,1-.671.1c-.832,0-1.1-.414-1.1-1.212V53.9h-.727v-.578h.727v-1.8l.649-.254v2.056h1.121V53.9H122.9v3.789c0,.531.1.683.553.683a1.211,1.211,0,0,0,.567-.127v.634" transform="translate(-62.832 -50.2)" fill="#b0b0b0"/>
    </g>
    <path id="Path_591" data-name="Path 591" d="M10.56,51.694a19.564,19.564,0,0,0-6.538-5.651,2.733,2.733,0,1,0-2.58,4.819,13.239,13.239,0,0,1,6.9,10.964v-.011a2.85,2.85,0,0,1,.283-1.534,2.369,2.369,0,0,1,.119-.219,13.19,13.19,0,0,0,1.912-6.854,13.171,13.171,0,0,0-.1-1.514" transform="translate(0 -6.435)" fill="#b0b0b0"/>
    <path id="Path_592" data-name="Path 592" d="M43.4,40.115a29.652,29.652,0,0,0-2.133-6.141,3.038,3.038,0,0,0-2.731-1.723,2.984,2.984,0,0,0-1.3.293,3.027,3.027,0,0,0-1.429,4.026,23.845,23.845,0,0,1,.026,20.349,3.219,3.219,0,0,0-.286,1.262,3.149,3.149,0,0,0,.077.7,3.015,3.015,0,0,0,5.586.782,22.4,22.4,0,0,0,1.743-4.531c.167-.576.308-1.117.439-1.7a29.98,29.98,0,0,0,.749-6.659,30.271,30.271,0,0,0-.746-6.659" transform="translate(-16.97)" fill="#b0b0b0"/>
    <path id="Path_593" data-name="Path 593" d="M21.292,39.988A2.932,2.932,0,0,0,18.846,38.6a2.389,2.389,0,0,0-1.03.19,2.747,2.747,0,0,0-1.028.666,3,3,0,0,0-.655,1.055,2.862,2.862,0,0,0,.237,2.455,12.831,12.831,0,0,1,1.81,5.326,13.074,13.074,0,0,1-1.818,8.368,2.89,2.89,0,0,0,.966,3.954,2.946,2.946,0,0,0,.657.289,2.859,2.859,0,0,0,3.3-1.256A19.01,19.01,0,0,0,21.3,39.986" transform="translate(-7.619 -3.035)" fill="#b0b0b0"/>
    <path id="Path_594" data-name="Path 594" d="M30.559,60.384a23.558,23.558,0,0,0,2.267-10.147,23.24,23.24,0,0,0-.147-2.674,25.555,25.555,0,0,0-8.2-8.063l.084.055a2.876,2.876,0,0,1,.633.608,3.028,3.028,0,0,1,.176.253,18.963,18.963,0,0,1,2.733,9.82c0,.414-.014.828-.04,1.239a19.488,19.488,0,0,1,2.217,9.087v.979a3.233,3.233,0,0,1,.222-1.015c.019-.048.039-.1.061-.143" transform="translate(-11.694 -3.463)" fill="#b0b0b0"/>
  </g>
</svg>
