<svg xmlns="http://www.w3.org/2000/svg" width="65.25" height="70.438" viewBox="0 0 65.25 70.438">
  <path id="Union_8" data-name="Union 8" d="M24.423,67.109Q16.414,62.4,8.245,57.966A14.4,14.4,0,0,1,.16,44.473q0-.108,0-.217.022-2.464.022-4.928,0-6.812-.176-13.623Q0,25.451,0,25.2A14.371,14.371,0,0,1,7.863,11.864Q15.957,7.3,23.887,2.455a14.492,14.492,0,0,1,15.94-.132q8.01,4.712,16.178,9.143A14.4,14.4,0,0,1,64.09,24.959q0,.108,0,.217-.022,2.464-.022,4.928,0,6.812.176,13.624.007.254.007.5a14.37,14.37,0,0,1-7.863,13.337q-8.094,4.566-16.024,9.409a15.349,15.349,0,0,1-8.06,2.455A15.433,15.433,0,0,1,24.423,67.109Z" transform="translate(0.5 0.506)" fill="none" stroke="#f7f8fa" stroke-width="1"/>
</svg>
