<svg xmlns="http://www.w3.org/2000/svg" width="12.532" height="11.652" viewBox="0 0 12.532 11.652">
  <g id="Group_466" data-name="Group 466" transform="translate(-24 -454)">
    <g id="like_1_" data-name="like (1)" transform="translate(24 454)">
      <path id="like_1_2" data-name="like (1)" d="M12.511,5.3A3.552,3.552,0,0,0,9.12,1.826,3.371,3.371,0,0,0,6.232,3.49,3.249,3.249,0,0,0,3.412,1.826,3.552,3.552,0,0,0,.021,5.3,3.582,3.582,0,0,0,.128,6.62a5.663,5.663,0,0,0,1.735,2.9l4.366,3.962L10.67,9.516A5.664,5.664,0,0,0,12.4,6.62,3.59,3.59,0,0,0,12.511,5.3Z" transform="translate(0 -1.826)" fill="none"/>
    </g>
    <g id="like_1_3" data-name="like (1)" transform="translate(24 454)">
      <path id="like_1_4" data-name="like (1)" d="M12.511,5.3A3.552,3.552,0,0,0,9.12,1.826,3.371,3.371,0,0,0,6.232,3.49,3.249,3.249,0,0,0,3.412,1.826,3.552,3.552,0,0,0,.021,5.3,3.582,3.582,0,0,0,.128,6.62a5.663,5.663,0,0,0,1.735,2.9l4.366,3.962L10.67,9.516A5.664,5.664,0,0,0,12.4,6.62,3.59,3.59,0,0,0,12.511,5.3Z" transform="translate(0 -1.826)" fill="red"/>
    </g>
  </g>
</svg>
