<svg xmlns="http://www.w3.org/2000/svg" width="83.149" height="79" viewBox="0 0 83.149 79">
  <g id="favourites-filled-star-symbol" transform="translate(0 -3.162)">
    <path id="Path_341" data-name="Path 341" d="M79.532,30.1l-22.9-2.165A3.96,3.96,0,0,1,53.353,25.5l-8.2-19.88a3.925,3.925,0,0,0-7.284,0L29.732,25.5a3.876,3.876,0,0,1-3.281,2.428L3.553,30.1a3.959,3.959,0,0,0-2.231,6.889L18.578,52.141a3.924,3.924,0,0,1,1.247,3.871L14.641,77.27A3.958,3.958,0,0,0,20.481,81.6l19.093-11.22a3.97,3.97,0,0,1,4,0L62.67,81.6a3.945,3.945,0,0,0,5.839-4.331L63.391,56.012a3.924,3.924,0,0,1,1.247-3.871L81.894,36.985A4.008,4.008,0,0,0,79.532,30.1Z" transform="translate(0)" fill="#e2ac3c"/>
  </g>
</svg>
