<svg xmlns="http://www.w3.org/2000/svg" width="43.987" height="47.477" viewBox="0 0 43.987 47.477">
  <g id="Polygon_1" data-name="Polygon 1" transform="translate(-37.991 -169)" fill="rgba(0,0,0,0.66)" stroke-linejoin="round">
    <path d="M 60.09596633911133 215.477294921875 C 58.29114532470703 215.477294921875 56.46970367431641 214.94091796875 54.68224334716797 213.883056640625 C 51.38363265991211 211.9309844970703 48.00616455078125 210.0105133056641 44.64367294311523 208.1750030517578 C 40.92114639282227 206.1430053710938 39.05310440063477 202.9564361572266 39.09145355224609 198.7038269042969 C 39.12607574462891 194.8595733642578 39.09396362304688 190.9626770019531 38.99600601196289 187.1213836669922 C 38.88762283325195 182.8700714111328 40.70285415649414 179.6529693603516 44.39127349853516 177.5594329833984 C 47.72491455078125 175.6672515869141 51.07026290893555 173.6909027099609 54.33438491821289 171.6853179931641 C 56.15430450439453 170.567138671875 58.01816558837891 170.0001831054688 59.87422561645508 170.0001831054688 C 61.67902374267578 170.0001831054688 63.50044631958008 170.5365447998047 65.28787231445313 171.5943756103516 C 68.58397674560547 173.5450744628906 71.96143341064453 175.4655456542969 75.32644653320313 177.3024444580078 C 79.04897308349609 179.3344879150391 80.91700744628906 182.5210418701172 80.878662109375 186.7736053466797 C 80.84406280517578 190.6165771484375 80.87618255615234 194.5135040283203 80.97413635253906 198.3561096191406 C 81.08253479003906 202.6074066162109 79.26730346679688 205.8245086669922 75.57884216308594 207.9180755615234 C 72.24603271484375 209.8097381591797 68.90068817138672 211.7860717773438 65.63573455810547 213.7921600341797 C 63.81585311889648 214.9103393554688 61.9520149230957 215.477294921875 60.09596633911133 215.477294921875 Z" stroke="none"/>
    <path d="M 60.09596633911133 214.477294921875 C 61.77212905883789 214.477294921875 63.44450759887695 213.9648284912109 65.11222076416016 212.9401397705078 C 68.40268707275391 210.9183807373047 71.72701263427734 208.9544830322266 75.08522796630859 207.0483856201172 C 78.44342803955078 205.1422882080078 80.07318115234375 202.2533721923828 79.97445678710938 198.381591796875 C 79.87576293945313 194.5098266601563 79.84383392333984 190.6374969482422 79.87870788574219 186.7645874023438 C 79.91362762451172 182.8917388916016 78.23651123046875 180.0302734375 74.84730529785156 178.1801910400391 C 71.45816802978516 176.3301086425781 68.10189819335938 174.4217681884766 64.778564453125 172.4549560546875 C 63.13964080810547 171.4850158691406 61.50517272949219 171.0001678466797 59.87422180175781 171.0001678466797 C 58.19805908203125 171.0001678466797 56.52563858032227 171.5126495361328 54.85789489746094 172.5373382568359 C 51.5674934387207 174.55908203125 48.2431640625 176.52294921875 44.88489532470703 178.4291076660156 C 41.5267333984375 180.3351898193359 39.89697265625 183.2241363525391 39.99567413330078 187.0959014892578 C 40.09441375732422 190.9676818847656 40.12629318237305 194.8399963378906 40.09141540527344 198.7128448486328 C 40.05648422241211 202.5857696533203 41.73361587524414 205.4472198486328 45.1228141784668 207.2972564697266 C 48.51200485229492 209.1473388671875 51.86821365356445 211.0557556152344 55.19155502319336 213.0224761962891 C 56.83050155639648 213.992431640625 58.46501541137695 214.477294921875 60.09596633911133 214.477294921875 M 60.09596633911133 216.477294921875 C 58.10951614379883 216.477294921875 56.11672592163086 215.8940124511719 54.17293548583984 214.74365234375 C 50.88425445556641 212.7974243164063 47.51692581176758 210.8827362060547 44.16453552246094 209.052734375 C 42.15486526489258 207.9557342529297 40.61832427978516 206.5164642333984 39.59759521484375 204.7749481201172 C 38.57753372192383 203.0345458984375 38.07080459594727 200.9888916015625 38.09149551391602 198.6948089599609 C 38.12601470947266 194.8620147705078 38.093994140625 190.9767303466797 37.99632263183594 187.1468963623047 C 37.9378662109375 184.8535003662109 38.41080474853516 182.7997589111328 39.40202331542969 181.0426940917969 C 40.39387512207031 179.2845153808594 41.90642547607422 177.8199615478516 43.89764404296875 176.6897583007813 C 47.22127532958984 174.8032531738281 50.55656433105469 172.8328552246094 53.81087493896484 170.8332977294922 C 55.79059600830078 169.6169281005859 57.83059310913086 169.0001831054688 59.87422561645508 169.0001831054688 C 61.86068344116211 169.0001831054688 63.85345458984375 169.5834503173828 65.79718780517578 170.7337951660156 C 69.0833740234375 172.6786193847656 72.45068359375 174.5933227539063 75.80559539794922 176.4247131347656 C 77.81526184082031 177.5217437744141 79.351806640625 178.9610137939453 80.37252807617188 180.7025451660156 C 81.39258575439453 182.4429321289063 81.89930725097656 184.4885711669922 81.87862396240234 186.7826232910156 C 81.84412384033203 190.6141357421875 81.87615203857422 194.4994506835938 81.97380828857422 198.3306274414063 C 82.03228759765625 200.6239929199219 81.55934143066406 202.677734375 80.56812286376953 204.434814453125 C 79.57627105712891 206.1929779052734 78.06371307373047 207.6575164794922 76.07247161865234 208.7877349853516 C 72.74967193603516 210.6737365722656 69.41438293457031 212.6441192626953 66.15924072265625 214.6441802978516 C 64.17955780029297 215.8605499267578 62.13957595825195 216.477294921875 60.09596633911133 216.477294921875 Z" stroke="none" fill="#fff"/>
  </g>
</svg>
