<svg xmlns="http://www.w3.org/2000/svg" width="118.483" height="127.233" viewBox="0 0 118.483 127.233">
  <g id="Group_13511" data-name="Group 13511" transform="translate(-170.21 -36.087)">
    <g id="Polygon_1" data-name="Polygon 1" transform="translate(-86.043 -445.503)" stroke-linejoin="round">
      <path d="M 315.7809143066406 602.4114379882812 C 311.3249816894531 602.4114379882812 306.8149108886719 601.0874633789062 302.3759155273438 598.4763793945312 C 293.8616027832031 593.4683227539062 285.1427917480469 588.5408935546875 276.4617004394531 583.8308715820312 C 267.2384338378906 578.826904296875 262.6099853515625 570.9776611328125 262.7049560546875 560.501220703125 C 262.7943115234375 550.6395263671875 262.71142578125 540.6414184570312 262.4585876464844 530.7845458984375 C 262.1898803710938 520.3110961914062 266.6875610351562 512.386474609375 275.82666015625 507.2308349609375 C 284.4302673339844 502.377197265625 293.066162109375 497.3064270019531 301.4944763183594 492.1594543457031 C 306.0134582519531 489.3998107910156 310.6278686523438 488.0005493164062 315.20947265625 488.0005493164062 C 319.6653747558594 488.0005493164062 324.1754455566406 489.3244934082031 328.6143798828125 491.935546875 C 337.1272277832031 496.9428405761719 345.8460388183594 501.8703002929688 354.5286560058594 506.5810241699219 C 363.7518920898438 511.585205078125 368.3803100585938 519.4345092773438 368.2853393554688 529.910888671875 C 368.1959533691406 539.7710571289062 368.2788391113281 549.7691650390625 368.5317077636719 559.62744140625 C 368.8003845214844 570.1008911132812 364.302734375 578.0255737304688 355.1637268066406 583.1812133789062 C 346.56103515625 588.0342407226562 337.9251098632812 593.10498046875 329.4958190917969 598.2525634765625 C 324.9768981933594 601.01220703125 320.3625183105469 602.4114379882812 315.7809143066406 602.4114379882812 Z" stroke="none"/>
      <path d="M 315.7809143066406 600.9114379882812 C 320.1024475097656 600.9114379882812 324.414306640625 599.59814453125 328.7140502929688 596.972412109375 C 337.1976013183594 591.7916870117188 345.7684326171875 586.7591552734375 354.4266967773438 581.874755859375 C 363.0848693847656 576.9903564453125 367.2867126464844 569.58740234375 367.0321960449219 559.6658935546875 C 366.7777099609375 549.7444458007812 366.6954345703125 539.8215942382812 366.785400390625 529.8972778320312 C 366.8753662109375 519.972900390625 362.5513305664062 512.640380859375 353.8133239746094 507.8994750976562 C 345.0752868652344 503.15869140625 336.4221496582031 498.2683715820312 327.8538818359375 493.2284545898438 C 323.6283569335938 490.7429504394531 319.4143981933594 489.5005493164062 315.20947265625 489.5005493164062 C 310.8879699707031 489.5005493164062 306.5760192871094 490.8138427734375 302.2762451171875 493.4396057128906 C 293.7927551269531 498.6203002929688 285.2218627929688 503.65283203125 276.5636901855469 508.5372619628906 C 267.9053955078125 513.4216918945312 263.7035522460938 520.8245849609375 263.9580993652344 530.74609375 C 264.2125854492188 540.6676025390625 264.2948303222656 550.5904541015625 264.2048950195312 560.5148315429688 C 264.1149291992188 570.4390869140625 268.4389953613281 577.771728515625 277.177001953125 582.512451171875 C 285.9150085449219 587.2532958984375 294.5681457519531 592.1436767578125 303.1364135742188 597.1834716796875 C 307.3619689941406 599.6690063476562 311.5759887695312 600.9114379882812 315.7809143066406 600.9114379882812 M 315.7809143066406 603.9114379882812 C 311.0539855957031 603.9114379882812 306.2879943847656 602.517822265625 301.6153869628906 599.769287109375 C 293.1158447265625 594.7698974609375 284.4122314453125 589.85107421875 275.746337890625 585.1493530273438 C 270.9126892089844 582.5269165039062 267.2285766601562 579.1058959960938 264.7963256835938 574.9813232421875 C 262.363525390625 570.8558959960938 261.1552429199219 565.9794921875 261.2050170898438 560.4876098632812 C 261.2942199707031 550.6437377929688 261.2114868164062 540.6631469726562 260.9590759277344 530.822998046875 C 260.8182067871094 525.3327026367188 261.9454956054688 520.4369506835938 264.3095397949219 516.2719116210938 C 266.673095703125 512.1077880859375 270.300048828125 508.6263427734375 275.0896911621094 505.9243469238281 C 283.6785278320312 501.0790405273438 292.2993469238281 496.0171203613281 300.7127075195312 490.8792724609375 C 305.4705505371094 487.9737854003906 310.3479614257812 486.5005493164062 315.20947265625 486.5005493164062 C 319.9363708496094 486.5005493164062 324.7023315429688 487.8941650390625 329.3749084472656 490.6426391601562 C 337.8731384277344 495.641357421875 346.5767822265625 500.5602416992188 355.2439575195312 505.2625732421875 C 360.0776672363281 507.8851318359375 363.7617797851562 511.3061828613281 366.1940002441406 515.4306640625 C 368.6267700195312 519.55615234375 369.8350524902344 524.4325561523438 369.7852783203125 529.9244995117188 C 369.696044921875 539.7673950195312 369.77880859375 549.7479248046875 370.0312194824219 559.5889892578125 C 370.1720581054688 565.0792846679688 369.0447998046875 569.9750366210938 366.6807250976562 574.14013671875 C 364.3171997070312 578.3042602539062 360.6902770996094 581.7857055664062 355.9007263183594 584.4876708984375 C 347.313232421875 589.3321533203125 338.6923522949219 594.39404296875 330.277587890625 599.53271484375 C 325.5198059082031 602.438232421875 320.6424255371094 603.9114379882812 315.7809143066406 603.9114379882812 Z" stroke="none" fill="#c4932f"/>
    </g>
    <g id="Polygon_1-2" data-name="Polygon 1" transform="translate(-88.737 -448.414)" fill="none" stroke-linejoin="round">
      <path d="M359.155,586.7q-13.666,7.709-27.056,15.887t-26.914.222q-13.524-7.955-27.316-15.438t-13.65-23.147q.142-15.664-.26-31.324t13.264-23.369q13.666-7.709,27.056-15.887t26.914-.222q13.524,7.955,27.316,15.438t13.65,23.147q-.142,15.664.26,31.324T359.155,586.7Z" stroke="none"/>
      <path d="M 318.4894409179688 606.7332153320312 C 323.0367736816406 606.7332153320312 327.573974609375 605.351318359375 332.0984191894531 602.5883178710938 C 341.0252990722656 597.1369018554688 350.0439758300781 591.8414306640625 359.1546936035156 586.7017822265625 C 368.2652587890625 581.5621337890625 372.6866760253906 573.7723388671875 372.4188537597656 563.3323974609375 C 372.1510925292969 552.8925170898438 372.0645141601562 542.451171875 372.1591491699219 532.0082397460938 C 372.2538452148438 521.5652465820312 367.703857421875 513.8495483398438 358.50927734375 508.8608703613281 C 349.3146057128906 503.8724060058594 340.2093200683594 498.7265319824219 331.1932983398438 493.4232177734375 C 326.7469482421875 490.8078308105469 322.3128967285156 489.5005798339844 317.8882446289062 489.5005798339844 C 313.3409118652344 489.5005798339844 308.8035888671875 490.8825073242188 304.2791137695312 493.6454772949219 C 295.3523254394531 499.0968322753906 286.3335876464844 504.3923645019531 277.2229614257812 509.531982421875 C 268.1122131347656 514.6717529296875 263.6907958984375 522.46142578125 263.9586791992188 532.9014282226562 C 264.2264709472656 543.3413696289062 264.31298828125 553.78271484375 264.2183532714844 564.2257080078125 C 264.1237182617188 574.6685180664062 268.6737365722656 582.3843383789062 277.8683166503906 587.372802734375 C 287.0629272460938 592.3613891601562 296.1682739257812 597.50732421875 305.1842651367188 602.8104858398438 C 309.6305847167969 605.4259033203125 314.0647583007812 606.7332153320312 318.4894409179688 606.7332153320312 M 318.4894409179688 611.733154296875 C 313.1824645996094 611.733154296875 307.85302734375 610.18115234375 302.6492309570312 607.1201782226562 C 293.724853515625 601.8709106445312 284.5851135253906 596.70556640625 275.48388671875 591.7676391601562 C 270.0996704101562 588.846435546875 265.9845886230469 585.0166015625 263.2529907226562 580.3844604492188 C 260.5204772949219 575.750732421875 259.1631164550781 570.2989501953125 259.2185668945312 564.1803588867188 C 259.312255859375 553.8427124023438 259.2253723144531 543.362060546875 258.9603271484375 533.0296630859375 C 258.8033752441406 526.9127807617188 260.0701293945312 521.439208984375 262.7254638671875 516.760986328125 C 265.3798828125 512.0844116210938 269.4309692382812 508.18701171875 274.7662353515625 505.1771545410156 C 283.7841491699219 500.08984375 292.8369445800781 494.7743225097656 301.6732177734375 489.3782348632812 C 306.9732055664062 486.1416625976562 312.4287414550781 484.5005798339844 317.8882446289062 484.5005798339844 C 323.1951904296875 484.5005798339844 328.5245361328125 486.0526123046875 333.7283325195312 489.1134948730469 C 342.6527099609375 494.3629150390625 351.7924499511719 499.5282287597656 360.8936462402344 504.4660339355469 C 366.2780151367188 507.3873901367188 370.39306640625 511.2173156738281 373.1246032714844 515.8494262695312 C 375.8570861816406 520.4830932617188 377.2144165039062 525.9349365234375 377.1589660644531 532.0535888671875 C 377.0652770996094 542.3897094726562 377.1521911621094 552.8703002929688 377.4172058105469 563.2042236328125 C 377.5741271972656 569.321044921875 376.307373046875 574.7946166992188 373.6520690917969 579.4727783203125 C 370.9976501464844 584.1494750976562 366.9465942382812 588.0468139648438 361.6114501953125 591.0565795898438 C 352.5931701660156 596.1441040039062 343.5403137207031 601.4596557617188 334.7043151855469 606.8555908203125 C 329.4043884277344 610.0921020507812 323.9489135742188 611.733154296875 318.4894409179688 611.733154296875 Z" stroke="none" fill="#f9f9f9"/>
    </g>
  </g>
</svg>
