<svg xmlns="http://www.w3.org/2000/svg" width="109.096" height="117.411" viewBox="0 0 109.096 117.411">
  <g id="Polygon_1" data-name="Polygon 1" transform="translate(-260.947 -486.501)" fill="none" stroke-linejoin="round">
    <path d="M354.427,581.875q-12.987,7.327-25.713,15.1t-25.578.211q-12.852-7.56-25.959-14.671t-12.972-22q.135-14.887-.247-29.769t12.606-22.209q12.987-7.327,25.713-15.1t25.578-.211q12.852,7.56,25.959,14.671t12.972,22q-.135,14.886.247,29.769T354.427,581.875Z" stroke="none"/>
    <path d="M 315.7809143066406 600.9114379882812 C 320.1024475097656 600.9114379882812 324.414306640625 599.59814453125 328.7140502929688 596.972412109375 C 337.1976013183594 591.7916870117188 345.7684326171875 586.7591552734375 354.4266967773438 581.874755859375 C 363.0848693847656 576.9903564453125 367.2867126464844 569.58740234375 367.0321960449219 559.6658935546875 C 366.7777099609375 549.7444458007812 366.6954345703125 539.8215942382812 366.785400390625 529.8972778320312 C 366.8753662109375 519.972900390625 362.5513305664062 512.640380859375 353.8133239746094 507.8994750976562 C 345.0752868652344 503.15869140625 336.4221496582031 498.2683715820312 327.8538818359375 493.2284545898438 C 323.6283569335938 490.7429504394531 319.4143981933594 489.5005493164062 315.20947265625 489.5005493164062 C 310.8879699707031 489.5005493164062 306.5760192871094 490.8138427734375 302.2762451171875 493.4396057128906 C 293.7927551269531 498.6203002929688 285.2218627929688 503.65283203125 276.5636901855469 508.5372619628906 C 267.9053955078125 513.4216918945312 263.7035522460938 520.8245849609375 263.9580993652344 530.74609375 C 264.2125854492188 540.6676025390625 264.2948303222656 550.5904541015625 264.2048950195312 560.5148315429688 C 264.1149291992188 570.4390869140625 268.4389953613281 577.771728515625 277.177001953125 582.512451171875 C 285.9150085449219 587.2532958984375 294.5681457519531 592.1436767578125 303.1364135742188 597.1834716796875 C 307.3619689941406 599.6690063476562 311.5759887695312 600.9114379882812 315.7809143066406 600.9114379882812 M 315.7809143066406 603.9114379882812 C 311.0539855957031 603.9114379882812 306.2879943847656 602.517822265625 301.6153869628906 599.769287109375 C 293.1158447265625 594.7698974609375 284.4122314453125 589.85107421875 275.746337890625 585.1493530273438 C 270.9126892089844 582.5269165039062 267.2285766601562 579.1058959960938 264.7963256835938 574.9813232421875 C 262.363525390625 570.8558959960938 261.1552429199219 565.9794921875 261.2050170898438 560.4876098632812 C 261.2942199707031 550.6437377929688 261.2114868164062 540.6631469726562 260.9590759277344 530.822998046875 C 260.8182067871094 525.3327026367188 261.9454956054688 520.4369506835938 264.3095397949219 516.2719116210938 C 266.673095703125 512.1077880859375 270.300048828125 508.6263427734375 275.0896911621094 505.9243469238281 C 283.6785278320312 501.0790405273438 292.2993469238281 496.0171203613281 300.7127075195312 490.8792724609375 C 305.4705505371094 487.9737854003906 310.3479614257812 486.5005493164062 315.20947265625 486.5005493164062 C 319.9363708496094 486.5005493164062 324.7023315429688 487.8941650390625 329.3749084472656 490.6426391601562 C 337.8731384277344 495.641357421875 346.5767822265625 500.5602416992188 355.2439575195312 505.2625732421875 C 360.0776672363281 507.8851318359375 363.7617797851562 511.3061828613281 366.1940002441406 515.4306640625 C 368.6267700195312 519.55615234375 369.8350524902344 524.4325561523438 369.7852783203125 529.9244995117188 C 369.696044921875 539.7673950195312 369.77880859375 549.7479248046875 370.0312194824219 559.5889892578125 C 370.1720581054688 565.0792846679688 369.0447998046875 569.9750366210938 366.6807250976562 574.14013671875 C 364.3171997070312 578.3042602539062 360.6902770996094 581.7857055664062 355.9007263183594 584.4876708984375 C 347.313232421875 589.3321533203125 338.6923522949219 594.39404296875 330.277587890625 599.53271484375 C 325.5198059082031 602.438232421875 320.6424255371094 603.9114379882812 315.7809143066406 603.9114379882812 Z" stroke="none" fill="#c4932f"/>
  </g>
</svg>
