<svg xmlns="http://www.w3.org/2000/svg" xmlns:xlink="http://www.w3.org/1999/xlink" width="263.846" height="200.421" viewBox="0 0 263.846 200.421">
  <defs>
    <linearGradient id="linear-gradient" x1="0.497" y1="0.193" x2="0.508" y2="1.065" gradientUnits="objectBoundingBox">
      <stop offset="0" stop-color="#ea9344"/>
      <stop offset="1" stop-color="#f4ca79"/>
    </linearGradient>
    <linearGradient id="linear-gradient-2" x1="0.128" y1="1.188" x2="0.488" y2="0.475" gradientUnits="objectBoundingBox">
      <stop offset="0" stop-color="#f8b375"/>
      <stop offset="1" stop-color="#f7c778"/>
    </linearGradient>
    <linearGradient id="linear-gradient-3" x1="0.335" y1="-0.143" x2="0.663" y2="0.966" gradientUnits="objectBoundingBox">
      <stop offset="0" stop-color="#612f34"/>
      <stop offset="0.21" stop-color="#612f34"/>
      <stop offset="0.77" stop-color="#926027"/>
      <stop offset="1" stop-color="#926027"/>
    </linearGradient>
    <linearGradient id="linear-gradient-4" x1="-0.008" y1="0.463" x2="0.735" y2="0.499" gradientUnits="objectBoundingBox">
      <stop offset="0" stop-color="#f3af62"/>
      <stop offset="1" stop-color="#f7c778"/>
    </linearGradient>
    <linearGradient id="linear-gradient-5" x1="0.954" y1="0.467" x2="0.048" y2="0.535" gradientUnits="objectBoundingBox">
      <stop offset="0" stop-color="#440511"/>
      <stop offset="0.21" stop-color="#440511"/>
      <stop offset="0.77" stop-color="#824a02"/>
      <stop offset="1" stop-color="#824a02"/>
    </linearGradient>
    <linearGradient id="linear-gradient-6" x1="0.115" y1="0.273" x2="1.02" y2="0.742" xlink:href="#linear-gradient-5"/>
    <linearGradient id="linear-gradient-7" x1="0.344" y1="0.822" x2="0.679" y2="0.118" xlink:href="#linear-gradient-5"/>
    <linearGradient id="linear-gradient-8" x1="0.965" y1="0.539" x2="0.095" y2="0.466" gradientUnits="objectBoundingBox">
      <stop offset="0" stop-color="#f8b070"/>
      <stop offset="1" stop-color="#f4ca79"/>
    </linearGradient>
  </defs>
  <g id="Group_13849" data-name="Group 13849" transform="translate(-55.821 -156)">
    <g id="_25" data-name="25" transform="translate(-81.193 -21.169)">
      <path id="Path_586" data-name="Path 586" d="M145.235,716.012h258.76v-2.057H145.235v2.057Zm8.5-2.057v-1.829H394.873v1.829Zm-4.178,3.885v-1.828h249.2v1.828Z" transform="translate(-6.485 -340.25)" fill="#d3ded3" opacity="0.42"/>
      <g id="Group_13845" data-name="Group 13845" transform="translate(137.014 280.799)">
        <path id="Path_587" data-name="Path 587" d="M237.521,289.932c2.385-1.195,5.851-2.751,6.795-3.1,22.384-8.309,61.208-7.252,84.9-1.556,8.095,1.946,21.106,10.094,32.2,15.54,4.211,2.068,7.745,4.013,10.813,5.3,5.882,2.461,8.136,3.022,15.061,3.085a15.753,15.753,0,0,1,4.962.436c1.808.69,2.133,2.184,3.371,6.425.393.918,5.077,19.342,5.148,20.145.6,6.651-1.574,16.247-7.3,17.658l-24.785,7.018H163.711l-24.841-.871c-3.884-9.271-1.85-32.212,7.818-35.132,9.712-2.934,22.26-6.183,34.826-9.761A175.364,175.364,0,0,0,210.237,303.6Z" transform="translate(-137.014 -280.799)" fill="#b81b36"/>
        <path id="Path_588" data-name="Path 588" d="M184,456.526c32.289-1.509,64.572-3.638,96.967-5.063l114.654-3.688c.393.918,5.077,19.342,5.148,20.145.6,6.651-1.574,16.247-7.3,17.658L368.68,492.6H163.714l-24.841-.871c-3.376-8.06-2.279-25.544,4.416-32.861C157.645,457.737,175.621,456.916,184,456.526Z" transform="translate(-137.018 -412.517)" fill="#8f1524"/>
        <path id="Path_589" data-name="Path 589" d="M382.064,526.865l18.729-4.815c-1.211,2.8-3.029,4.959-5.521,5.573l-24.786,7.017H165.521l-24.841-.871a23.005,23.005,0,0,1-1.371-5.4l14.99.578c5.666.588,3.973.287,4.988-5.711a26.654,26.654,0,0,1,50.232-7.193c.644,1.322,1.2,2.823,1.75,4.2,1.12,2.808,1.213,2.84,4.5,2.752,12.162-.331,60.647-1.613,60.647-1.613s34.417-.08,45.39-1.9c2.786-.462,2.873-.243,3.741-2.271a26.654,26.654,0,0,1,50.624,5.239C377.169,527.459,376.979,527.957,382.064,526.865Z" transform="translate(-138.824 -454.563)" fill="#b8283f"/>
        <path id="Path_590" data-name="Path 590" d="M274.01,520.365A22.585,22.585,0,0,1,295.5,549.857H252.519a22.586,22.586,0,0,1,21.491-29.492Z" transform="translate(-227.276 -469.779)" fill="#300f0f"/>
        <path id="Path_591" data-name="Path 591" d="M283.173,572.221a20.12,20.12,0,1,0-20.12-20.119A20.159,20.159,0,0,0,283.173,572.221Z" transform="translate(-236.439 -478.943)" fill="#5e0711"/>
        <path id="Path_592" data-name="Path 592" d="M306.453,589.269a13.889,13.889,0,1,0-13.889-13.889A13.916,13.916,0,0,0,306.453,589.269Z" transform="translate(-259.719 -502.221)" fill="#fce6dc"/>
        <path id="Path_593" data-name="Path 593" d="M1052.989,520.365a22.583,22.583,0,0,1,21.579,29.211l-1.137.281H1031.5a22.585,22.585,0,0,1,21.491-29.492Z" transform="translate(-841.769 -469.779)" fill="#300f0f"/>
        <path id="Path_594" data-name="Path 594" d="M1062.152,572.221a20.12,20.12,0,1,0-20.12-20.119A20.158,20.158,0,0,0,1062.152,572.221Z" transform="translate(-850.932 -478.943)" fill="#5e0711"/>
        <path id="Path_595" data-name="Path 595" d="M1085.432,589.269a13.889,13.889,0,1,0-13.889-13.889A13.916,13.916,0,0,0,1085.432,589.269Z" transform="translate(-874.212 -502.221)" fill="#fce6dc"/>
        <path id="Path_596" data-name="Path 596" d="M569.573,299.592a176.875,176.875,0,0,0-32.388-2.577c-15.5.134-30.766,1.878-41.388,5.819l-41.5,22.411,12.476,5.924,65.191-3.181,57.636-2.207,14.568-7.536c-6.755-4.872-12.525-10.057-19.377-13.661A49.042,49.042,0,0,0,569.573,299.592Z" transform="translate(-387.301 -293.584)" fill="#e9d4c7"/>
        <path id="Path_597" data-name="Path 597" d="M812.644,296.942l-7.874,31.172,7.413-.335,3.95-30.867Z" transform="translate(-663.77 -293.51)" fill="#5e0711"/>
        <path id="Path_598" data-name="Path 598" d="M474.617,378.775l-.459,16.537-7.373.359-12.473-5.924Z" transform="translate(-387.313 -358.087)" fill="#5e0711"/>
        <path id="Path_599" data-name="Path 599" d="M1016.521,313.913l15.071,23.048-4.294,1.188-14.62-25.592Z" transform="translate(-827.777 -305.85)" fill="#5e0711"/>
        <path id="Path_600" data-name="Path 600" d="M739.932,476.069h2.759a2.238,2.238,0,0,1,2.231,2.232V480a2.236,2.236,0,0,1-2.231,2.23h-2.759A2.237,2.237,0,0,1,737.7,480v-1.7A2.239,2.239,0,0,1,739.932,476.069Z" transform="translate(-610.862 -434.837)" fill="#b8283f"/>
        <path id="Path_601" data-name="Path 601" d="M728.343,485.007H739.62a1.016,1.016,0,0,1,1.014,1.013v.365a1.016,1.016,0,0,1-1.014,1.014H728.343a1.017,1.017,0,0,1-1.014-1.014v-.365A1.016,1.016,0,0,1,728.343,485.007Z" transform="translate(-602.681 -441.887)" fill="#5e0711"/>
        <path id="Path_602" data-name="Path 602" d="M779.866,487.4v-2.392h1.2a1.016,1.016,0,0,1,1.014,1.013v.365a1.016,1.016,0,0,1-1.014,1.014Z" transform="translate(-644.124 -441.887)" fill="#b8283f"/>
        <path id="Rectangle_202" data-name="Rectangle 202" d="M3.083,0H4.138A3.083,3.083,0,0,1,7.221,3.083v0A3.082,3.082,0,0,1,4.138,6.166H3.083A3.083,3.083,0,0,1,0,3.083v0A3.083,3.083,0,0,1,3.083,0Z" transform="translate(186.254 38.954)" fill="#b8283f"/>
        <path id="Path_603" data-name="Path 603" d="M1009.723,474.21H1021a1.017,1.017,0,0,1,1.014,1.015v.364A1.017,1.017,0,0,1,1021,476.6h-11.277a1.016,1.016,0,0,1-1.013-1.015v-.364A1.016,1.016,0,0,1,1009.723,474.21Z" transform="translate(-824.646 -433.37)" fill="#5e0711"/>
        <path id="Path_604" data-name="Path 604" d="M1061.242,476.6V474.21h1.2a1.017,1.017,0,0,1,1.014,1.015v.364a1.017,1.017,0,0,1-1.014,1.015Z" transform="translate(-866.086 -433.37)" fill="#b8283f"/>
        <path id="Path_605" data-name="Path 605" d="M308.858,576.591l2.233,2.058,2.335,2.152a.251.251,0,0,0,.354-.015.246.246,0,0,0,.06-.225l-.7-3.1-.667-2.966a11.268,11.268,0,0,0-3.621,2.093Zm-3.294,4.821a11.307,11.307,0,0,1,2.094-3.622l2.058,2.234,2.152,2.335a.251.251,0,0,1-.24.415l-3.1-.7-2.967-.666Zm-.437,5.823a11.292,11.292,0,0,1,0-4.185l2.9.907,3.031.947a.25.25,0,0,1,0,.478l-3.031.947-2.9.906Zm2.531,5.259,2.058-2.233,2.152-2.336a.25.25,0,0,0-.24-.414l-3.1.7-2.966.666a11.271,11.271,0,0,0,2.093,3.622Zm4.821,3.293a11.294,11.294,0,0,1-3.621-2.094l2.233-2.059,2.336-2.151a.249.249,0,0,1,.353.014.246.246,0,0,1,.06.225l-.7,3.1-.667,2.967Zm5.822.437a11.315,11.315,0,0,1-4.184,0l.9-2.9.949-3.031a.25.25,0,0,1,.313-.165.255.255,0,0,1,.165.165l.947,3.031.906,2.9Zm5.26-2.532-2.233-2.058-2.335-2.152a.251.251,0,0,0-.414.239l.7,3.1.666,2.966a11.286,11.286,0,0,0,3.622-2.094Zm3.292-4.82a11.277,11.277,0,0,1-2.093,3.622l-2.059-2.233-2.152-2.336a.25.25,0,0,1,.24-.414l3.1.695,2.966.667Zm.438-5.822a11.279,11.279,0,0,1,.194,2.091,11.408,11.408,0,0,1-.194,2.093l-2.9-.906-3.032-.947a.25.25,0,0,1,0-.478l3.032-.947,2.9-.906Zm-2.531-5.26-2.059,2.233-2.151,2.335a.251.251,0,0,0,.239.415l3.1-.7,2.966-.666a11.263,11.263,0,0,0-2.093-3.621Zm-4.82-3.293a11.282,11.282,0,0,1,3.622,2.093l-2.233,2.058-2.335,2.152a.251.251,0,0,1-.414-.24l.7-3.1.666-2.966Zm-3.731-.632a11.4,11.4,0,0,1,2.093.194l-.906,2.9-.947,3.031a.25.25,0,0,1-.478,0l-.949-3.031-.9-2.9a11.4,11.4,0,0,1,2.091-.194Zm2.161,15.017a.836.836,0,1,1,.3-1.142.837.837,0,0,1-.3,1.142Zm-4.454-2.418a.836.836,0,1,1-1.141-.305.836.836,0,0,1,1.141.305Zm6.033-3.482a.836.836,0,1,1-1.14-.306.835.835,0,0,1,1.14.306Zm-5.064-.133a.835.835,0,1,1,.306-1.141.837.837,0,0,1-.306,1.141Zm1.324.479a1.813,1.813,0,1,1-1.813,1.814,1.813,1.813,0,0,1,1.813-1.814Z" transform="translate(-269.475 -511.983)" fill="#300f0f"/>
        <path id="Path_606" data-name="Path 606" d="M1087.842,576.591l2.234,2.058,2.336,2.152a.251.251,0,0,0,.354-.015.248.248,0,0,0,.059-.225l-.7-3.1-.665-2.966a11.263,11.263,0,0,0-3.623,2.093Zm-3.293,4.821a11.282,11.282,0,0,1,2.093-3.622l2.059,2.234,2.152,2.335a.251.251,0,0,1-.24.415l-3.1-.7-2.966-.666Zm-.438,5.823a11.4,11.4,0,0,1,0-4.185l2.9.907,3.03.947a.25.25,0,0,1,0,.478l-3.03.947-2.9.906Zm2.532,5.259,2.057-2.233,2.152-2.336a.25.25,0,0,0-.24-.414l-3.1.7-2.966.666a11.247,11.247,0,0,0,2.094,3.622Zm4.821,3.293a11.289,11.289,0,0,1-3.623-2.094l2.234-2.059,2.336-2.151a.25.25,0,0,1,.414.239l-.7,3.1-.665,2.967Zm5.821.437a11.311,11.311,0,0,1-4.183,0l.9-2.9.947-3.031a.25.25,0,0,1,.478,0l.947,3.031.906,2.9Zm5.26-2.532-2.233-2.058-2.335-2.152a.251.251,0,0,0-.415.239l.7,3.1.666,2.966a11.272,11.272,0,0,0,3.621-2.094Zm3.292-4.82a11.288,11.288,0,0,1-2.094,3.622l-2.058-2.233-2.152-2.336a.25.25,0,0,1,.24-.414l3.1.695,2.966.667Zm.438-5.822a11.357,11.357,0,0,1,0,4.184l-2.9-.906-3.032-.947a.251.251,0,0,1,0-.478l3.032-.947,2.9-.906Zm-2.531-5.26-2.058,2.233-2.151,2.335a.251.251,0,0,0,.239.415l3.1-.7,2.965-.666a11.255,11.255,0,0,0-2.094-3.621Zm-4.82-3.293a11.269,11.269,0,0,1,3.621,2.093l-2.233,2.058-2.335,2.152a.251.251,0,0,1-.415-.24l.7-3.1.666-2.966Zm-3.731-.632a11.4,11.4,0,0,1,2.093.194l-.906,2.9-.947,3.031a.247.247,0,0,1-.164.165.251.251,0,0,1-.314-.165l-.947-3.031-.9-2.9a11.376,11.376,0,0,1,2.091-.194Zm2.16,15.017a.836.836,0,1,1,.306-1.142.836.836,0,0,1-.306,1.142Zm-4.453-2.418a.836.836,0,1,1-1.141-.305.835.835,0,0,1,1.141.305Zm6.034-3.482a.836.836,0,1,1-1.141-.306.836.836,0,0,1,1.141.306Zm-5.065-.133a.835.835,0,1,1,.306-1.141.837.837,0,0,1-.306,1.141Zm1.324.479a1.813,1.813,0,1,1-1.813,1.814,1.813,1.813,0,0,1,1.813-1.814Z" transform="translate(-883.973 -511.983)" fill="#300f0f"/>
        <path id="Path_607" data-name="Path 607" d="M155.016,498.024c.463.011.91.034,1.332.071,5.664.494,4.423,6.806.33,8.014a126.776,126.776,0,0,1-13.1,2.493,20.811,20.811,0,0,1,4.8-10.085Z" transform="translate(-142.195 -452.156)" fill="#fce6dc"/>
        <path id="Path_608" data-name="Path 608" d="M160.1,518.762a4.974,4.974,0,0,1-3.417,3.706,126.769,126.769,0,0,1-13.1,2.493,28.592,28.592,0,0,1,1.157-4c.071-.19.257-.67.33-.828l9.778-.923C156.673,519.04,158.43,518.85,160.1,518.762Z" transform="translate(-142.195 -468.515)" fill="#e0ccc3"/>
        <path id="Path_609" data-name="Path 609" d="M506.207,332.064,503.5,382.977l98.722-.748,27.262-37.453L611.819,315.59l.977-.583,18.016,29.776-27.955,38.579-100.555.761,2.721-51.171Z" transform="translate(-425.17 -307.784)" fill="#300f0f"/>
        <path id="Path_610" data-name="Path 610" d="M589.315,401.2l-57.377,2.222-65,3.147-11.283-5.5-1.353.73,12.476,5.924,65.2-3.157L589.6,402.33l14.567-7.536-1.024-.749Z" transform="translate(-387.302 -370.133)" fill="#300f0f"/>
        <path id="Path_611" data-name="Path 611" d="M1325.947,462.366h-7.66c-1.645,0-3.267,1.371-2.992,2.993l.856,5.054a3.215,3.215,0,0,0,2.992,2.992h9.629Z" transform="translate(-1066.47 -424.027)" fill="#cc2527"/>
        <path id="Path_612" data-name="Path 612" d="M819.77,297.056l-6.064,30.308L812,369.3h-1.121l1.694-42.091,6.011-29.951Z" transform="translate(-668.588 -293.623)" fill="#300f0f"/>
        <path id="Path_613" data-name="Path 613" d="M455.852,325.718l-1.517-.477,41.492-22.407c10.622-3.941,25.884-5.685,41.388-5.82a176.888,176.888,0,0,1,32.388,2.578h0a49.476,49.476,0,0,1,13.086,3.859c5.263,2.429,9.585,5.678,14.691,9.6,1.006.773,5.736,4.369,6.817,5.194l-1.2.518c-1.028-.786-5.71-4.344-6.673-5.081-4.967-3.8-9.234-6.946-14.375-9.288a48.27,48.27,0,0,0-12.529-3.676,173.089,173.089,0,0,0-32.195-2.563,181.34,181.34,0,0,0-22.384,1.471,87.683,87.683,0,0,0-18.541,4.25Z" transform="translate(-387.331 -293.583)" fill="#300f0f"/>
        <path id="Path_614" data-name="Path 614" d="M559.426,399.158a1.849,1.849,0,0,1,3.467-1.286l3.69,9.949-3.872.189Z" transform="translate(-470.14 -372.2)" fill="#300f0f"/>
        <g id="Group_13844" data-name="Group 13844" transform="translate(82.951 25.712)">
          <path id="Path_615" data-name="Path 615" d="M531.034,412.355c.582.922,1.881,1.076,4.346,1.188s4.794.538,4.816-3.449-.313-7.282-2.531-7.483-5.152.336-6.161,1.165C529.032,405.809,529.744,410.314,531.034,412.355Z" transform="translate(-529.857 -402.568)" fill="#b8283f"/>
          <path id="Path_616" data-name="Path 616" d="M529.858,428.371a49.266,49.266,0,0,0,10.325.488c.014.512.017,1.044.014,1.589-.022,3.987-2.351,3.561-4.817,3.449s-3.764-.266-4.345-1.188A8.861,8.861,0,0,1,529.858,428.371Z" transform="translate(-529.858 -422.923)" fill="#912733"/>
        </g>
        <path id="Path_617" data-name="Path 617" d="M745.733,385.641c3.178-1.039,9.413-.474,11.951,1.461l-2.386,9.447-13.615.66Z" transform="translate(-614.004 -363.098)" fill="#a69687"/>
        <path id="Path_618" data-name="Path 618" d="M1005.362,385.157a20.639,20.639,0,0,1,5.228.4l4.99,8.732-16.953.664,2.4-6.553C1001.563,386.934,1002.269,385.332,1005.362,385.157Z" transform="translate(-816.692 -363.099)" fill="#a69687"/>
      </g>
      <g id="Group_13847" data-name="Group 13847" transform="translate(232.554 280.864)">
        <path id="Path_619" data-name="Path 619" d="M590.342,425.777l11.947-.588a28.753,28.753,0,0,0,1.176-2.717c-1.131-1.094-3.449-2.8-5.29-3.053a25.185,25.185,0,0,0-2.664,5.426,18.564,18.564,0,0,0-6.036-1.434Z" transform="translate(-589.475 -390.214)" fill="#f8b778"/>
        <path id="Path_620" data-name="Path 620" d="M642.468,382.32c-.009.484,1.493,2.617.761,4.644a49.108,49.108,0,0,0-1.69,5.494l21.331-1.035c1.614-3.445,2.859-5.478,3.851-10.826a11.12,11.12,0,0,0-3.454-1.765,20.856,20.856,0,0,0-4.635-.992C652.772,377.491,645.474,379.454,642.468,382.32Z" transform="translate(-630.545 -357.383)" fill="#422f18"/>
        <path id="Path_621" data-name="Path 621" d="M681.368,351.638a8.116,8.116,0,0,0,7.8-4.255l-.787-.194,1.592-8.06-7.724,2.659-2.439,6.571C679.329,350.309,679.6,351.38,681.368,351.638Z" transform="translate(-660.57 -326.877)" fill="url(#linear-gradient)"/>
        <path id="Path_622" data-name="Path 622" d="M633.477,406.255a47.7,47.7,0,0,1-6.4-4.033,18.514,18.514,0,0,1,4.6-5.555C632.42,396.191,635.279,400.6,633.477,406.255Z" transform="translate(-619.134 -372.238)" fill="#422f18"/>
        <g id="Group_13846" data-name="Group 13846" transform="translate(16.366 0)">
          <path id="Path_623" data-name="Path 623" d="M669.379,308.351c1.154.288,4.663,1.454,6.041,1.1,2.392-1.307,4.338-1.95,6.221-8.568.407-2.608,1.18-4.937.457-6.582-1.152-2.624-4.686-3.821-8.858-3.776-3.357.036-2.5,3.4-4.191,7.61a13.539,13.539,0,0,0-.7,2.146C667.926,302.206,668.123,304.789,669.379,308.351Z" transform="translate(-667.903 -288.536)" fill="url(#linear-gradient-2)"/>
          <path id="Path_624" data-name="Path 624" d="M667.43,336.934a31.81,31.81,0,0,0-.448,5.8,9.962,9.962,0,0,0,.922,2.683,20.1,20.1,0,0,0,6.114,1.275c3.649-1.479,5.362-4.629,6.359-8l-.809-.466c-1.009,2.367-4.168,5.7-7.054,5.286-.265-.272-.646-.73-.91-1l-.821-.068c-.309.176-.735.429-1.043.6C667.576,341.927,667.093,339.127,667.43,336.934Z" transform="translate(-666.982 -325.146)" fill="url(#linear-gradient-3)"/>
          <path id="Path_625" data-name="Path 625" d="M676.827,343.507a7.454,7.454,0,0,1,1.726.456,8,8,0,0,0,1.952.767.65.65,0,0,0,.683-.4,1,1,0,0,0-.058-.479c-.191.218-.349.133-.622-.011a5.341,5.341,0,0,1-.722-.536,3.67,3.67,0,0,0-.665-.432,2.534,2.534,0,0,0-1.729-.293,2.691,2.691,0,0,0-1.209-.277c-1.073.061-1.3.508-1.781.581-.1.015-.334-.049-.36-.143a.61.61,0,0,0-.168.445c.017.253.19.443.557.489A15.5,15.5,0,0,1,676.827,343.507Z" transform="translate(-672.419 -329.374)" fill="#75473c"/>
          <path id="Path_626" data-name="Path 626" d="M703.876,324.146c-.13.477-.689.635-1.415.416s-1.344-.732-1.214-1.209.824-.686,1.55-.467S704.006,323.67,703.876,324.146Z" transform="translate(-693.999 -313.996)" fill="#fff"/>
          <path id="Path_627" data-name="Path 627" d="M680.321,319.588c-.006.424-.535.718-1.223.692s-1.274-.364-1.269-.788.567-.746,1.255-.72S680.326,319.164,680.321,319.588Z" transform="translate(-675.538 -310.818)" fill="#fff"/>
          <path id="Path_628" data-name="Path 628" d="M703.429,323.906a.664.664,0,0,0-.323.415.71.71,0,0,0,.488.856.666.666,0,0,0,.836-.47.7.7,0,0,0-.028-.437A2.8,2.8,0,0,1,703.429,323.906Z" transform="translate(-695.46 -314.869)" fill="#474d4a"/>
          <path id="Path_629" data-name="Path 629" d="M679.527,319.815a.678.678,0,0,0,.543,1.1.69.69,0,0,0,.772-.725.966.966,0,0,0-.089-.4A6.029,6.029,0,0,0,679.527,319.815Z" transform="translate(-676.771 -311.607)" fill="#474d4a"/>
          <path id="Path_630" data-name="Path 630" d="M685.527,324.751s-.378,1.066-.6,1.7c-.31-.026-.768-.08-1.215-.122-.039.471-.139,1.245-.182,1.893.694.062,3.79.393,3.79.393l-.994-3.6Z" transform="translate(-680.033 -315.535)" fill="url(#linear-gradient-4)"/>
          <path id="Path_631" data-name="Path 631" d="M683.165,350.055a8.95,8.95,0,0,1-4.635-.641,3.787,3.787,0,0,0,.433,1.711,2.023,2.023,0,0,0,2.54.753A3.568,3.568,0,0,0,683.165,350.055Z" transform="translate(-676.091 -334.99)" fill="#6b3e39"/>
          <path id="Path_632" data-name="Path 632" d="M682.929,350.977a2.73,2.73,0,0,0,.432-.665,10.191,10.191,0,0,1-2.222-.085,6,6,0,0,1-1.874-.54s.123.421.235.907A9.085,9.085,0,0,0,682.929,350.977Z" transform="translate(-676.671 -335.206)" fill="#fff"/>
          <path id="Path_633" data-name="Path 633" d="M708.538,334.9a11.771,11.771,0,0,0-3.065-1.164l.034-.177a11.961,11.961,0,0,1,3.118,1.185Z" transform="translate(-697.345 -322.48)" fill="#dea376"/>
          <path id="Path_634" data-name="Path 634" d="M714.917,339.027l-1.278-.939.1-.145,1.278.939Z" transform="translate(-703.787 -325.942)" fill="#dea376"/>
          <path id="Path_635" data-name="Path 635" d="M680.6,318.941a14.782,14.782,0,0,0-2.667-.222,1.466,1.466,0,0,1,1.216-.5A1.766,1.766,0,0,1,680.6,318.941Z" transform="translate(-675.621 -310.385)" fill="#40382a"/>
          <path id="Path_636" data-name="Path 636" d="M706.759,311.863l-.254.8s-2.231-.872-2.706-1.1a2.362,2.362,0,0,1,.306-1.624Z" transform="translate(-695.992 -303.849)" fill="url(#linear-gradient-5)"/>
          <path id="Path_637" data-name="Path 637" d="M680.461,309.419l.114.509s.963.019,2.135.044c-.023-.441-.033-1.029-.022-1.292Z" transform="translate(-677.615 -302.858)" fill="url(#linear-gradient-6)"/>
          <path id="Path_638" data-name="Path 638" d="M682.652,327.925l.2-2.1,1.262.153.566-1.593.338.13-.659,1.857-1.184-.144L683,327.96Z" transform="translate(-679.343 -315.249)" fill="#d18041"/>
          <path id="Path_639" data-name="Path 639" d="M683.7,281.106c-.283.279-.039.8.261,1.015a4.7,4.7,0,0,0,2.46.338,3.92,3.92,0,0,1,2.853.971,12.413,12.413,0,0,1,2.8,4.366l-1.258,6.524-.094.316-.961-.587.734-6.522-3.185-2.069s-2.653,1.139-3.815.575a7.213,7.213,0,0,1-2.087-1.7l-1.508.516c.189-.956.158-1.816.938-2.134C681.931,282.267,681.9,281.391,683.7,281.106Z" transform="translate(-677.17 -281.106)" fill="url(#linear-gradient-7)"/>
          <path id="Path_640" data-name="Path 640" d="M726.167,339.77a1.054,1.054,0,0,0,1.364-.652,1.13,1.13,0,0,0-.453-1.489,1.054,1.054,0,0,0-1.364.652A1.131,1.131,0,0,0,726.167,339.77Z" transform="translate(-713.228 -325.631)" fill="url(#linear-gradient-8)"/>
          <path id="Path_641" data-name="Path 641" d="M703.985,323.72c-.276-.085-.522-.179-.766-.272s-.478-.184-.713-.268-.469-.162-.711-.23-.491-.125-.773-.189a1.525,1.525,0,0,1,.811-.235,2.319,2.319,0,0,1,.842.143,2.741,2.741,0,0,1,.745.41A2.1,2.1,0,0,1,703.985,323.72Z" transform="translate(-693.835 -313.779)" fill="#40382a"/>
        </g>
        <path id="Path_642" data-name="Path 642" d="M741.592,398.062a41.192,41.192,0,0,0,8.149-3.328,23.313,23.313,0,0,0-3.773-5.311A12.72,12.72,0,0,0,744,387.989a7.773,7.773,0,0,0-3.284,5.671C740.572,394.95,740.99,397.379,741.592,398.062Z" transform="translate(-708.76 -365.42)" fill="#422f18"/>
        <path id="Path_643" data-name="Path 643" d="M692.578,380.627c-3.91,3.535-7.442,6.085-12.919,13.638l3.212-.157a82.281,82.281,0,0,1,11.977-12.692C694.64,380.839,693.225,380.538,692.578,380.627Z" transform="translate(-660.616 -359.6)" fill="#999"/>
        <path id="Path_644" data-name="Path 644" d="M696.713,443.095c-1.37.87-4.687.987-6.931.437a74.284,74.284,0,0,1-11.547-4.2l-3.881-.109-2.642-.753a13.543,13.543,0,0,1,1.6-1.725,9.112,9.112,0,0,1,2.971-.213,23.515,23.515,0,0,1,2.645.685c3.492.7,8.562.619,12.163,1.915-.316-.417-1.459-1.918-1.8-2.442,1.042-.316,6.269.245,7.6.781A13.881,13.881,0,0,1,696.713,443.095Z" transform="translate(-654.347 -403.684)" fill="#f8b778"/>
        <path id="Path_645" data-name="Path 645" d="M748.584,423.42c1.278,1.825,2.823,4.128,5.48,5.335,1.22.223,2.968.287,3.536-.371.57-2.109-.332-5.107-1.442-7.249-.128-.248-.248-.474-.364-.685A35.714,35.714,0,0,1,748.584,423.42Z" transform="translate(-714.987 -391.027)" fill="#f8b778"/>
      </g>
    </g>
    <g id="checked" transform="translate(163.533 156.2)">
      <circle id="Ellipse_38" data-name="Ellipse 38" cx="38.067" cy="38.067" r="38.067" transform="translate(0.467 -0.2)" fill="#1a6bbe"/>
      <g id="Group_13848" data-name="Group 13848" transform="translate(18.467 22.8)">
        <path id="Path_647" data-name="Path 647" d="M105.683,212.584a3.51,3.51,0,0,1,0,4.875l-2.719,2.719a3.51,3.51,0,0,1-4.875,0l-11.906-12a3.51,3.51,0,0,1,0-4.875l2.719-2.719a3.51,3.51,0,0,1,4.875,0Z" transform="translate(-85.2 -190.882)" fill="#fff"/>
        <path id="Path_648" data-name="Path 648" d="M186.008,126.184a3.51,3.51,0,0,1,4.875,0L193.6,128.9a3.51,3.51,0,0,1,0,4.875l-20.624,20.53a3.51,3.51,0,0,1-4.875,0l-2.719-2.719a3.51,3.51,0,0,1,0-4.875Z" transform="translate(-155.119 -125.2)" fill="#fff"/>
      </g>
    </g>
    <path id="Line_31" data-name="Line 31" d="M0,20a1,1,0,0,1-1-1v-.006a1,1,0,0,1,1-1,1,1,0,0,1,1,1V19A1,1,0,0,1,0,20Zm0-4.005a1,1,0,0,1-1-1v-.005a1,1,0,0,1,1-1,1,1,0,0,1,1,1v.005A1,1,0,0,1,0,15.995Zm0-4.005a1,1,0,0,1-1-1v-.006a1,1,0,0,1,1-1,1,1,0,0,1,1,1v.006A1,1,0,0,1,0,11.989ZM0,7.984a1,1,0,0,1-1-1V6.978a1,1,0,0,1,1-1,1,1,0,0,1,1,1v.005A1,1,0,0,1,0,7.984ZM0,3.978a1,1,0,0,1-1-1V2.973a1,1,0,0,1,1-1,1,1,0,0,1,1,1v.005A1,1,0,0,1,0,3.978Z" transform="translate(203.5 235.5)" fill="#1a6bbe"/>
  </g>
</svg>
