<svg xmlns="http://www.w3.org/2000/svg" width="55.362" height="31.397" viewBox="0 0 55.362 31.397"><defs><style>.a{opacity:0.502;}</style></defs><path class="a" d="M36.488,26.632H18.434a5.853,5.853,0,0,1-11.5,0H4.418A4.422,4.422,0,0,1,0,22.217V18.824a6.748,6.748,0,0,1,1.986-4.759l3.8-3.776L8.945,3.462A5.989,5.989,0,0,1,14.367,0H50.609a4.757,4.757,0,0,1,4.753,4.752V22.217a4.418,4.418,0,0,1-4.409,4.415H47.99a5.853,5.853,0,0,1-11.5,0Zm2.075-1.083a3.677,3.677,0,1,0,3.676-3.683A3.679,3.679,0,0,0,38.563,25.549Zm-29.555,0a3.675,3.675,0,1,0,3.674-3.683A3.677,3.677,0,0,0,9.008,25.549ZM47.99,24.464h2.963a2.237,2.237,0,0,0,2.231-2.238V4.752a2.577,2.577,0,0,0-2.575-2.575H14.367a3.81,3.81,0,0,0-3.445,2.2L7.684,11.366a1,1,0,0,1-.216.323L3.516,15.615a4.573,4.573,0,0,0-1.34,3.209v3.392a2.242,2.242,0,0,0,2.242,2.238H6.934a5.853,5.853,0,0,1,11.5,0H36.49a5.853,5.853,0,0,1,11.5.009ZM17.318,14.54a1.084,1.084,0,1,1,0-2.167H42.666a1.084,1.084,0,0,1,0,2.167Z"/></svg>