<svg xmlns="http://www.w3.org/2000/svg" width="20" height="21.176" viewBox="0 0 20 21.176"><defs><style>.a{fill:#fff;}</style></defs><path class="a" d="M708.179,87.176a3.822,3.822,0,0,1-3.821-3.815,3.76,3.76,0,0,1,.137-1l.065-.235-5.716-3.19-.166.186a3.772,3.772,0,0,1-2.852,1.281,3.815,3.815,0,1,1,0-7.63,3.757,3.757,0,0,1,2.849,1.276l.166.187,5.711-3.185-.065-.235a3.758,3.758,0,0,1-.133-1,3.821,3.821,0,1,1,3.821,3.815,3.765,3.765,0,0,1-2.848-1.277l-.166-.186-5.716,3.186.064.234a3.766,3.766,0,0,1,.133,1,3.821,3.821,0,0,1-.131.993l-.063.233L705.165,81l.166-.185a3.777,3.777,0,0,1,2.843-1.269,3.815,3.815,0,1,1,0,7.63Z" transform="translate(-692 -65.999)"/></svg>