<svg xmlns="http://www.w3.org/2000/svg" width="53.885" height="41.209" viewBox="0 0 53.885 41.209"><defs><style>.a{opacity:0.502;}</style></defs><path class="a" d="M34.151,34.949H19.735a7.206,7.206,0,0,1-14.287,0H2.725A2.729,2.729,0,0,1,0,32.232V25.971a6.321,6.321,0,0,1,6.313-6.294H9.325l4.629-9.231a2.694,2.694,0,0,1,2.428-1.5h9.664a2.729,2.729,0,0,1,2.725,2.717v7.155a.864.864,0,0,0,.863.861H30.5V7.189a2.728,2.728,0,0,1,2.725-2.717h1.76V2.717A2.728,2.728,0,0,1,37.706,0h9.867A2.728,2.728,0,0,1,50.3,2.717v8.191a2.719,2.719,0,0,1,1.794,2.542v6.4a2.719,2.719,0,0,1,1.794,2.542v9.838a2.729,2.729,0,0,1-2.725,2.717H48.437a7.206,7.206,0,0,1-14.287,0Zm1.8-.929a5.348,5.348,0,1,0,5.348-5.332A5.347,5.347,0,0,0,35.946,34.02Zm-28.7,0a5.348,5.348,0,1,0,5.348-5.332A5.347,5.347,0,0,0,7.243,34.02Zm41.194-.928H51.16a.864.864,0,0,0,.863-.861V26H49.367a2.728,2.728,0,0,1-2.725-2.717V21.533H29.634a2.729,2.729,0,0,1-2.725-2.717V11.661a.864.864,0,0,0-.863-.861H16.388a.854.854,0,0,0-.769.476l-4.638,9.249a1.807,1.807,0,0,1-1.629,1.008H8.141v2.649A2.729,2.729,0,0,1,5.416,26.9H1.862v5.332a.864.864,0,0,0,.863.861H5.448a7.206,7.206,0,0,1,14.287,0H34.151a7.206,7.206,0,0,1,14.287,0ZM1.961,25.043H5.416a.864.864,0,0,0,.863-.861V21.533A4.473,4.473,0,0,0,1.961,25.043ZM48.5,23.288a.864.864,0,0,0,.863.86h2.657V22.393a.864.864,0,0,0-.863-.86H48.5Zm-2.691-3.611H50.23V13.45a.864.864,0,0,0-.863-.861H45.813ZM32.358,7.189V19.677H43.951V7.189a.864.864,0,0,0-.863-.861H33.222A.864.864,0,0,0,32.358,7.189Zm4.485-4.472V4.472h6.245a2.728,2.728,0,0,1,2.725,2.717v3.543h2.623V2.717a.864.864,0,0,0-.863-.86H37.706A.864.864,0,0,0,36.843,2.717ZM15.837,21.533A1.823,1.823,0,0,1,14.2,18.9l2.443-4.872a2.693,2.693,0,0,1,2.428-1.5h4.283a1.83,1.83,0,0,1,1.828,1.823v5.367a1.83,1.83,0,0,1-1.828,1.823Zm2.473-6.68L15.89,19.68l7.431,0v-5.3H19.079A.854.854,0,0,0,18.31,14.853Z"/></svg>