<svg xmlns="http://www.w3.org/2000/svg" width="118" height="118" viewBox="0 0 118 118"><defs><style>.a{fill:rgba(255,255,255,0.53);stroke:#fff;stroke-width:4px;}.b{fill:#fff;}.c{stroke:none;}.d{fill:none;}</style></defs><g transform="translate(-129 -163)"><g class="a" transform="translate(129 163)"><circle class="c" cx="59" cy="59" r="59"/><circle class="d" cx="59" cy="59" r="57"/></g><g transform="translate(133 195)"><g transform="translate(40.559)"><g transform="translate(0)"><path class="b" d="M135.338,0a14.338,14.338,0,1,0,14.338,14.338A14.354,14.354,0,0,0,135.338,0Z" transform="translate(-121)"/></g></g><g transform="translate(31 31.862)"><path class="b" d="M72.736,306.181A20.44,20.44,0,0,0,58.083,300H51.71a20.44,20.44,0,0,0-14.653,6.181A20.9,20.9,0,0,0,31,320.923a1.593,1.593,0,0,0,1.593,1.593H77.2a1.593,1.593,0,0,0,1.593-1.593A20.9,20.9,0,0,0,72.736,306.181Z" transform="translate(-31 -300)"/></g></g></g></svg>