<svg xmlns="http://www.w3.org/2000/svg" width="58.315" height="33.606" viewBox="0 0 58.315 33.606"><defs><style>.a{fill:#fff;}</style></defs><path class="a" d="M41.207,27.72a5.917,5.917,0,1,1,5.915,5.886A5.91,5.91,0,0,1,41.207,27.72Zm1.88,0A4.038,4.038,0,1,0,47.122,23.7,4.032,4.032,0,0,0,43.087,27.72Zm-37.367,0a5.917,5.917,0,1,1,5.918,5.886A5.912,5.912,0,0,1,5.72,27.72Zm1.88,0A4.039,4.039,0,1,0,11.638,23.7,4.033,4.033,0,0,0,7.6,27.72Zm45.948-.481a6.516,6.516,0,0,0-13,0H18.169A6.526,6.526,0,0,0,6.155,24.157a6.44,6.44,0,0,0-1,3.081H3.113A3.106,3.106,0,0,1,0,24.143V16.349c0-1.713,1.275-2.5,3.113-3.1l7.679-2.638L15.24,3.1C16.729.761,17.744,0,22.207,0h33a3.105,3.105,0,0,1,3.113,3.1V24.143a3.1,3.1,0,0,1-3.113,3.1Zm1.549-1.83h.1a1.271,1.271,0,0,0,1.273-1.266V3.1A1.271,1.271,0,0,0,55.2,1.83h-33a9.507,9.507,0,0,0-3.8.489,4.184,4.184,0,0,0-1.6,1.734l-4.432,7.49a1.839,1.839,0,0,1-.985.8L3.713,14.981l-.025.008a4.781,4.781,0,0,0-1.6.762.674.674,0,0,0-.251.6v1.315H4.8A1.038,1.038,0,0,1,5.839,18.7v2.33A1.041,1.041,0,0,1,4.8,22.065H1.84v2.077a1.271,1.271,0,0,0,1.273,1.266h.493a8.366,8.366,0,0,1,16.109,0h19.28a8.364,8.364,0,0,1,16.1,0ZM14.8,11.455a.382.382,0,0,1-.383-.38l3.733-7.5a.742.742,0,0,1,.679-.38H28.988a.382.382,0,0,1,.382.38v7.5a.381.381,0,0,1-.382.38Z"/></svg>