<svg id="visa" xmlns="http://www.w3.org/2000/svg" width="64.514" height="19.854" viewBox="0 0 64.514 19.854">
  <path id="Path_568" data-name="Path 568" d="M42.758,199.8l-1.772-8.5a2.114,2.114,0,0,0-2.286-1.567H30.574l-.072.388C36.83,191.655,41.017,195.355,42.758,199.8Z" transform="translate(-30.502 -189.574)" fill="#b0b0b0"/>
  <g id="Group_13740" data-name="Group 13740" transform="translate(5.209 0)">
    <path id="Path_569" data-name="Path 569" d="M192.028,190.892h-5.25L183.5,210.133h5.241Z" transform="translate(-166.154 -190.563)" fill="#b0b0b0"/>
    <path id="Path_570" data-name="Path 570" d="M76.082,210.19l8.257-19.209H78.783L73.647,204.1l-.548-1.982a20.53,20.53,0,0,0-7.262-7.975l4.7,16.048Z" transform="translate(-65.836 -190.639)" fill="#b0b0b0"/>
    <path id="Path_571" data-name="Path 571" d="M256.329,201.94c.019-2.184-1.383-3.851-4.406-5.227-1.837-.889-2.957-1.482-2.943-2.384,0-.8.948-1.653,3-1.653a9.682,9.682,0,0,1,3.925.738l.474.217.711-4.168a13.6,13.6,0,0,0-4.7-.8c-5.183,0-8.831,2.608-8.864,6.348-.033,2.766,2.608,4.307,4.6,5.229,2.041.94,2.726,1.541,2.713,2.384-.013,1.289-1.627,1.877-3.135,1.877a11,11,0,0,1-4.94-1.009l-.671-.308-.737,4.312a16.546,16.546,0,0,0,5.84,1.022C252.707,208.513,256.29,205.938,256.329,201.94Z" transform="translate(-215.482 -188.659)" fill="#b0b0b0"/>
    <path id="Path_572" data-name="Path 572" d="M347,207.364l6.717.007c.158.67.639,2.884.639,2.884h4.866l-4.247-19.228h-4.05a2.609,2.609,0,0,0-2.746,1.593l-7.79,17.635H345.9S346.792,207.885,347,207.364Zm3.6-9.318c-.026.053.435-1.113.7-1.837l.355,1.659s1,4.6,1.212,5.558H348.5C348.939,202.32,350.591,198.046,350.591,198.046Z" transform="translate(-299.913 -190.678)" fill="#b0b0b0"/>
  </g>
</svg>
