<svg id="Group_13729" data-name="Group 13729" xmlns="http://www.w3.org/2000/svg" width="89.76" height="22.043" viewBox="0 0 89.76 22.043">
  <g id="Group_13727" data-name="Group 13727" transform="translate(0 1.041)">
    <path id="Path_489" data-name="Path 489" d="M253.962,76.671a.788.788,0,0,1-.767-.807V66.8l-2.05.316V75.8a2.239,2.239,0,0,0,2.188,2.286h1.14V76.671Z" transform="translate(-199.22 -64.803)" fill="#b0b0b0"/>
    <path id="Path_490" data-name="Path 490" d="M176.666,84.888h2.051v-8.63l-2.051.316Z" transform="translate(-145.652 -71.608)" fill="#b0b0b0"/>
    <path id="Path_491" data-name="Path 491" d="M188.6,76.886V84h2.051V78.359l-.012-.666c0-1.053,2.365-.851,2.365-.851l.74-1.614A4.831,4.831,0,0,0,188.6,76.886Z" transform="translate(-154.235 -70.723)" fill="#b0b0b0"/>
    <path id="Path_492" data-name="Path 492" d="M211.285,75.864v-5h1.233V69.3h-1.233V66.8l-2.051.316V75.8a2.239,2.239,0,0,0,2.188,2.286h1.141V76.671h-.511A.788.788,0,0,1,211.285,75.864Z" transform="translate(-169.076 -64.803)" fill="#b0b0b0"/>
    <path id="Path_493" data-name="Path 493" d="M177.067,64.1a1.269,1.269,0,1,0,1.269,1.269A1.269,1.269,0,0,0,177.067,64.1Z" transform="translate(-145.028 -62.864)" fill="#b0b0b0"/>
    <path id="Path_494" data-name="Path 494" d="M226.264,82.571C224.9,82.05,225,80.016,225,80.016h4.925c0-2.553-.614-4.759-3.093-4.759s-3.95,1.82-3.95,4.372,1.572,4.539,4.051,4.539a5.791,5.791,0,0,0,3.072-.88l-.7-1.221A4.066,4.066,0,0,1,226.264,82.571Zm.286-5.749c1.177,0,1.412,1.663,1.412,1.663h-2.824S225.373,76.822,226.549,76.822Z" transform="translate(-178.895 -70.888)" fill="#b0b0b0"/>
    <path id="Path_495" data-name="Path 495" d="M151.678,75.479a11.358,11.358,0,0,0-1.74.18,5.153,5.153,0,0,0-1.644.722l.652,1.341a3.364,3.364,0,0,1,2.152-.79,1.467,1.467,0,0,1,1.5,1.753c-3.406-.7-5.079,1.051-5.031,2.852a2.456,2.456,0,0,0,1.064,2.264c2.981,1.972,5.875-.9,5.875-.9V78.145A2.782,2.782,0,0,0,151.678,75.479Zm.876,7.134a2.8,2.8,0,0,1-2.207.112,1.426,1.426,0,0,1,.05-2.365,3.913,3.913,0,0,1,2.157-.168Z" transform="translate(-124.722 -71.048)" fill="#b0b0b0"/>
    <path id="Path_496" data-name="Path 496" d="M29.584,24.622c-5.889,5.334-3.765,7.109-2.357,7.793s3.286-.255,5.633-2.09,7.781-5.377,9.061-3.613,1.309,5.263-4.182,9.872-6.629,1.913-3.919-.2,2.212-3.386.932-3.57c-1.343-.194-2.5.128-3.7,2.32,0,0-1.829,3.531.512,4.437,1.63.631,6.444-1.311,9.979-4.872,2.6-2.623,4.51-5.76,3.713-9.943C44.212,19.272,35.473,19.287,29.584,24.622Z" transform="translate(-25.668 -20.632)" fill="#b0b0b0"/>
  </g>
  <g id="Group_13728" data-name="Group 13728" transform="translate(59.62)">
    <path id="Path_497" data-name="Path 497" d="M251.351,354.185a1.348,1.348,0,0,0,1.4,1.4.661.661,0,0,0,.195-.018,1.318,1.318,0,0,0,1.151-1.593,1.147,1.147,0,0,0-1.08-1.08c-.088,0-.194-.018-.283-.018a1.333,1.333,0,0,0-1.381,1.31ZM270.3,368.756a6.2,6.2,0,0,0,.974-1.186,5.829,5.829,0,0,1-.673,3.258,2.583,2.583,0,0,1-.3.46c-1.062,1.416-3.346,1.983-5.347,1.965a10.124,10.124,0,0,1-2.974-.425,5.762,5.762,0,0,1-1.027-.46c-2.319-1.062-2.124-4.763-2.124-4.763s1.31,2.992,5.86,3.258a7.054,7.054,0,0,0,5.612-2.107Zm0-4.886a1.891,1.891,0,0,0,.372-.035c.478-.071,1.965-.673,1.841-2.957-.106-2.231-1.257-2.85-2.213-2.868h-.053a1.765,1.765,0,0,0-.921.283,2.967,2.967,0,0,0-1.222,2.727c.018,2.089,1.239,2.726,2.036,2.85Zm0-7.772a4.564,4.564,0,0,1,4.338,3.93,5.8,5.8,0,0,1-1.434,4.656,4.085,4.085,0,0,1-2.9,1.08h-.088a4.239,4.239,0,0,1-3.1-1.346,5.533,5.533,0,0,1-1.239-3.665,4.937,4.937,0,0,1,.708-2.5,4.013,4.013,0,0,1,3.647-2.16Zm0-4.869a1.519,1.519,0,0,0,.283-.018,4.292,4.292,0,0,1,3.9,2.248V355s-.9-1.895-3.93-2.054H270.3a4.372,4.372,0,0,0-3.93,1.894v-1.275a4.156,4.156,0,0,1,3.93-2.337Zm-23.636,5.205V354.2a2.1,2.1,0,0,0-2.125,1.558v7.295a3.828,3.828,0,0,0,.567,1.469,2.7,2.7,0,0,0,2.319,1.2c2.3.071,2.691-1.062,2.479-2.319,0,0-2.55,1.416-3.169-.708v-4.355h2.3s1.045-.088.85-1.912Zm4.957-.053v6.958s.195,2.248,1.859,2.337,2.2-.691,2.231-1.877a1.672,1.672,0,0,1-1.363-.088,1.168,1.168,0,0,1-.531-.938v-5.205s-.354-1.275-2.2-1.186Zm12.783,2.479a.2.2,0,0,0,.283-.142,2.1,2.1,0,0,0-1.717-2.426c-2.266-.6-4.94.23-5.86,2.142a7.277,7.277,0,0,0-.708,2.585,4.739,4.739,0,0,0,2.443,4.621,6.269,6.269,0,0,0,4.32.319s1.594-.655,1.611-1.841c.036-1.2.177-2.886-.85-2.9a11.946,11.946,0,0,0-1.363,0,15.4,15.4,0,0,1,.159,2.213c-.089.265-.655.974-2.355.443-1.682-.513-1.912-2.656-1.5-4.019s2.124-1.912,3.2-1.824a6.681,6.681,0,0,1,2.337.832Z" transform="translate(-244.535 -351.21)" fill="#b0b0b0" fill-rule="evenodd"/>
  </g>
</svg>
