<svg xmlns="http://www.w3.org/2000/svg" width="191.129" height="183.041" viewBox="0 0 191.129 183.041">
  <g id="Group_13911" data-name="Group 13911" transform="translate(-124.147 -74.9)">
    <g id="Tripod" transform="translate(123.852 74.9)">
      <g id="Group_13857" data-name="Group 13857" transform="translate(0.295 177.956)">
        <ellipse id="Ellipse_69" data-name="Ellipse 69" cx="12.543" cy="1.356" rx="12.543" ry="1.356" fill="#edf1ed"/>
      </g>
      <g id="Group_13858" data-name="Group 13858" transform="translate(57.586 177.956)">
        <ellipse id="Ellipse_70" data-name="Ellipse 70" cx="12.543" cy="1.356" rx="12.543" ry="1.356" fill="#11192b"/>
      </g>
      <g id="Group_13859" data-name="Group 13859" transform="translate(91.147 177.956)">
        <ellipse id="Ellipse_71" data-name="Ellipse 71" cx="12.543" cy="1.356" rx="12.543" ry="1.356" fill="#11192b"/>
      </g>
      <g id="Group_13860" data-name="Group 13860" transform="translate(82.917 45.601)">
        <rect id="Rectangle_203" data-name="Rectangle 203" width="11.373" height="34.751" rx="5.686" transform="matrix(0.702, -0.712, 0.712, 0.702, 0, 8.1)" fill="#11192b"/>
      </g>
      <g id="Group_13861" data-name="Group 13861" transform="translate(73.687 36.99)">
        <rect id="Rectangle_204" data-name="Rectangle 204" width="5.773" height="21.165" rx="2.886" transform="translate(0 4.111) rotate(-45.414)" fill="#252e45"/>
      </g>
      <g id="Group_13867" data-name="Group 13867" transform="translate(52.501 0)">
        <g id="Group_13862" data-name="Group 13862" transform="translate(0.718)">
          <rect id="Rectangle_205" data-name="Rectangle 205" width="6.461" height="11.486" fill="#11192b"/>
        </g>
        <g id="Group_13863" data-name="Group 13863" transform="translate(0 0.439)">
          <path id="Path_668" data-name="Path 668" d="M405.783,85l-8.136,1.476v-.957l8.136-1.476Z" transform="translate(-397.647 -84.039)" fill="#252e45"/>
        </g>
        <g id="Group_13864" data-name="Group 13864" transform="translate(0 2.114)">
          <path id="Path_669" data-name="Path 669" d="M405.783,90.44l-8.136,1.476v-.957l8.136-1.476Z" transform="translate(-397.647 -89.483)" fill="#252e45"/>
        </g>
        <g id="Group_13865" data-name="Group 13865" transform="translate(0 3.789)">
          <path id="Path_670" data-name="Path 670" d="M405.783,95.884l-8.136,1.476V96.4l8.136-1.476Z" transform="translate(-397.647 -94.927)" fill="#252e45"/>
        </g>
        <g id="Group_13866" data-name="Group 13866" transform="translate(0 5.464)">
          <path id="Path_671" data-name="Path 671" d="M405.783,101.328l-8.136,1.476v-.957l8.136-1.476Z" transform="translate(-397.647 -100.371)" fill="#252e45"/>
        </g>
      </g>
      <g id="Group_13868" data-name="Group 13868" transform="translate(48.433 9.811)">
        <rect id="Rectangle_206" data-name="Rectangle 206" width="15.933" height="25.086" fill="#11192b"/>
      </g>
      <g id="Group_13869" data-name="Group 13869" transform="translate(44.016 31.621)">
        <path id="Path_672" data-name="Path 672" d="M370.205,199.158,392.2,330.626a3.217,3.217,0,0,0,4.324,2.423,4.472,4.472,0,0,0,3.174-4.334l-8.268-134.965c-.35-5.708-5.409-9.35-11.3-8.137s-10.385,6.826-10.035,12.534A10.1,10.1,0,0,0,370.205,199.158Z" transform="translate(-370.072 -185.381)" fill="#11192b"/>
      </g>
      <g id="Group_13870" data-name="Group 13870" transform="translate(7.41 31.621)">
        <path id="Path_673" data-name="Path 673" d="M300.291,199.158l-41.9,131.469a3.734,3.734,0,0,1-7.209-1.911L279.889,193.75a10.566,10.566,0,1,1,20.67,4.4C300.487,198.487,300.394,198.833,300.291,199.158Z" transform="translate(-251.101 -185.38)" fill="#fff"/>
      </g>
      <g id="Group_13871" data-name="Group 13871" transform="translate(9.105 31.621)">
        <path id="Path_674" data-name="Path 674" d="M305.8,199.158,263.9,330.626a3.733,3.733,0,0,1-7.209-1.911L285.4,193.75a10.566,10.566,0,1,1,20.67,4.4C306,198.487,305.9,198.833,305.8,199.158Z" transform="translate(-256.61 -185.38)" fill="#252e45"/>
      </g>
      <g id="Group_13872" data-name="Group 13872" transform="translate(55.548 31.621)">
        <path id="Path_675" data-name="Path 675" d="M408.051,199.158l41.9,131.469a3.734,3.734,0,0,0,7.209-1.911L428.453,193.75a10.566,10.566,0,1,0-20.67,4.4C407.855,198.487,407.948,198.833,408.051,199.158Z" transform="translate(-407.549 -185.38)" fill="#252e45"/>
      </g>
      <g id="Group_13873" data-name="Group 13873" transform="translate(24.364 29.134)">
        <rect id="Rectangle_207" data-name="Rectangle 207" width="62.037" height="15.594" rx="7.797" fill="#fff"/>
      </g>
      <g id="Group_13874" data-name="Group 13874" transform="translate(25.042 28.456)">
        <rect id="Rectangle_208" data-name="Rectangle 208" width="62.037" height="15.594" rx="7.797" fill="#fff"/>
      </g>
      <g id="Group_13875" data-name="Group 13875" transform="translate(26.059 29.134)">
        <rect id="Rectangle_209" data-name="Rectangle 209" width="62.037" height="15.594" rx="7.797" fill="#252e45"/>
      </g>
      <g id="Group_13876" data-name="Group 13876" transform="translate(12.524 43.619)">
        <rect id="Rectangle_210" data-name="Rectangle 210" width="136.48" height="0.678" transform="translate(0 132.215) rotate(-75.638)" fill="#11192b"/>
      </g>
      <g id="Group_13877" data-name="Group 13877" transform="translate(68.783 43.291)">
        <rect id="Rectangle_211" data-name="Rectangle 211" width="0.678" height="136.567" transform="translate(0 0.163) rotate(-13.933)" fill="#11192b"/>
      </g>
      <g id="Group_13878" data-name="Group 13878" transform="translate(26.567 40.491)">
        <path id="Rectangle_212" data-name="Rectangle 212" d="M1.483,0H59.537A1.483,1.483,0,0,1,61.02,1.483v0a3.263,3.263,0,0,1-3.263,3.263H3.263A3.263,3.263,0,0,1,0,1.483v0A1.483,1.483,0,0,1,1.483,0Z" fill="#11192b"/>
      </g>
      <g id="Group_13879" data-name="Group 13879" transform="translate(16.736 97.782)">
        <rect id="Rectangle_213" data-name="Rectangle 213" width="29.493" height="9.831" rx="4.916" fill="#fff"/>
      </g>
      <g id="Group_13880" data-name="Group 13880" transform="translate(17.584 98.629)">
        <rect id="Rectangle_214" data-name="Rectangle 214" width="29.493" height="9.831" rx="4.916" fill="#11192b"/>
      </g>
      <g id="Group_13881" data-name="Group 13881" transform="translate(68.095 98.629)">
        <rect id="Rectangle_215" data-name="Rectangle 215" width="29.493" height="9.831" rx="4.916" fill="#11192b"/>
      </g>
      <g id="Group_13882" data-name="Group 13882" transform="translate(48.433 116.257)">
        <rect id="Rectangle_216" data-name="Rectangle 216" width="29.493" height="9.831" rx="4.916" fill="#11192b"/>
      </g>
      <g id="Group_13883" data-name="Group 13883" transform="translate(7.414 155.921)">
        <rect id="Rectangle_217" data-name="Rectangle 217" width="19.323" height="6.441" rx="3.221" fill="#fff"/>
      </g>
      <g id="Group_13884" data-name="Group 13884" transform="translate(8.092 156.26)">
        <rect id="Rectangle_218" data-name="Rectangle 218" width="19.323" height="6.441" rx="3.221" fill="#11192b"/>
      </g>
      <g id="Group_13885" data-name="Group 13885" transform="translate(88.096 156.26)">
        <rect id="Rectangle_219" data-name="Rectangle 219" width="19.323" height="6.441" rx="3.221" fill="#11192b"/>
      </g>
      <g id="Group_13886" data-name="Group 13886" transform="translate(58.603 159.311)">
        <rect id="Rectangle_220" data-name="Rectangle 220" width="19.323" height="6.441" rx="3.221" fill="#11192b"/>
      </g>
      <g id="Group_13887" data-name="Group 13887" transform="translate(30.191 7.777)">
        <rect id="Rectangle_221" data-name="Rectangle 221" width="52.416" height="11.526" rx="5.763" fill="#fff"/>
      </g>
      <g id="Group_13888" data-name="Group 13888" transform="translate(31.208 8.455)">
        <rect id="Rectangle_222" data-name="Rectangle 222" width="52.416" height="11.526" rx="5.763" fill="#252e45"/>
      </g>
      <g id="Group_13891" data-name="Group 13891" transform="translate(69.892 40.582)">
        <g id="Group_13889" data-name="Group 13889">
          <ellipse id="Ellipse_72" data-name="Ellipse 72" cx="3.955" cy="6.765" rx="3.955" ry="6.765" transform="translate(0 2.687) rotate(-19.858)" fill="#11192b"/>
        </g>
        <g id="Group_13890" data-name="Group 13890" transform="translate(2.389)">
          <ellipse id="Ellipse_73" data-name="Ellipse 73" cx="3.955" cy="6.765" rx="3.955" ry="6.765" transform="translate(0 2.687) rotate(-19.858)" fill="#3d4969"/>
        </g>
      </g>
      <g id="Group_13895" data-name="Group 13895" transform="translate(31.685 41.051)">
        <g id="Group_13892" data-name="Group 13892" transform="translate(2.921 0)">
          <ellipse id="Ellipse_74" data-name="Ellipse 74" cx="6.353" cy="3.714" rx="6.353" ry="3.714" transform="translate(0 11.95) rotate(-70.142)" fill="#11192b"/>
        </g>
        <g id="Group_13893" data-name="Group 13893">
          <ellipse id="Ellipse_75" data-name="Ellipse 75" cx="6.353" cy="3.714" rx="6.353" ry="3.714" transform="translate(0 11.95) rotate(-70.142)" fill="#fff"/>
        </g>
        <g id="Group_13894" data-name="Group 13894" transform="translate(0.678 0)">
          <ellipse id="Ellipse_76" data-name="Ellipse 76" cx="6.353" cy="3.714" rx="6.353" ry="3.714" transform="translate(0 11.95) rotate(-70.142)" fill="#3d4969"/>
        </g>
      </g>
      <g id="Group_13896" data-name="Group 13896" transform="translate(29.788 36.592)">
        <rect id="Rectangle_223" data-name="Rectangle 223" width="55.596" height="0.678" fill="#11192b"/>
      </g>
      <g id="Group_13897" data-name="Group 13897" transform="translate(36.229 74.899)">
        <circle id="Ellipse_77" data-name="Ellipse 77" cx="2.034" cy="2.034" r="2.034" fill="#11192b"/>
      </g>
      <g id="Group_13898" data-name="Group 13898" transform="translate(75.214 75.238)">
        <circle id="Ellipse_78" data-name="Ellipse 78" cx="2.034" cy="2.034" r="2.034" fill="#11192b"/>
      </g>
      <g id="Group_13899" data-name="Group 13899" transform="translate(20.974 133.886)">
        <circle id="Ellipse_79" data-name="Ellipse 79" cx="2.034" cy="2.034" r="2.034" fill="#11192b"/>
      </g>
      <g id="Group_13900" data-name="Group 13900" transform="translate(91.147 137.954)">
        <circle id="Ellipse_80" data-name="Ellipse 80" cx="2.034" cy="2.034" r="2.034" fill="#11192b"/>
      </g>
      <g id="Group_13901" data-name="Group 13901" transform="translate(50.806 31.168)">
        <rect id="Rectangle_224" data-name="Rectangle 224" width="24.408" height="2.034" rx="1.017" fill="#11192b"/>
      </g>
      <g id="Group_13902" data-name="Group 13902" transform="translate(76.57 31.168)">
        <rect id="Rectangle_225" data-name="Rectangle 225" width="5.763" height="2.034" rx="1.017" fill="#11192b"/>
      </g>
      <g id="Group_13903" data-name="Group 13903" transform="translate(33.678 16.139)">
        <rect id="Rectangle_226" data-name="Rectangle 226" width="46.927" height="0.549" fill="#11192b"/>
      </g>
    </g>
    <g id="Camera" transform="translate(160.911 157.596)">
      <ellipse id="Ellipse_82" data-name="Ellipse 82" cx="78.411" cy="3.56" rx="78.411" ry="3.56" transform="translate(-2.457 93.225)" fill="#edf1ed"/>
      <g id="Group_13910" data-name="Group 13910" transform="translate(0 0)">
        <path id="Path_677" data-name="Path 677" d="M721.3,356.885H702.69a2.88,2.88,0,0,0-2.88,2.88v6.863h24.369v-6.863A2.88,2.88,0,0,0,721.3,356.885Z" transform="translate(-591.395 -355.19)" fill="#fff"/>
        <g id="Group_13909" data-name="Group 13909" transform="translate(107.398 2.26)">
          <path id="Rectangle_230" data-name="Rectangle 230" d="M9.085,0h6.2a9.085,9.085,0,0,1,9.085,9.085v.092a0,0,0,0,1,0,0H0a0,0,0,0,1,0,0V9.085A9.085,9.085,0,0,1,9.085,0Z" fill="#1f273b"/>
          <rect id="Rectangle_231" data-name="Rectangle 231" width="1.899" height="7.279" rx="0.949" transform="translate(1.899 1.582)" fill="#11192b"/>
          <rect id="Rectangle_232" data-name="Rectangle 232" width="1.899" height="7.279" rx="0.949" transform="translate(5.697 1.582)" fill="#11192b"/>
          <rect id="Rectangle_233" data-name="Rectangle 233" width="1.899" height="7.279" rx="0.949" transform="translate(9.494 1.582)" fill="#11192b"/>
          <rect id="Rectangle_234" data-name="Rectangle 234" width="1.899" height="7.279" rx="0.949" transform="translate(13.292 1.582)" fill="#11192b"/>
          <rect id="Rectangle_235" data-name="Rectangle 235" width="1.899" height="7.279" rx="0.949" transform="translate(17.09 1.582)" fill="#11192b"/>
          <rect id="Rectangle_236" data-name="Rectangle 236" width="1.899" height="7.279" rx="0.949" transform="translate(20.887 1.582)" fill="#11192b"/>
        </g>
        <rect id="Rectangle_237" data-name="Rectangle 237" width="139.25" height="84.816" rx="17" transform="translate(9.607 9.539)" fill="#1a6bbe"/>
        <path id="Path_678" data-name="Path 678" d="M494.876,469.736l-18.06-29.314a30.356,30.356,0,0,0-42.878-9.377l-.959.639a31.9,31.9,0,0,0-9.365,42.822l4.117,6.682a5.69,5.69,0,0,1-4.53,8.666h0a10.28,10.28,0,0,1-10.614-8.086L403.052,437.8l-24.369,1.25v41.791A16.457,16.457,0,0,0,395.14,497.3H501.476c.261,0,.521-.008.779-.02.1,0,.191-.012.287-.018.158-.01.315-.021.472-.036.122-.011.243-.025.364-.039s.246-.03.368-.047c.141-.019.281-.04.421-.063l.264-.047a16.32,16.32,0,0,0,2.451-.644h0a16.46,16.46,0,0,0,11.05-15.543v-8.91l-5.722,2.808A13.418,13.418,0,0,1,494.876,469.736Z" transform="translate(-369.076 -402.946)" fill="#1763b1"/>
        <circle id="Ellipse_83" data-name="Ellipse 83" cx="32.281" cy="32.281" r="32.281" transform="translate(46.635 24.097)" fill="#1f273b"/>
        <circle id="Ellipse_84" data-name="Ellipse 84" cx="25.951" cy="25.951" r="25.951" transform="translate(52.964 30.427)" fill="#fff"/>
        <circle id="Ellipse_85" data-name="Ellipse 85" cx="23.736" cy="23.736" r="23.736" transform="translate(55.179 32.642)" fill="#252e45"/>
        <circle id="Ellipse_86" data-name="Ellipse 86" cx="13.292" cy="13.292" r="13.292" transform="translate(65.623 43.086)" fill="#1f273b"/>
        <circle id="Ellipse_87" data-name="Ellipse 87" cx="6.646" cy="6.646" r="6.646" transform="translate(72.269 49.732)" fill="#3d4969"/>
        <circle id="Ellipse_88" data-name="Ellipse 88" cx="4.747" cy="4.747" r="4.747" transform="translate(74.168 51.631)" fill="#252e45"/>
        <path id="Path_679" data-name="Path 679" d="M563.347,496.7a3.143,3.143,0,0,1-3.133-3.589,3.8,3.8,0,1,0,5.032,3.589,3.835,3.835,0,0,0-.052-.6A3.147,3.147,0,0,1,563.347,496.7Z" transform="translate(-492.658 -455.335)" fill="#fff" opacity="0.5"/>
        <circle id="Ellipse_89" data-name="Ellipse 89" cx="1.582" cy="1.582" r="1.582" transform="translate(68.155 50.048)" fill="#fff"/>
        <path id="Path_680" data-name="Path 680" d="M618.079,561.879l1.346-.43a.37.37,0,0,0,0-.7l-1.346-.429a.37.37,0,0,1-.24-.24l-.43-1.346a.37.37,0,0,0-.7,0l-.429,1.346a.371.371,0,0,1-.24.24l-1.346.429a.37.37,0,0,0,0,.7l1.346.43a.37.37,0,0,1,.24.24l.429,1.346a.37.37,0,0,0,.7,0l.43-1.346A.37.37,0,0,1,618.079,561.879Z" transform="translate(-532.287 -494.751)" fill="#fff"/>
        <path id="Path_681" data-name="Path 681" d="M654.328,472.01l3.715-1.185a1.021,1.021,0,0,0,0-1.946l-3.715-1.186a1.02,1.02,0,0,1-.662-.662l-1.185-3.715a1.021,1.021,0,0,0-1.946,0l-1.186,3.715a1.02,1.02,0,0,1-.662.662l-3.715,1.186a1.021,1.021,0,0,0,0,1.946l3.715,1.185a1.021,1.021,0,0,1,.662.662l1.186,3.715a1.021,1.021,0,0,0,1.946,0l1.185-3.715A1.021,1.021,0,0,1,654.328,472.01Z" transform="translate(-552.938 -428.381)" fill="#fff"/>
        <path id="Rectangle_238" data-name="Rectangle 238" d="M8.429,0H11.48a4.452,4.452,0,0,1,4.452,4.452v6.67a0,0,0,0,1,0,0H0a0,0,0,0,1,0,0V8.429A8.429,8.429,0,0,1,8.429,0Z" transform="translate(31.715)" fill="#fff"/>
        <path id="Path_682" data-name="Path 682" d="M633.412,574.056l.551-.176a.151.151,0,0,0,0-.289l-.551-.176a.153.153,0,0,1-.1-.1l-.176-.551a.151.151,0,0,0-.289,0l-.176.551a.152.152,0,0,1-.1.1l-.551.176a.151.151,0,0,0,0,.289l.551.176a.15.15,0,0,1,.1.1l.176.551a.151.151,0,0,0,.289,0l.176-.551A.152.152,0,0,1,633.412,574.056Z" transform="translate(-544.393 -504.573)" fill="#fff"/>
        <path id="Path_683" data-name="Path 683" d="M637.895,561.1l.308-.1a.085.085,0,0,0,0-.161l-.308-.1a.084.084,0,0,1-.055-.055l-.1-.308a.085.085,0,0,0-.161,0l-.1.308a.085.085,0,0,1-.055.055l-.308.1a.085.085,0,0,0,0,.161l.308.1a.085.085,0,0,1,.055.055l.1.308a.085.085,0,0,0,.161,0l.1-.308A.084.084,0,0,1,637.895,561.1Z" transform="translate(-547.953 -496.028)" fill="#fff"/>
        <path id="Rectangle_239" data-name="Rectangle 239" d="M18.344,0h1.011A19.572,19.572,0,0,1,38.927,19.572V66.593a9.677,9.677,0,0,1-9.677,9.677h0A29.249,29.249,0,0,1,0,47.022V18.344A18.344,18.344,0,0,1,18.344,0Z" transform="translate(0 18.989)" fill="#1a6bbe"/>
        <path id="Rectangle_240" data-name="Rectangle 240" d="M18.344,0h1.011A19.572,19.572,0,0,1,38.927,19.572V66.593a9.677,9.677,0,0,1-9.677,9.677h0A29.249,29.249,0,0,1,0,47.022V18.344A18.344,18.344,0,0,1,18.344,0Z" transform="translate(1.695 19.667)" fill="#1f273b"/>
        <path id="Rectangle_241" data-name="Rectangle 241" d="M0,0H6.89a6.086,6.086,0,0,1,6.086,6.086v4.358a0,0,0,0,1,0,0H0a0,0,0,0,1,0,0V0A0,0,0,0,1,0,0Z" transform="translate(34.925 0.678)" fill="#1f273b"/>
        <path id="Rectangle_242" data-name="Rectangle 242" d="M7.371,0h5.6a0,0,0,0,1,0,0V10.444a0,0,0,0,1,0,0H0a0,0,0,0,1,0,0V7.371A7.371,7.371,0,0,1,7.371,0Z" transform="translate(32.393 0.678)" fill="#252e45"/>
        <rect id="Rectangle_243" data-name="Rectangle 243" width="2.848" height="9.178" rx="1.424" transform="translate(33.976 1.311)" fill="#3d4969"/>
        <rect id="Rectangle_244" data-name="Rectangle 244" width="6.962" height="59.814" rx="3.481" transform="translate(25.431 28.211)" fill="#252e45"/>
        <circle id="Ellipse_90" data-name="Ellipse 90" cx="4.114" cy="4.114" r="4.114" transform="translate(107.082 82.012)" fill="#fff"/>
        <circle id="Ellipse_91" data-name="Ellipse 91" cx="4.114" cy="4.114" r="4.114" transform="translate(105.183 80.114)" fill="#252e45"/>
        <rect id="Rectangle_245" data-name="Rectangle 245" width="14.558" height="6.013" rx="3.007" transform="translate(123.222 22.198)" fill="#252e45"/>
        <rect id="Rectangle_246" data-name="Rectangle 246" width="18.356" height="1.899" rx="0.949" transform="translate(30.811 10.489)" fill="#1f273b"/>
      </g>
    </g>
  </g>
</svg>
