<svg xmlns="http://www.w3.org/2000/svg" width="45.964" height="45.964" viewBox="0 0 45.964 45.964">
  <g id="graph_1_" data-name="graph (1)" transform="translate(0)">
    <path id="Path_353" data-name="Path 353" d="M282.714,21.6H293.02A23,23,0,0,0,271.422,0V10.306A12.752,12.752,0,0,1,282.714,21.6Zm0,0" transform="translate(-247.056 0)" fill="#fff"/>
    <path id="Path_354" data-name="Path 354" d="M23,35.691a12.729,12.729,0,0,1-1.364-25.384V0a23,23,0,0,0-14.9,39.227,23,23,0,0,0,39.227-14.9H35.658A12.747,12.747,0,0,1,23,35.691Zm0,0" fill="#fff"/>
    <path id="Path_355" data-name="Path 355" d="M164.828,154.368a10,10,0,1,0-10,10,10.013,10.013,0,0,0,10-10Zm-8.638,5.21v.74a1.364,1.364,0,0,1-2.728,0v-.457h-.7a1.364,1.364,0,1,1,0-2.727h2.065a.7.7,0,0,0,0-1.4,3.428,3.428,0,0,1-1.364-6.573v-.74a1.364,1.364,0,0,1,2.728,0v.457h.7a1.364,1.364,0,0,1,0,2.728h-2.065a.7.7,0,1,0,0,1.4,3.428,3.428,0,0,1,1.364,6.574Zm0,0" transform="translate(-131.823 -131.407)" fill="#fff"/>
  </g>
</svg>
