<svg xmlns="http://www.w3.org/2000/svg" width="19.114" height="21.176" viewBox="0 0 19.114 21.176"><defs><style>.a{fill:#fff;}</style></defs><g transform="translate(-24.927)"><path class="a" d="M76.228,101.522c.333.482.233.08.233,9.678a1.045,1.045,0,0,0,1.671.837c2.951-2.225,3.541-2.418,3.541-3.458,0-6.994-.082-6.6.233-7.056L86.7,95H71.436Z" transform="translate(-44.585 -91.07)"/><path class="a" d="M43.923.532A.986.986,0,0,0,43.047,0H25.917a.989.989,0,0,0-.81,1.555c0,.006-.052-.07.832,1.133H43.025c.753-1.025,1.257-1.468.9-2.157Z"/></g></svg>