<svg xmlns="http://www.w3.org/2000/svg" xmlns:xlink="http://www.w3.org/1999/xlink" width="116.503" height="121.122" viewBox="0 0 116.503 121.122"><defs><style>.a{fill:#fff;opacity:0.9;}.b{font-size:8px;font-family:VarelaRound, Varela Round;}.c{fill:none;stroke:#000;stroke-linecap:round;stroke-width:2.5px;}.d{filter:url(#a);}</style><filter id="a" x="0" y="0" width="116.503" height="121.122" filterUnits="userSpaceOnUse"><feOffset input="SourceAlpha"/><feGaussianBlur stdDeviation="10" result="b"/><feFlood flood-opacity="0.22"/><feComposite operator="in" in2="b"/><feComposite in="SourceGraphic"/></filter></defs><g transform="translate(-129 -700)"><g transform="translate(48 18)"><g transform="translate(-2460 99)"><g class="d" transform="matrix(1, 0, 0, 1, 2541, 583)"><path class="a" d="M303.1,1221.942q-7.095,4.046-14.045,8.336a12.708,12.708,0,0,1-14,.169q-7.052-4.121-14.242-8a12.707,12.707,0,0,1-7.147-12.042q.043-8.167-.2-16.331a12.707,12.707,0,0,1,6.855-12.21q7.095-4.046,14.045-8.336a12.708,12.708,0,0,1,14-.169q7.052,4.121,14.242,8a12.707,12.707,0,0,1,7.147,12.042q-.043,8.167.2,16.331A12.708,12.708,0,0,1,303.1,1221.942Z" transform="translate(-223.46 -1141.34)"/></g><g transform="translate(1 -1.05)"><text class="b" transform="translate(2598 637.05)"><tspan x="-17" y="0">List View</tspan></text></g></g></g><circle cx="1.5" cy="1.5" r="1.5" transform="translate(178 761)"/><line class="c" x2="14" transform="translate(183.5 762.5)"/><g transform="translate(0 5)"><circle cx="1.5" cy="1.5" r="1.5" transform="translate(178 761)"/><line class="c" x2="14" transform="translate(183.5 762.5)"/></g><g transform="translate(0 10)"><circle cx="1.5" cy="1.5" r="1.5" transform="translate(178 761)"/><line class="c" x2="14" transform="translate(183.5 762.5)"/></g></g></svg>