<svg xmlns="http://www.w3.org/2000/svg" width="43.524" height="45" viewBox="0 0 43.524 45"><defs><style>.a{fill:#fff;}</style></defs><path class="a" d="M15.674,44.807,0,34.49V0H23.289a5.786,5.786,0,0,1,5.823,5.748V34.49a5.786,5.786,0,0,1-5.823,5.748H17.467V43.86a1.154,1.154,0,0,1-1.793.947Zm.965-33.853a1.824,1.824,0,0,1,.825,1.522V34.49h4.2a1.613,1.613,0,0,0,1.623-1.6V7.441a1.7,1.7,0,0,0-1.714-1.693H8.731ZM40.141,29.6l-7.619-7.517a3.444,3.444,0,0,1,0-3.812l7.619-7.522c.762-.752,3.383-.752,3.383.814V28.787c0,.928-.913,1.308-1.818,1.308A2.348,2.348,0,0,1,40.141,29.6Z"/></svg>