<svg xmlns="http://www.w3.org/2000/svg" width="61.274" height="36.674" viewBox="0 0 61.274 36.674">
  <g id="Group_13737" data-name="Group 13737" transform="translate(0)">
    <path id="Path_504" data-name="Path 504" d="M249.248,231.064l.946-.025.934-.068.915-.117.909-.161.884-.2.872-.248.854-.291.835-.328.816-.371.792-.4.767-.445.748-.476.718-.513.693-.544.668-.575.637-.612.612-.637.575-.668.544-.693.513-.718.476-.749.445-.767.4-.792.371-.817.328-.835.291-.854.247-.872.2-.884.161-.909.118-.915.068-.934.025-.946-.025-.94-.068-.928-.118-.915-.161-.9-.2-.885-.247-.866-.291-.854-.328-.829-.371-.81-.4-.792-.445-.761-.476-.748-.513-.718-.544-.687-.575-.668-.612-.637-.637-.606-.668-.575-.693-.544-.718-.513-.748-.476-.767-.439-.792-.4-.816-.371-.835-.328-.854-.291-.872-.247-.884-.2-.909-.161-.915-.118-.934-.068-.946-.025-.94.025-.934.068-.915.118-.9.161-.885.2-.872.247-.847.291-.835.328-.81.371-.785.4-.767.439-.742.476-.718.513-.693.544-.662.575-.637.606-.606.637-.575.668-.544.687-.507.718-.476.748-.439.761-.408.792-.365.81-.328.829-.284.854-.247.866-.2.885-.161.9-.118.915-.068.928-.025.94.025.946.068.934.118.915.161.909.2.884.247.872.284.854.328.835.365.817.408.792.439.767.476.749.507.718.544.693.575.668.606.637.637.612.662.575.693.544.718.513.742.476.767.445.785.4.81.371.835.328.847.291.872.248.885.2.9.161.915.117.934.068.94.025Z" transform="translate(-206.345 -194.39)" fill="#b0b0b0" fill-rule="evenodd"/>
    <path id="Path_505" data-name="Path 505" d="M174.205,231.064l.94-.025.934-.068.915-.117.9-.161.885-.2.872-.248.847-.291.835-.328.81-.371.786-.4.767-.445.742-.476.718-.513.693-.544.662-.575.637-.612.606-.637.575-.668.544-.693.507-.718.476-.749.439-.767.408-.792.365-.817.328-.835.284-.854.247-.872.2-.884.161-.909.118-.915.068-.934.025-.946-.025-.94-.068-.928-.118-.915-.161-.9-.2-.885-.247-.866-.284-.854-.328-.829-.365-.81-.408-.792-.439-.761-.476-.748-.507-.718-.544-.687-.575-.668-.606-.637-.637-.606-.662-.575-.693-.544-.718-.513-.742-.476-.767-.439-.786-.4-.81-.371-.835-.328-.847-.291-.872-.247-.885-.2-.9-.161-.915-.118-.934-.068-.94-.025-.946.025-.934.068-.915.118-.909.161-.884.2-.872.247-.854.291-.835.328-.816.371-.792.4-.767.439-.748.476-.718.513-.693.544-.668.575-.637.606-.612.637-.575.668-.544.687-.513.718-.476.748-.445.761-.4.792-.371.81-.328.829-.291.854-.248.866-.2.885-.161.9-.118.915-.068.928-.025.94.025.946.068.934.118.915.161.909.2.884.248.872.291.854.328.835.371.817.4.792.445.767.476.749.513.718.544.693.575.668.612.637.637.612.668.575.693.544.718.513.748.476.767.445.792.4.816.371.835.328.854.291.872.248.884.2.909.161.915.117.934.068.946.025Z" transform="translate(-155.835 -194.39)" fill="#b0b0b0" fill-rule="evenodd"/>
    <path id="Path_506" data-name="Path 506" d="M242.824,213.819h9.742v-1h-8.9l-.841,1Z" transform="translate(-214.334 -206.786)" fill="#f7f8fa" fill-rule="evenodd"/>
    <path id="Path_507" data-name="Path 507" d="M238.367,220.58h11.2v-1H238.955l-.588,1Z" transform="translate(-211.337 -211.333)" fill="#f7f8fa" fill-rule="evenodd"/>
    <path id="Path_508" data-name="Path 508" d="M235.043,227.322h12.291v-1H235.476l-.433,1Z" transform="translate(-209.101 -215.867)" fill="#f7f8fa" fill-rule="evenodd"/>
    <path id="Path_509" data-name="Path 509" d="M232.758,234.084H245.8v-1h-12.73l-.309,1Z" transform="translate(-207.564 -220.414)" fill="#f7f8fa" fill-rule="evenodd"/>
    <path id="Path_510" data-name="Path 510" d="M233.445,266.757h12.637v-1H233.136l.309,1Z" transform="translate(-207.818 -242.386)" fill="#f7f8fa" fill-rule="evenodd"/>
    <path id="Path_511" data-name="Path 511" d="M235.979,273.518h11.7v-1H235.515l.464,1Z" transform="translate(-209.419 -246.933)" fill="#f7f8fa" fill-rule="evenodd"/>
    <path id="Path_512" data-name="Path 512" d="M239.653,280.261h10.392v-1H239.028l.625,1Z" transform="translate(-211.781 -251.467)" fill="#f7f8fa" fill-rule="evenodd"/>
    <path id="Path_513" data-name="Path 513" d="M244.66,287.009h8.585v-1h-9.458l.872,1Z" transform="translate(-214.982 -256.001)" fill="#f7f8fa" fill-rule="evenodd"/>
    <path id="Path_514" data-name="Path 514" d="M231.417,240.826H244.9v-1H231.609l-.192,1Z" transform="translate(-206.663 -224.948)" fill="#f7f8fa" fill-rule="evenodd"/>
    <path id="Path_515" data-name="Path 515" d="M256.5,260.014h5.14v-1h-4.955l-.186,1Z" transform="translate(-223.529 -237.852)" fill="#f7f8fa" fill-rule="evenodd"/>
    <path id="Path_516" data-name="Path 516" d="M257.744,253.259h4.732v-1H257.93l-.186,1Z" transform="translate(-224.367 -233.305)" fill="#f7f8fa" fill-rule="evenodd"/>
    <path id="Path_517" data-name="Path 517" d="M230.378,252.257h1.336v1H230.44l-.062-1Z" transform="translate(-205.964 -233.305)" fill="#b0b0b0" fill-rule="evenodd"/>
    <path id="Path_518" data-name="Path 518" d="M212.1,245.374l-.087-.006-.087-.012-.08-.012-.08-.012-.074-.012-.08-.012-.081-.012-.087-.012-.087-.012-.1-.006-.111-.006-.118-.006h-.13l-.142.006-.161.012-.179.012-.124.019-.118.019-.105.037-.093.037-.087.043-.08.05-.062.062-.056.056-.037.068-.031.068-.012.074v.074l.019.08.025.08.049.08.062.081.124.117.148.093.173.08.186.068.2.062.2.068.2.074.2.08.186.105.173.13.155.155.13.192.1.235.062.278.025.334-.025.39-.043.291-.074.254-.1.235-.124.2-.142.179-.161.155-.173.136-.192.118-.2.093-.2.081-.21.062-.216.049-.21.037-.2.018-.2.012-.192.006h-.266l-.248-.006h-.216l-.2-.006-.186-.006-.167-.012-.148-.012-.142-.019-.13-.012-.118-.025-.118-.019-.105-.031-.105-.025-.1-.037-.1-.037-.105-.037.278-1.367.056.012.068.018.087.025.105.025.111.025.124.025.136.031.148.025.155.025.161.025.167.019.173.019.179.006.179.006h.179l.179-.006.179-.037.142-.049.111-.068.087-.087.062-.087.05-.1.031-.1.025-.093.012-.179-.056-.155-.105-.124-.155-.105-.185-.093-.217-.093-.241-.087-.241-.1-.247-.111-.235-.13-.216-.161-.2-.192-.155-.235-.111-.278-.056-.334.006-.4.031-.241.043-.229.062-.21.074-.2.1-.186.111-.161.13-.155.155-.136.179-.118.2-.1.223-.093.247-.068.278-.056.3-.043.334-.025.365-.006h.229l.21.006.192.006.173.006.155.012.142.012.124.012.111.012.105.012.087.018.08.012.074.012.062.012.056.006.056.012.049.006-.315,1.4Z" transform="translate(-190.177 -227.628)" fill="#fff" fill-rule="evenodd"/>
    <path id="Path_519" data-name="Path 519" d="M212.1,245.374h0l-.087-.006-.087-.012-.08-.012-.08-.012-.074-.012-.08-.012-.081-.012-.087-.012-.087-.012-.1-.006-.111-.006-.118-.006h-.13l-.142.006-.161.012-.179.012h0l-.124.019-.118.019-.105.037-.093.037-.087.043-.08.05-.062.062-.056.056-.037.068-.031.068-.012.074v.074l.019.08.025.08.049.08.062.081h0l.124.117.148.093.173.08.186.068.2.062.2.068.2.074.2.08.186.105.173.13.155.155.13.192.1.235.062.278.025.334-.025.39h0l-.043.291-.074.254-.1.235-.124.2-.142.179-.161.155-.173.136-.192.118-.2.093-.2.081-.21.062-.216.049-.21.037-.2.018-.2.012-.192.006h-.266l-.248-.006h-.216l-.2-.006-.186-.006-.167-.012-.148-.012-.142-.019-.13-.012-.118-.025-.118-.019-.105-.031-.105-.025-.1-.037-.1-.037-.105-.037.278-1.367h0l.056.012.068.018.087.025.105.025.111.025.124.025.136.031.148.025.155.025.161.025.167.019.173.019.179.006.179.006h.179l.179-.006h0l.179-.037.142-.049.111-.068.087-.087.062-.087.05-.1.031-.1.025-.093h0l.012-.179-.056-.155-.105-.124-.155-.105-.185-.093-.217-.093-.241-.087-.241-.1-.247-.111-.235-.13-.216-.161-.2-.192-.155-.235-.111-.278-.056-.334.006-.4h0l.031-.241.043-.229.062-.21.074-.2.1-.186.111-.161.13-.155.155-.136.179-.118.2-.1.223-.093.247-.068.278-.056.3-.043.334-.025.365-.006h.229l.21.006.192.006.173.006.155.012.142.012.124.012.111.012.105.012.087.018.08.012.074.012.062.012.056.006.056.012.049.006-.315,1.4" transform="translate(-190.177 -227.628)" fill="none" stroke="#fff" stroke-miterlimit="2.613" stroke-width="0.216"/>
    <path id="Path_520" data-name="Path 520" d="M224.741,239.641h1.713l-.254,1.5h1.033l-.223,1.4-1.089-.031-.594,3.451-.006.124.031.105.062.08.08.068.111.043.124.037.136.025.148.012.136-.006.124-.012.111-.018.1-.025.08-.025.056-.019.037-.012.012-.006-.217,1.15-.043.031-.043.025-.043.025-.043.025-.043.019-.049.019-.056.019-.056.019-.062.018-.062.012-.074.012-.074.012-.081.012-.093.012-.1.012-.105.012h-.47l-.247-.019-.217-.025-.2-.037-.167-.043-.142-.056-.117-.062-.105-.074-.08-.08-.062-.087-.043-.105-.031-.105-.019-.118-.006-.13v-.136l.019-.142.019-.155,1.181-6.748Z" transform="translate(-201.354 -224.821)" fill="#fff" fill-rule="evenodd"/>
    <path id="Path_521" data-name="Path 521" d="M224.741,239.641h1.713l-.254,1.5h1.033l-.223,1.4-1.089-.031-.594,3.451h0l-.006.124.031.105.062.08.08.068.111.043.124.037.136.025.148.012h0l.136-.006.124-.012.111-.018.1-.025.08-.025.056-.019.037-.012.012-.006-.217,1.15h0l-.043.031-.043.025-.043.025-.043.025-.043.019-.049.019-.056.019-.056.019-.062.018-.062.012-.074.012-.074.012-.081.012-.093.012-.1.012-.105.012h-.47l-.247-.019-.217-.025-.2-.037-.167-.043-.142-.056-.117-.062-.105-.074-.08-.08-.062-.087-.043-.105-.031-.105-.019-.118-.006-.13v-.136l.019-.142.019-.155,1.181-6.748" transform="translate(-201.354 -224.821)" fill="none" stroke="#fff" stroke-miterlimit="2.613" stroke-width="0.216"/>
    <path id="Path_522" data-name="Path 522" d="M235.319,247.675l-.019.105-.006.111.012.118.025.118.043.118.049.111.068.118.074.105.087.105.093.093.1.093.111.074.111.068.124.056.124.043.124.025.161.025.155.019.161.019.161.012.161.006h.167l.161-.006.167-.012.167-.025.167-.031.173-.037.167-.056.173-.068.179-.074.173-.1.179-.105-.247,1.522-.1.05-.1.049-.1.037-.093.037-.093.031-.1.031-.1.025-.105.019-.111.019-.124.012-.13.012-.142.012-.161.006h-.167l-.192.006h-.2l-.3-.006-.309-.031-.309-.043-.309-.074-.3-.093-.291-.118-.278-.154-.26-.179-.241-.21-.21-.254-.179-.284-.148-.328-.105-.365-.068-.414-.019-.458.031-.507.025-.2.037-.229.049-.241.068-.26.093-.266.111-.266.142-.272.173-.26.2-.247.241-.235.272-.21.309-.186.359-.155.4-.111.445-.074.5-.025.241.006.254.025.254.043.254.062.247.093.241.111.223.148.2.173.185.21.155.247.124.285.087.328.049.371.006.421-.043.47-.093.52-.031.377h-4.509l.284-1.218h2.709l.012-.155-.006-.148-.012-.136-.025-.124-.043-.118-.043-.105-.062-.093-.062-.087-.074-.074-.08-.062-.093-.056-.093-.05-.1-.037-.1-.025-.105-.019-.111-.012-.118.006-.111.019-.105.025-.105.037-.105.049-.093.056-.093.068-.08.074-.08.087-.074.093-.068.1-.056.105-.056.111-.043.124-.037.124-.025.13-.247,1.28Z" transform="translate(-208.072 -227.628)" fill="#fff" fill-rule="evenodd"/>
    <path id="Path_523" data-name="Path 523" d="M235.319,247.675h0l-.019.105-.006.111.012.118.025.118.043.118.049.111.068.118.074.105.087.105.093.093.1.093.111.074.111.068.124.056.124.043.124.025h0l.161.025.155.019.161.019.161.012.161.006h.167l.161-.006.167-.012.167-.025.167-.031.173-.037.167-.056.173-.068.179-.074.173-.1.179-.105-.247,1.522h0l-.1.05-.1.049-.1.037-.093.037-.093.031-.1.031-.1.025-.105.019-.111.019-.124.012-.13.012-.142.012-.161.006h-.167l-.192.006h-.2l-.3-.006-.309-.031-.309-.043-.309-.074-.3-.093-.291-.118-.278-.154-.26-.179-.241-.21-.21-.254-.179-.284-.148-.328-.105-.365-.068-.414-.019-.458.031-.507h0l.025-.2.037-.229.049-.241.068-.26.093-.266.111-.266.142-.272.173-.26.2-.247.241-.235.272-.21.309-.186.359-.155.4-.111.445-.074.5-.025h0l.241.006.254.025.254.043.254.062.247.093.241.111.223.148.2.173.185.21.155.247.124.285.087.328.049.371.006.421-.043.47-.093.52-.031.377h-4.509l.284-1.218h2.709l.012-.155-.006-.148-.012-.136-.025-.124-.043-.118-.043-.105-.062-.093-.062-.087-.074-.074-.08-.062-.093-.056-.093-.05-.1-.037-.1-.025-.105-.019-.111-.012h0l-.118.006-.111.019-.105.025-.105.037-.105.049-.093.056-.093.068-.08.074-.08.087-.074.093-.068.1-.056.105-.056.111-.043.124-.037.124-.025.13-.247,1.28" transform="translate(-208.072 -227.628)" fill="none" stroke="#fff" stroke-miterlimit="2.613" stroke-width="0.216"/>
    <path id="Path_524" data-name="Path 524" d="M271.117,240.938l-.08-.043-.08-.037-.087-.043-.093-.043-.093-.037-.105-.037-.105-.037-.111-.037-.117-.031-.118-.025-.13-.025-.13-.019-.142-.012-.142-.012h-.458l-.161.012-.167.019-.173.031-.173.049-.173.068-.173.087-.173.111-.167.136-.161.161-.155.2-.148.229-.136.272-.13.309-.118.346-.1.4-.037.223-.025.217-.012.216.006.21.019.21.043.2.056.186.068.186.093.167.111.161.13.142.148.13.167.111.192.093.21.08.235.056.08.019.093.019.111.012.124.012.136.012h.3l.155-.012.161-.019.161-.031.155-.043.155-.049.155-.068.142-.08.13-.1.124-.111-.278,1.652-.037.031-.037.037-.049.043-.056.037-.068.049-.087.043-.1.043-.111.037-.142.043-.161.031-.186.025-.216.025-.241.012-.278.006-.315-.006-.346-.019-.285-.031-.285-.062-.284-.093-.285-.124-.272-.148-.26-.186-.247-.216-.229-.248-.2-.278-.173-.309-.148-.346-.111-.377-.074-.414-.025-.439.012-.482.068-.513.049-.254.056-.247.062-.241.062-.229.068-.216.08-.217.08-.2.087-.192.093-.192.093-.179.105-.173.111-.161.111-.155.124-.148.124-.136.13-.13.142-.124.142-.118.148-.105.155-.1.167-.093.167-.08.173-.074.18-.068.192-.062.192-.049.2-.043.21-.037.21-.031.223-.025.223-.012.235-.006.2.006.192.012.185.018.186.025.173.025.167.037.161.031.148.037.142.037.124.037.118.037.1.037.087.031.074.025.056.025.037.012-.309,1.713Z" transform="translate(-229.117 -224.249)" fill="#fff" fill-rule="evenodd"/>
    <path id="Path_525" data-name="Path 525" d="M271.117,240.938h0l-.08-.043-.08-.037-.087-.043-.093-.043-.093-.037-.105-.037-.105-.037-.111-.037-.117-.031-.118-.025-.13-.025-.13-.019-.142-.012-.142-.012h-.458l-.161.012-.167.019-.173.031-.173.049-.173.068-.173.087-.173.111-.167.136-.161.161-.155.2-.148.229-.136.272-.13.309-.118.346-.1.4h0l-.037.223-.025.217-.012.216.006.21.019.21.043.2.056.186.068.186.093.167.111.161.13.142.148.13.167.111.192.093.21.08.235.056h0l.08.019.093.019.111.012.124.012.136.012h.3l.155-.012.161-.019.161-.031.155-.043.155-.049.155-.068.142-.08.13-.1.124-.111-.278,1.652h0l-.037.031-.037.037-.049.043-.056.037-.068.049-.087.043-.1.043-.111.037-.142.043-.161.031-.186.025-.216.025-.241.012-.278.006-.315-.006-.346-.019h0l-.285-.031-.285-.062-.284-.093-.285-.124-.272-.148-.26-.186-.247-.216-.229-.248-.2-.278-.173-.309-.148-.346-.111-.377-.074-.414-.025-.439.012-.482.068-.513h0l.049-.254.056-.247.062-.241.062-.229.068-.216.08-.217.08-.2.087-.192.093-.192.093-.179.105-.173.111-.161.111-.155.124-.148.124-.136.13-.13.142-.124.142-.118.148-.105.155-.1.167-.093.167-.08.173-.074.18-.068.192-.062.192-.049.2-.043.21-.037.21-.031.223-.025.223-.012.235-.006h0l.2.006.192.012.185.018.186.025.173.025.167.037.161.031.148.037.142.037.124.037.118.037.1.037.087.031.074.025.056.025.037.012-.309,1.713" transform="translate(-229.117 -224.249)" fill="none" stroke="#fff" stroke-miterlimit="2.613" stroke-width="0.216"/>
    <path id="Path_526" data-name="Path 526" d="M318.936,247.826h-1.713l.124-.687v-.062l-.1.124-.105.111-.105.1-.111.087-.111.08-.111.068-.111.056-.118.056-.118.043-.118.031-.118.031-.124.019-.124.019-.118.012-.124.006h-.124l-.322-.025-.3-.068-.272-.105-.247-.142-.223-.179-.2-.21-.173-.229-.148-.26-.124-.278-.1-.291-.068-.3-.049-.315-.018-.315.006-.322.031-.315.056-.315.093-.365.111-.346.13-.315.155-.3.161-.278.186-.247.192-.223.2-.2.216-.179.229-.155.235-.136.235-.105.247-.087.247-.056.247-.037.254-.012.179.006.173.019.161.031.148.043.142.049.124.056.124.068.111.068.1.074.093.081.08.08.074.08.062.08.056.08.049.074.037.074h0l.433-2.431h1.682l-1.4,8.091Z" transform="translate(-261.708 -224.884)" fill="#fff" fill-rule="evenodd"/>
    <path id="Path_527" data-name="Path 527" d="M318.936,247.826h-1.713l.124-.687v-.062h0l-.1.124-.105.111-.105.1-.111.087-.111.08-.111.068-.111.056-.118.056-.118.043-.118.031-.118.031-.124.019-.124.019-.118.012-.124.006h-.124l-.322-.025-.3-.068-.272-.105-.247-.142-.223-.179-.2-.21-.173-.229-.148-.26-.124-.278-.1-.291-.068-.3-.049-.315-.018-.315.006-.322.031-.315.056-.315h0l.093-.365.111-.346.13-.315.155-.3.161-.278.186-.247.192-.223.2-.2.216-.179.229-.155.235-.136.235-.105.247-.087.247-.056.247-.037.254-.012h0l.179.006.173.019.161.031.148.043.142.049.124.056.124.068.111.068.1.074.093.081.08.08.074.08.062.08.056.08.049.074.037.074h0l.433-2.431h1.682l-1.4,8.091" transform="translate(-261.708 -224.884)" fill="none" stroke="#fff" stroke-miterlimit="2.613" stroke-width="0.216"/>
    <path id="Path_528" data-name="Path 528" d="M320.223,252.4l.173-.012.161-.037.148-.043.142-.068.13-.074.124-.093.117-.105.105-.111.093-.124.087-.136.08-.142.068-.148.062-.155.049-.161.043-.167.031-.167.031-.173.019-.179v-.167l-.006-.173-.018-.161-.025-.155-.043-.148-.049-.142-.062-.124-.074-.118-.08-.1-.093-.087-.105-.074-.111-.049-.117-.031-.13-.012-.167.012-.154.025-.142.049-.142.062-.124.08-.124.1-.105.105-.105.118-.093.136-.087.142-.08.148-.068.161-.062.167-.049.167-.049.179-.037.179-.031.272.012.3.043.3.08.291.124.254.161.2.2.136.247.049Z" transform="translate(-265.797 -230.955)" fill="#b0b0b0" fill-rule="evenodd"/>
    <path id="Path_529" data-name="Path 529" d="M194.464,249.3l-.247,1.373h-1.559l.043-.254.031-.229.025-.173.025-.093-.087.1-.1.1-.117.093-.13.087-.149.087-.155.074-.161.074-.167.062-.179.056-.179.043-.179.037-.185.025-.179.012-.179.006-.173-.019-.167-.025-.217-.056-.2-.062-.173-.08-.155-.093-.136-.1-.124-.111-.1-.118-.087-.124-.074-.13-.062-.136-.049-.136-.037-.136-.025-.142-.018-.142-.012-.136V248.9l.019-.241.037-.229.062-.217.08-.21.1-.2.111-.179.13-.173.149-.155.155-.142.173-.13.179-.118.186-.1.2-.087.2-.068.21-.056.216-.037h.012l.031-.006.043-.006.068-.006.074-.012.087-.006.093-.012.105-.012.105-.012.105-.012.111-.006.1-.012.1-.006.093-.006.087-.006h.21l.149.006.136.006h.136l.111.006.087.006.062.006h.019l.012-.043.037-.111.031-.13.012-.118-.025-.136-.056-.124-.074-.111-.1-.093-.118-.08-.13-.056-.148-.037-.161-.012-.173-.006-.186-.006h-.192l-.2.006-.2.012-.2.018-.2.019-.192.025-.186.025-.179.031-.161.031-.148.031-.136.037-.111.037-.087.043-.068.037.439-1.491.136-.056.136-.049.148-.043.148-.031.148-.031.161-.025L191.3,244l.167-.012.173-.012.179-.006.186-.006h.594l.216.006.217.006.173.012.186.031.192.043.2.056.192.074.186.087.186.105.173.118.155.136.136.148.124.167.093.186.062.2.037.21v.235l-.037.247-.625,3.266Z" transform="translate(-178.023 -227.729)" fill="#fff" fill-rule="evenodd"/>
    <path id="Path_530" data-name="Path 530" d="M194.464,249.3l-.247,1.373h-1.559l.043-.254.031-.229.025-.173.025-.093h0l-.087.1-.1.1-.117.093-.13.087-.149.087-.155.074-.161.074-.167.062-.179.056-.179.043-.179.037-.185.025-.179.012-.179.006-.173-.019-.167-.025h0l-.217-.056-.2-.062-.173-.08-.155-.093-.136-.1-.124-.111-.1-.118-.087-.124-.074-.13-.062-.136-.049-.136-.037-.136-.025-.142-.018-.142-.012-.136V248.9h0l.019-.241.037-.229.062-.217.08-.21.1-.2.111-.179.13-.173.149-.155.155-.142.173-.13.179-.118.186-.1.2-.087.2-.068.21-.056.216-.037h.012l.031-.006.043-.006.068-.006.074-.012.087-.006.093-.012.105-.012.105-.012.105-.012.111-.006.1-.012.1-.006.093-.006.087-.006h.21l.149.006.136.006h.136l.111.006.087.006.062.006h.019l.012-.043.037-.111.031-.13.012-.118h0l-.025-.136-.056-.124-.074-.111-.1-.093-.118-.08-.13-.056-.148-.037-.161-.012h0l-.173-.006-.186-.006h-.192l-.2.006-.2.012-.2.018-.2.019-.192.025-.186.025-.179.031-.161.031-.148.031-.136.037-.111.037-.087.043-.068.037.439-1.491h0l.136-.056.136-.049.148-.043.148-.031.148-.031.161-.025L191.3,244l.167-.012.173-.012.179-.006.186-.006h.594l.216.006.217.006h0l.173.012.186.031.192.043.2.056.192.074.186.087.186.105.173.118.155.136.136.148.124.167.093.186.062.2.037.21v.235l-.037.247-.625,3.266" transform="translate(-178.023 -227.729)" fill="none" stroke="#fff" stroke-miterlimit="2.613" stroke-width="0.216"/>
    <path id="Path_531" data-name="Path 531" d="M196.923,255.088l-.006-.031-.025-.031-.037-.019-.062-.012-.068-.012-.08-.006h-.186l-.1.006-.105.012-.1.012-.1.012-.093.012-.087.019-.074.019-.068.019-.043.012-.049.019-.068.025-.068.031-.08.037-.08.043-.087.043-.08.049-.087.062-.08.062-.074.074-.068.074-.062.08-.043.087-.037.1-.019.1-.006.21.031.167.062.124.08.093.093.062.105.037.1.018.1.006.186-.006.167-.018.161-.025.142-.037.124-.043.118-.056.105-.056.093-.068.08-.062.074-.074.062-.068.049-.074.043-.074.037-.074.031-.068.019-.068.049-.179.043-.2.037-.2.031-.161Z" transform="translate(-181.973 -235.134)" fill="#b0b0b0" fill-rule="evenodd"/>
    <path id="Path_532" data-name="Path 532" d="M162.843,247.763H161.16l1.4-8.122h2.926l.278,4.819,2.023-4.819h3.056l-1.435,8.122h-1.682l1.064-6.068h-.068l-2.518,6.068h-1.9l-.012-.254-.043-.674-.056-.959-.062-1.1-.062-1.107-.056-.971-.043-.705-.012-.3h-.093l-1.027,6.068Z" transform="translate(-159.416 -224.821)" fill="#fff" fill-rule="evenodd"/>
    <path id="Path_533" data-name="Path 533" d="M162.843,247.763H161.16l1.4-8.122h2.926l.278,4.819,2.023-4.819h3.056l-1.435,8.122h-1.682l1.064-6.068h-.068l-2.518,6.068h-1.9l-.012-.254-.043-.674-.056-.959-.062-1.1-.062-1.107-.056-.971-.043-.705-.012-.3h-.093l-1.027,6.068" transform="translate(-159.416 -224.821)" fill="none" stroke="#fff" stroke-miterlimit="2.613" stroke-width="0.216"/>
    <path id="Path_534" data-name="Path 534" d="M288.26,249.3l-.254,1.373h-1.553l.012-.254.006-.223v-.167l.012-.074-.08.093-.093.093-.111.087-.124.087-.13.08-.149.074-.155.074-.155.062-.167.05-.173.049-.173.031-.173.025-.179.012-.173.006-.167-.019-.167-.025-.223-.056-.2-.062-.173-.08-.161-.093-.136-.1-.118-.111-.1-.118-.087-.124-.074-.13-.056-.136-.049-.136-.031-.136-.025-.142-.019-.142-.012-.136V248.9l.012-.241.037-.229.056-.217.08-.21.093-.2.117-.179.13-.173.142-.155.161-.142.167-.13.179-.118.192-.1.192-.087.2-.068.2-.056.21-.037h.012l.031-.006.043-.006.062-.006.08-.012.087-.006.093-.012.1-.012.105-.012.111-.012.105-.006.105-.012.1-.006.087-.006.087-.006h.217l.148.006.142.006h.136l.118.006.1.006.056.006h.025l.012-.043.019-.111.019-.13.012-.118-.025-.136-.049-.124-.081-.111-.093-.093-.111-.08-.13-.056-.136-.037-.148-.012-.173-.006-.186-.006h-.192l-.2.006-.2.012-.2.018-.2.019-.192.025-.186.025-.179.031-.161.031-.148.031-.136.037-.111.037-.087.043-.068.037.433-1.491.136-.056.142-.049.142-.043.148-.031.155-.031.155-.025.161-.025.167-.012.173-.012.179-.006.179-.006h.581l.21.006.21.006.173.012.186.031.192.043.2.056.192.074.192.087.186.105.173.118.155.136.142.148.124.167.093.186.068.2.043.21v.235l-.031.247-.649,3.266Z" transform="translate(-241.12 -227.729)" fill="#fff" fill-rule="evenodd"/>
    <path id="Path_535" data-name="Path 535" d="M298.916,261.65l.037-.037.254-1.373-.074-.012-.254,1.373.037-.037v.087l.031-.006.006-.031-.037.037Z" transform="translate(-252.03 -238.665)" fill="#fff" fill-rule="evenodd"/>
    <path id="Path_536" data-name="Path 536" d="M294.125,264.35l.037.043h1.553v-.087h-1.553l.037.043h-.074l-.006.043h.043l-.037-.043Z" transform="translate(-248.829 -241.408)" fill="#fff" fill-rule="evenodd"/>
    <path id="Path_537" data-name="Path 537" d="M294.237,262.222l-.056-.049-.025.1-.006.167v.223l-.012.254h.074l.013-.254.012-.223-.006-.167v-.049l-.056-.049.062.049Z" transform="translate(-248.842 -239.973)" fill="#fff" fill-rule="evenodd"/>
    <path id="Path_538" data-name="Path 538" d="M287.094,263.014h0l.173.025.167.019.173-.006.179-.012.179-.025.173-.031.173-.05.173-.049.155-.062.161-.074.148-.074.13-.087.13-.087.111-.087.1-.1.08-.093-.062-.049-.08.093-.087.087-.111.087-.117.087-.13.074-.149.074-.148.074-.155.062-.161.049-.173.049-.173.031-.167.025-.179.012-.173.006-.167-.019-.161-.025h0l-.012.074Z" transform="translate(-244.104 -239.973)" fill="#fff" fill-rule="evenodd"/>
    <path id="Path_539" data-name="Path 539" d="M282.523,259.019h0l.006.136.012.136.018.148.025.142.031.136.049.142.056.142.08.13.087.13.1.118.124.118.142.1.161.1.179.08.2.062.223.056.012-.074-.223-.056-.192-.062-.167-.081-.161-.087-.13-.1-.111-.105-.1-.117-.087-.118-.068-.13-.056-.13-.049-.13-.031-.136-.025-.142-.019-.136-.012-.136.006-.136h-.087Z" transform="translate(-241.031 -237.852)" fill="#fff" fill-rule="evenodd"/>
    <path id="Path_540" data-name="Path 540" d="M284.744,251.766h0l-.216.037-.21.056-.2.068-.2.087-.192.1-.186.124-.167.13-.161.148-.148.155-.13.173-.124.186-.093.2-.08.21-.056.223-.037.235-.019.241h.087l.006-.241.037-.223.056-.21.08-.21.093-.192.111-.173.13-.173.136-.155.161-.136.167-.13.173-.111.192-.1.186-.087.2-.068.2-.056.2-.037h0v-.074Z" transform="translate(-241.031 -232.975)" fill="#fff" fill-rule="evenodd"/>
    <path id="Path_541" data-name="Path 541" d="M290.578,251.37h-.068l-.087.012-.087.006-.1.006-.105.012-.105.006-.111.012-.105.012-.1.012-.093.012-.087.006-.08.012-.062.006-.049.006-.025.006H289.3v.074h.012l.037-.006.037-.006.062-.006.08-.012.087-.006.093-.012.1-.012.105-.012.111-.012.105-.006.105-.012.1-.006.087-.006h.155v-.087Z" transform="translate(-245.59 -232.708)" fill="#fff" fill-rule="evenodd"/>
    <path id="Path_542" data-name="Path 542" d="M294.029,251.438l.037-.031h-.025l-.056-.006-.1-.006-.118-.012h-.278l-.148-.012h-.148v.087h.3l.142.012h.254l.1.006.056.006h.025l.037-.031-.037.031.031.006.006-.037-.074-.012Z" transform="translate(-248.207 -232.708)" fill="#fff" fill-rule="evenodd"/>
    <path id="Path_543" data-name="Path 543" d="M295.805,250.369H295.8l-.006.118-.018.124-.018.111-.013.043.074.012.012-.043.019-.111.019-.136.019-.118h-.081Z" transform="translate(-249.921 -232.035)" fill="#fff" fill-rule="evenodd"/>
    <path id="Path_544" data-name="Path 544" d="M293.685,248.334v.006l.142.006.13.037.124.056.105.074.087.087.074.105.05.111.025.13h.074l-.025-.142-.049-.136-.087-.118-.1-.1-.117-.087-.136-.056-.142-.037-.155-.018v.08Z" transform="translate(-248.537 -230.613)" fill="#fff" fill-rule="evenodd"/>
    <path id="Path_545" data-name="Path 545" d="M285.583,248.605l.062.037.062-.031.08-.043.105-.037.136-.037.148-.031.161-.031.179-.031.179-.025.192-.025.2-.019.2-.019.2-.012h.575l.173.006v-.074l-.173-.006-.185-.012h-.192l-.2.012-.2.012-.2.019-.2.019-.192.025-.192.025-.179.031-.161.031-.148.031-.136.037-.118.037-.093.043-.074.043.062.037-.074-.012Z" transform="translate(-243.088 -230.587)" fill="#fff" fill-rule="evenodd"/>
    <path id="Path_546" data-name="Path 546" d="M286.04,244.76l-.025.031-.433,1.491.074.012.433-1.491-.025.031-.025-.074-.019.006-.006.025.025-.031Z" transform="translate(-243.088 -228.263)" fill="#fff" fill-rule="evenodd"/>
    <path id="Path_547" data-name="Path 547" d="M289.733,243.853h0l-.21-.012-.21-.006h-.581l-.179.012-.179.006-.173.012-.167.012-.167.025-.155.025-.155.031-.148.031-.148.043-.142.049-.136.056.025.074.136-.056.142-.049.136-.043.148-.031.155-.031.155-.025.155-.025.167-.012.173-.012.179-.006h.761l.21.006h.21v-.074Z" transform="translate(-244.028 -227.641)" fill="#fff" fill-rule="evenodd"/>
    <path id="Path_548" data-name="Path 548" d="M297.506,245.988h0l.031-.254V245.5l-.043-.217-.068-.2-.1-.192-.124-.173-.148-.155-.155-.136-.179-.118-.186-.111-.2-.087-.192-.074-.2-.056-.192-.043-.192-.031-.173-.012v.074l.173.012.179.031.192.043.192.056.192.074.185.087.186.1.167.118.155.136.136.142.124.161.087.179.068.192.043.2v.235l-.031.241h0l.074.012Z" transform="translate(-249.68 -227.679)" fill="#fff" fill-rule="evenodd"/>
    <path id="Path_549" data-name="Path 549" d="M299.727,253.534h0l.649-3.266-.074-.012-.65,3.266h0l.074.012Z" transform="translate(-252.55 -231.959)" fill="#fff" fill-rule="evenodd"/>
    <path id="Path_550" data-name="Path 550" d="M290.712,255.076l-.012-.037-.025-.031-.043-.019-.062-.019-.068-.006-.08-.006h-.093l-.093.006-.1.012-.1.012-.1.012-.093.012-.093.019-.08.012-.08.019-.062.012-.043.006-.049.019-.062.019-.068.025-.08.037-.074.037-.087.043-.08.056-.08.056-.08.068-.068.068-.068.08-.056.087-.043.093-.037.1-.018.105-.006.21.031.167.049.124.074.093.093.062.105.037.105.018.105.006.186-.006.173-.018.161-.031.142-.043.136-.049.117-.056.111-.062.1-.074.087-.068.074-.08.068-.074.056-.08.043-.074.031-.074.025-.074.019-.068.025-.173.031-.179.025-.173.012-.155Z" transform="translate(-245.07 -235.121)" fill="#b0b0b0" fill-rule="evenodd"/>
    <path id="Path_551" data-name="Path 551" d="M334.1,260.137l.012-.142.049-.167.087-.148.105-.13.13-.105.148-.074.161-.049.173-.019.173.019.161.049.148.074.13.105.105.13.087.148.049.167.012.142h-.186l-.006-.111-.037-.136-.062-.124-.08-.105-.1-.087-.118-.062-.136-.043-.142-.012-.142.012-.136.043-.118.062-.1.087-.08.105-.062.124-.037.136-.012.111Z" transform="translate(-275.716 -238.042)" fill="#fff" fill-rule="evenodd"/>
    <path id="Path_552" data-name="Path 552" d="M335.8,261.09v-.371h.34l.074.006.068.012.049.019.043.025.031.037.025.037.012.043.006.043-.006.056-.012.043-.019.037-.012.012h-.26l.025-.006.043-.006.037-.012.031-.012.025-.019.012-.019.012-.031v-.043l-.006-.031-.012-.025-.019-.012-.019-.012-.031-.006-.031-.006h-.253v.241Z" transform="translate(-276.86 -238.995)" fill="#fff" fill-rule="evenodd"/>
    <path id="Path_553" data-name="Path 553" d="M334.089,261.852l-.006.037.019.179.049.167.087.148.105.124.13.105.148.081.161.049.173.018.173-.018.161-.049.148-.081.13-.105.105-.124.087-.148.049-.167.019-.179-.006-.037h-.186l.006.037-.012.148-.037.136-.062.118-.08.1-.1.087-.118.068-.136.043-.142.012-.142-.012-.136-.043-.117-.068-.1-.087-.08-.1-.062-.118-.037-.136-.012-.148v-.037Z" transform="translate(-275.704 -239.757)" fill="#fff" fill-rule="evenodd"/>
    <path id="Path_554" data-name="Path 554" d="M335.8,261.852v.377h.155v-.309h.155l.186.309h.124l-.186-.309h.043l.043-.012.037-.012.031-.025.012-.019h-.26l-.031.006h-.155v-.006Z" transform="translate(-276.86 -239.757)" fill="#fff" fill-rule="evenodd"/>
    <path id="Path_555" data-name="Path 555" d="M334.083,260.174h0l.018-.179.049-.167.087-.148.105-.13.13-.105.149-.074.161-.049.173-.019h0l.173.019.161.049.149.074.13.105.105.13.087.148.049.167.019.179h0l-.019.179-.049.167-.087.149-.105.124-.13.1-.149.081-.161.049-.173.019h0l-.173-.019-.161-.049-.149-.081-.13-.1-.105-.124-.087-.149-.049-.167-.018-.179m.717.34h-.155v-.748h.34l.074.006.068.012.049.019.044.025.031.037.025.037.012.043.006.043h0l-.006.056-.012.043-.019.037-.025.031-.031.025-.037.012-.043.012h-.043l.186.31h-.124l-.186-.31H334.8v.31m.155-.371h0l.056-.012.043-.006.037-.012.031-.012.025-.018.012-.019.012-.031v-.044h0l-.006-.031-.012-.025-.019-.012-.019-.012-.031-.006-.031-.006H334.8v.247h.155m0,.749h0l.143-.012.136-.043.118-.068.1-.087.081-.1.062-.118.037-.136.012-.148h0l-.012-.148-.037-.136-.062-.123-.081-.105-.1-.086-.118-.062-.136-.043-.143-.012h0l-.142.012-.136.043-.118.062-.1.086-.081.105-.062.123-.037.136-.012.148h0l.012.148.037.136.062.118.081.1.1.087.118.068.136.043.142.012" transform="translate(-275.704 -238.042)" fill="none"/>
    <path id="Path_556" data-name="Path 556" d="M301.183,250.7h1.744l.625-3.52.025-.136.037-.136.037-.136.049-.136.062-.136.074-.13.08-.124.1-.118.111-.105.124-.1.142-.093.161-.074.179-.062.2-.049.216-.037.241-.012h.155l.278-1.59-.173.012-.167.019-.155.031-.148.043-.136.049-.13.062-.124.068-.118.074-.111.087-.105.087-.1.1-.1.1-.093.105-.093.118-.093.111-.087.124.186-1.12H302.34l-1.157,6.625Z" transform="translate(-253.579 -227.755)" fill="#fff" fill-rule="evenodd"/>
    <path id="Path_557" data-name="Path 557" d="M301.183,250.7h1.744l.625-3.52h0l.025-.136.037-.136.037-.136.049-.136.062-.136.074-.13.08-.124.1-.118.111-.105.124-.1.142-.093.161-.074.179-.062.2-.049.216-.037.241-.012h.155l.278-1.59h0l-.173.012-.167.019-.155.031-.148.043-.136.049-.13.062-.124.068-.118.074-.111.087-.105.087-.1.1-.1.1-.093.105-.093.118-.093.111-.087.124.186-1.12H302.34l-1.157,6.625h0" transform="translate(-253.579 -227.755)" fill="none" stroke="#fff" stroke-miterlimit="2.613" stroke-width="0.216"/>
    <path id="Path_558" data-name="Path 558" d="M251.172,250.7h1.775l.594-3.52.025-.136.031-.13.031-.13.043-.124.049-.124.062-.118.074-.111.087-.105.1-.093.111-.093.136-.074.148-.068.173-.056.192-.049.21-.031.241-.019h.019l.025.006.031.006h.031l.031.006.025.006.018.006h.006l.006-.025.019-.074.025-.111.031-.136.043-.161.043-.173.056-.173.056-.173.049-.118.062-.118.062-.117.062-.105.056-.093.043-.074.031-.043.012-.019h-.006l-.025-.006-.031-.006-.043-.006h-.043l-.049-.006-.043-.006h-.043l-.192.012-.173.019-.161.031-.148.037-.142.049-.13.062-.118.062-.111.074-.105.08-.1.093-.093.093-.093.105-.093.105-.087.118-.093.124-.093.124.223-1.12h-1.775l-1.157,6.625Z" transform="translate(-219.948 -227.755)" fill="#fff" fill-rule="evenodd"/>
    <path id="Path_559" data-name="Path 559" d="M251.172,250.7h1.775l.594-3.52h0l.025-.136.031-.13.031-.13.043-.124.049-.124.062-.118.074-.111.087-.105.1-.093.111-.093.136-.074.148-.068.173-.056.192-.049.21-.031.241-.019h.019l.025.006.031.006h.031l.031.006.025.006.018.006h.006l.006-.025.019-.074.025-.111.031-.136.043-.161.043-.173.056-.173.056-.173h0l.049-.118.062-.118.062-.117.062-.105.056-.093.043-.074.031-.043.012-.019h-.006l-.025-.006-.031-.006-.043-.006h-.043l-.049-.006-.043-.006h-.043l-.192.012-.173.019-.161.031-.148.037-.142.049-.13.062-.118.062-.111.074-.105.08-.1.093-.093.093-.093.105-.093.105-.087.118-.093.124-.093.124.223-1.12h-1.775l-1.157,6.625h0" transform="translate(-219.948 -227.755)" fill="none" stroke="#fff" stroke-miterlimit="2.613" stroke-width="0.216"/>
    <path id="Path_560" data-name="Path 560" d="M334.139,282.9v-.025l.049-.161.087-.142.105-.124.13-.1.148-.074.161-.043.173-.019.173.019.161.043.148.074.13.1.105.124.087.142.049.161v.025h-.179l-.037-.13-.062-.118-.08-.105-.1-.087-.118-.068-.136-.043-.142-.012-.142.012-.136.043-.118.068-.1.087-.08.105-.062.118-.037.13Z" transform="translate(-275.742 -253.448)" fill="#b0b0b0" fill-rule="evenodd"/>
    <path id="Path_561" data-name="Path 561" d="M335.8,283.863v-.216h.414l.068.012.049.012.043.025.031.031.025.037.012.043.006.056h-.124v-.031l-.006-.031-.012-.025-.019-.012-.019-.012-.031-.006-.031-.006h-.253v.124Z" transform="translate(-276.86 -254.414)" fill="#b0b0b0" fill-rule="evenodd"/>
    <path id="Path_562" data-name="Path 562" d="M334.083,284.443l.019-.136h.179v.006l-.012.13Z" transform="translate(-275.704 -254.858)" fill="#b0b0b0" fill-rule="evenodd"/>
    <path id="Path_563" data-name="Path 563" d="M335.8,284.443v-.136h.155v.124h.155l.056-.012.043-.006.037-.012.031-.012.025-.019.012-.018.012-.031v-.012h.124l-.006.043-.012.037-.019.031-.025.025Z" transform="translate(-276.86 -254.858)" fill="#b0b0b0" fill-rule="evenodd"/>
    <path id="Path_564" data-name="Path 564" d="M338.816,284.443l-.012-.13v-.006h.179l.019.136Z" transform="translate(-278.879 -254.858)" fill="#b0b0b0" fill-rule="evenodd"/>
    <path id="Path_565" data-name="Path 565" d="M334.083,284.723v.019l.019.179.049.167.087.148.105.13.13.105.148.074.161.049.173.019.173-.019.161-.049.148-.074.13-.105.105-.13.087-.148.049-.167.019-.179v-.019h-.186v.019l-.012.148-.037.136-.062.118-.08.105-.1.087-.118.068-.136.043-.142.012-.142-.012-.136-.043-.117-.068-.1-.087-.08-.105-.062-.118-.037-.136-.012-.148v-.019Z" transform="translate(-275.704 -255.138)" fill="#b0b0b0" fill-rule="evenodd"/>
    <path id="Path_566" data-name="Path 566" d="M335.8,284.723v.359h.155v-.309h.155l.186.309h.124l-.186-.309h.043l.043-.012.037-.012.031-.025H335.8Z" transform="translate(-276.86 -255.138)" fill="#b0b0b0" fill-rule="evenodd"/>
  </g>
</svg>
