<svg xmlns="http://www.w3.org/2000/svg" width="48.999" height="45" viewBox="0 0 48.999 45">
  <path id="Shape_12" data-name="Shape 12" d="M588.3,465c-10.148,0-18.577,6.194-19.565,14.229C562.8,481.374,559,486.065,559,491.368a12.321,12.321,0,0,0,5.1,9.6v7.277a1.768,1.768,0,0,0,2.963,1.292l5.631-5.127a18.665,18.665,0,0,0,2.781.188c6.649,0,12.661-3.249,15.2-8.146.414-.039.793-.082,1.151-.132l6.991,6.359a1.775,1.775,0,0,0,2.5-.094,1.744,1.744,0,0,0,.471-1.194v-9.08A14.52,14.52,0,0,0,608,480.788C607.99,472.082,599.153,465,588.3,465Zm10.714,24.958a1.752,1.752,0,0,0-.777,1.453v5.968l-4.666-4.242a1.767,1.767,0,0,0-1.2-.469h-.229l-.1.018a19.7,19.7,0,0,1-3.547.326,18.54,18.54,0,0,1-12.214-4.048,12.785,12.785,0,0,1-3.951-6.144,9.333,9.333,0,0,1-.247-2.059C572.137,474,579.411,468.5,588.3,468.5c8.91,0,16.159,5.508,16.159,12.278C604.458,484.276,602.474,487.621,599.014,489.957Zm-23.54,11.127h0a16.287,16.287,0,0,1-3.021-.271,1.791,1.791,0,0,0-1.516.429l-3.294,3.015v-4.22a1.753,1.753,0,0,0-.779-1.452,8.9,8.9,0,0,1-4.33-7.26c0-3.418,2.426-6.595,6.282-8.357q.062.313.141.618a14.717,14.717,0,0,0,4.823,7.793c.85.8,5.1,4.437,12.7,5.063C584.145,499.306,580.023,501.084,575.474,501.084Z" transform="translate(-559.001 -465)" fill="#fff"/>
</svg>
