<svg xmlns="http://www.w3.org/2000/svg" width="66.327" height="25.901" viewBox="0 0 66.327 25.901">
  <g id="Group_13730" data-name="Group 13730" transform="translate(0.024 0.024)">
    <path id="Path_498" data-name="Path 498" d="M267.884,431.071c0-7.14,14.836-12.927,33.139-12.927s33.139,5.788,33.139,12.927S319.326,444,301.023,444,267.884,438.209,267.884,431.071Z" transform="translate(-267.884 -418.144)" fill="#b0b0b0"/>
    <path id="Path_499" data-name="Path 499" d="M267.884,431.071c0-7.14,14.836-12.927,33.139-12.927s33.139,5.788,33.139,12.927S319.326,444,301.023,444,267.884,438.209,267.884,431.071Z" transform="translate(-267.884 -418.144)" fill="none" stroke="#005681" stroke-miterlimit="3.864" stroke-width="0.049"/>
    <path id="Path_500" data-name="Path 500" d="M273.9,434.14l3.44-12.839h5.428v7.552h.035l3.683-7.552H292l-3.44,12.839H284.98l2.205-8.235h-.036l-4.379,8.235H279.9V425.9h-.058l-2.205,8.235Z" transform="translate(-261.758 -414.93)" fill="#fff" fill-rule="evenodd"/>
    <path id="Path_501" data-name="Path 501" d="M283.354,428.71l.488-1.825H287.8l-.489,1.825Z" transform="translate(-252.136 -409.246)" fill="#fff" fill-rule="evenodd"/>
    <path id="Path_502" data-name="Path 502" d="M284.468,432.057l2-7.465h-3.6l.882-3.291H294.9l-.882,3.291h-3.6l-2,7.463Z" transform="translate(-252.626 -414.93)" fill="#fff" fill-rule="evenodd"/>
    <path id="Path_503" data-name="Path 503" d="M287.567,434.14l3.438-12.839h3.885l1.753,6.87h.035l1.84-6.87h3.591l-3.438,12.839h-3.7l-1.9-7.012h-.034l-1.878,7.012Z" transform="translate(-247.847 -414.93)" fill="#fff" fill-rule="evenodd"/>
  </g>
</svg>
