<svg xmlns="http://www.w3.org/2000/svg" width="13.516" height="14.51" viewBox="0 0 13.516 14.51"><path d="M6.694,14.51a3.242,3.242,0,0,1-1.706-.523C3.889,13.31,2.761,12.642,1.634,12A3.023,3.023,0,0,1,0,9.1c.041-1.285.059-2.59.055-3.877A3.026,3.026,0,0,1,1.772,2.366c1.136-.6,2.283-1.241,3.409-1.89A3.273,3.273,0,0,1,6.823,0,3.241,3.241,0,0,1,8.529.523c1.1.679,2.231,1.347,3.353,1.986a3.025,3.025,0,0,1,1.632,2.9C13.473,6.7,13.455,8,13.459,9.288a3.026,3.026,0,0,1-1.715,2.855c-1.127.6-2.274,1.235-3.409,1.89A3.273,3.273,0,0,1,6.694,14.51ZM3.448,9.049h0l-.4,1.791a.18.18,0,0,0,.174.219.183.183,0,0,0,.043-.005l1.762-.426L3.448,9.049ZM7.877,4.627h0l-4,4L5.456,10.2l4-4L7.877,4.627ZM9.458,3.339a.7.7,0,0,0-.494.2l-.675.674L9.869,5.795l.788-.786a.537.537,0,0,0,0-.762l-.705-.7A.7.7,0,0,0,9.458,3.339Z"/></svg>