<svg xmlns="http://www.w3.org/2000/svg" width="109.096" height="117.411" viewBox="0 0 109.096 117.411">
  <g id="Polygon_1" data-name="Polygon 1" transform="translate(-17.575 -486.501)" fill="none" stroke-linejoin="round">
    <path d="M111.054,581.875q-12.987,7.327-25.713,15.1t-25.578.211q-12.852-7.56-25.959-14.671t-12.972-22q.135-14.887-.247-29.769t12.606-22.209q12.987-7.327,25.713-15.1t25.578-.211q12.852,7.56,25.959,14.671t12.972,22q-.135,14.886.247,29.769T111.054,581.875Z" stroke="none"/>
    <path d="M 72.40814971923828 600.9114379882812 C 76.72967529296875 600.9114379882812 81.04154205322266 599.59814453125 85.34129333496094 596.972412109375 C 93.82479095458984 591.7916870117188 102.3956756591797 586.7591552734375 111.0538558959961 581.874755859375 C 119.7121047973633 576.9903564453125 123.9139709472656 569.58740234375 123.6594390869141 559.6658935546875 C 123.4049606323242 549.7444458007812 123.322639465332 539.8215942382812 123.4126434326172 529.8972778320312 C 123.5025939941406 519.972900390625 119.1785736083984 512.640380859375 110.440544128418 507.8994750976562 C 101.702522277832 503.15869140625 93.04937744140625 498.2683715820312 84.48114013671875 493.2284545898438 C 80.25558471679688 490.7429504394531 76.0416259765625 489.5005493164062 71.83667755126953 489.5005493164062 C 67.51514434814453 489.5005493164062 63.20320892333984 490.8138427734375 58.90347290039062 493.4396057128906 C 50.41999053955078 498.6203002929688 41.84910583496094 503.65283203125 33.19085693359375 508.5372619628906 C 24.53267478942871 513.4216918945312 20.33080673217773 520.8245849609375 20.58529090881348 530.74609375 C 20.83982467651367 540.6676025390625 20.92209053039551 550.5904541015625 20.83213996887207 560.5148315429688 C 20.74213981628418 570.4390869140625 25.06615829467773 577.771728515625 33.80422592163086 582.512451171875 C 42.54224014282227 587.2532958984375 51.19533920288086 592.1436767578125 59.76364135742188 597.1834716796875 C 63.98918533325195 599.6690063476562 68.20320892333984 600.9114379882812 72.40814971923828 600.9114379882812 M 72.40815734863281 603.9114379882812 C 67.68120574951172 603.9114379882812 62.91522598266602 602.517822265625 58.24262237548828 599.769287109375 C 49.74264144897461 594.7697143554688 41.03902435302734 589.850830078125 32.37357330322266 585.1493530273438 C 27.53990745544434 582.5269165039062 23.85575675964355 579.1058959960938 21.42350769042969 574.9813232421875 C 18.99072456359863 570.8558959960938 17.78245735168457 565.9794921875 17.8322582244873 560.4876098632812 C 17.9214916229248 550.6437377929688 17.83872413635254 540.6631469726562 17.58627319335938 530.822998046875 C 17.44545745849609 525.3327026367188 18.57272338867188 520.4369506835938 20.93679046630859 516.2719116210938 C 23.30034065246582 512.1077880859375 26.9272575378418 508.6263732910156 31.71682357788086 505.9243469238281 C 40.30547332763672 501.0791931152344 48.92632293701172 496.0173034667969 57.33992385864258 490.8792724609375 C 62.09772491455078 487.9737854003906 66.97514343261719 486.5005493164062 71.83667755126953 486.5005493164062 C 76.56359100341797 486.5005493164062 81.32955932617188 487.8941650390625 86.00215911865234 490.6426391601562 C 94.49997711181641 495.64111328125 103.2035751342773 500.5599975585938 111.8711929321289 505.2625732421875 C 116.7048873901367 507.8851318359375 120.3890075683594 511.3061828613281 122.8212203979492 515.4306640625 C 125.2540054321289 519.55615234375 126.462287902832 524.4325561523438 126.4125213623047 529.9244384765625 C 126.3232574462891 539.7664184570312 126.406005859375 549.7470092773438 126.6584548950195 559.5889892578125 C 126.7993087768555 565.0792846679688 125.6720428466797 569.9750366210938 123.307975769043 574.14013671875 C 120.9444274902344 578.3042602539062 117.3174743652344 581.7857055664062 112.5278778076172 584.4876708984375 C 103.9394378662109 589.3327026367188 95.31861114501953 594.3945922851562 86.90483856201172 599.53271484375 C 82.14704132080078 602.438232421875 77.26966094970703 603.9114379882812 72.40815734863281 603.9114379882812 Z" stroke="none" fill="#efeeee"/>
  </g>
</svg>
