<svg xmlns="http://www.w3.org/2000/svg" width="118.381" height="127.122" viewBox="0 0 118.381 127.122">
  <g id="Group_13511" data-name="Group 13511" transform="translate(-91.261 -148.142)">
    <g id="Polygon_1" data-name="Polygon 1" transform="translate(-165.043 -333.503)" fill="none" stroke-linejoin="round">
      <path d="M354.427,581.875q-12.987,7.327-25.713,15.1t-25.578.211q-12.852-7.56-25.959-14.671t-12.972-22q.135-14.887-.247-29.769t12.606-22.209q12.987-7.327,25.713-15.1t25.578-.211q12.852,7.56,25.959,14.671t12.972,22q-.135,14.886.247,29.769T354.427,581.875Z" stroke="none"/>
      <path d="M 315.7809143066406 600.9114379882812 C 320.1024475097656 600.9114379882812 324.414306640625 599.59814453125 328.7140502929688 596.972412109375 C 337.1976013183594 591.7916870117188 345.7684326171875 586.7591552734375 354.4266967773438 581.874755859375 C 363.0848693847656 576.9903564453125 367.2867126464844 569.58740234375 367.0321960449219 559.6658935546875 C 366.7777099609375 549.7444458007812 366.6954345703125 539.8215942382812 366.785400390625 529.8972778320312 C 366.8753662109375 519.972900390625 362.5513305664062 512.640380859375 353.8133239746094 507.8994750976562 C 345.0752868652344 503.15869140625 336.4221496582031 498.2683715820312 327.8538818359375 493.2284545898438 C 323.6283569335938 490.7429504394531 319.4143981933594 489.5005493164062 315.20947265625 489.5005493164062 C 310.8879699707031 489.5005493164062 306.5760192871094 490.8138427734375 302.2762451171875 493.4396057128906 C 293.7927551269531 498.6203002929688 285.2218627929688 503.65283203125 276.5636901855469 508.5372619628906 C 267.9053955078125 513.4216918945312 263.7035522460938 520.8245849609375 263.9580993652344 530.74609375 C 264.2125854492188 540.6676025390625 264.2948303222656 550.5904541015625 264.2048950195312 560.5148315429688 C 264.1149291992188 570.4390869140625 268.4389953613281 577.771728515625 277.177001953125 582.512451171875 C 285.9150085449219 587.2532958984375 294.5681457519531 592.1436767578125 303.1364135742188 597.1834716796875 C 307.3619689941406 599.6690063476562 311.5759887695312 600.9114379882812 315.7809143066406 600.9114379882812 M 315.7809143066406 603.9114379882812 C 311.0539855957031 603.9114379882812 306.2879943847656 602.517822265625 301.6153869628906 599.769287109375 C 293.1158447265625 594.7698974609375 284.4122314453125 589.85107421875 275.746337890625 585.1493530273438 C 270.9126892089844 582.5269165039062 267.2285766601562 579.1058959960938 264.7963256835938 574.9813232421875 C 262.363525390625 570.8558959960938 261.1552429199219 565.9794921875 261.2050170898438 560.4876098632812 C 261.2942199707031 550.6437377929688 261.2114868164062 540.6631469726562 260.9590759277344 530.822998046875 C 260.8182067871094 525.3327026367188 261.9454956054688 520.4369506835938 264.3095397949219 516.2719116210938 C 266.673095703125 512.1077880859375 270.300048828125 508.6263427734375 275.0896911621094 505.9243469238281 C 283.6785278320312 501.0790405273438 292.2993469238281 496.0171203613281 300.7127075195312 490.8792724609375 C 305.4705505371094 487.9737854003906 310.3479614257812 486.5005493164062 315.20947265625 486.5005493164062 C 319.9363708496094 486.5005493164062 324.7023315429688 487.8941650390625 329.3749084472656 490.6426391601562 C 337.8731384277344 495.641357421875 346.5767822265625 500.5602416992188 355.2439575195312 505.2625732421875 C 360.0776672363281 507.8851318359375 363.7617797851562 511.3061828613281 366.1940002441406 515.4306640625 C 368.6267700195312 519.55615234375 369.8350524902344 524.4325561523438 369.7852783203125 529.9244995117188 C 369.696044921875 539.7673950195312 369.77880859375 549.7479248046875 370.0312194824219 559.5889892578125 C 370.1720581054688 565.0792846679688 369.0447998046875 569.9750366210938 366.6807250976562 574.14013671875 C 364.3171997070312 578.3042602539062 360.6902770996094 581.7857055664062 355.9007263183594 584.4876708984375 C 347.313232421875 589.3321533203125 338.6923522949219 594.39404296875 330.277587890625 599.53271484375 C 325.5198059082031 602.438232421875 320.6424255371094 603.9114379882812 315.7809143066406 603.9114379882812 Z" stroke="none" fill="#c4932f"/>
    </g>
    <g id="Polygon_1-2" data-name="Polygon 1" transform="translate(-167.686 -336.359)" fill="none" stroke-linejoin="round">
      <path d="M359.065,586.61q-13.653,7.7-27.031,15.872t-26.889.222q-13.511-7.947-27.29-15.423t-13.637-23.125q.142-15.65-.259-31.295t13.252-23.347q13.653-7.7,27.031-15.872t26.889-.222q13.511,7.948,27.29,15.423t13.637,23.126q-.142,15.65.259,31.295T359.065,586.61Z" stroke="none"/>
      <path d="M 318.4381408691406 606.6229858398438 C 322.981201171875 606.6229858398438 327.51416015625 605.2423706054688 332.0343322753906 602.4819946289062 C 340.9528198242188 597.0357055664062 349.9630126953125 591.7451782226562 359.0651550292969 586.6104125976562 C 368.1671752929688 581.4755859375 372.5844421386719 573.693115234375 372.3168640136719 563.2630004882812 C 372.0493469238281 552.8328857421875 371.9628601074219 542.4013671875 372.0574035644531 531.96826171875 C 372.1520080566406 521.5350952148438 367.6062927246094 513.82666015625 358.4203491210938 508.8426513671875 C 349.2343444824219 503.85888671875 340.1376037597656 498.7178649902344 331.1300659179688 493.4195251464844 C 326.6879272460938 490.8066101074219 322.2580261230469 489.5005798339844 317.8375244140625 489.5005798339844 C 313.2944641113281 489.5005798339844 308.7613830566406 490.8811950683594 304.2411804199219 493.6415710449219 C 295.3227844238281 499.0877990722656 286.3125305175781 504.3783569335938 277.2104797363281 509.5131530761719 C 268.1083068847656 514.6480712890625 263.6910400390625 522.430419921875 263.9586791992188 532.860595703125 C 264.2261962890625 543.2907104492188 264.3126525878906 553.7222900390625 264.2181091308594 564.1554565429688 C 264.12353515625 574.5884399414062 268.6692810058594 582.2969970703125 277.855224609375 587.28076171875 C 287.0411987304688 592.2646484375 296.1379699707031 597.40576171875 305.1454772949219 602.7039184570312 C 309.587646484375 605.31689453125 314.0176391601562 606.6229858398438 318.4381408691406 606.6229858398438 M 318.4381713867188 611.6229858398438 C 313.1352844238281 611.6229858398438 307.8100891113281 610.0721435546875 302.6104431152344 607.0136108398438 C 293.6934204101562 601.7686767578125 284.5622863769531 596.6082153320312 275.4707946777344 591.6755981445312 C 270.0908508300781 588.7567749023438 265.9790344238281 584.929931640625 263.2495422363281 580.3013916015625 C 260.5191955566406 575.6713256835938 259.1629028320312 570.2238159179688 259.2183227539062 564.110107421875 C 259.3118896484375 553.7827758789062 259.22509765625 543.31201171875 258.9603271484375 532.98876953125 C 258.803466796875 526.8768310546875 260.0692749023438 521.4075927734375 262.7225036621094 516.7330322265625 C 265.3748779296875 512.06005859375 269.4227600097656 508.165771484375 274.7537231445312 505.1583251953125 C 283.7626647949219 500.0760803222656 292.8069152832031 494.7655944824219 301.6352844238281 489.3743286132812 C 306.9310607910156 486.1403198242188 312.3822631835938 484.5005798339844 317.8375244140625 484.5005798339844 C 323.1403503417969 484.5005798339844 328.4655151367188 486.0513610839844 333.6651306152344 489.1098022460938 C 342.5808410644531 494.3541564941406 351.7119445800781 499.5146179199219 360.8047485351562 504.4477844238281 C 366.1847839355469 507.3668823242188 370.2966003417969 511.1937561035156 373.0260009765625 515.822265625 C 375.75634765625 520.4523315429688 377.1126403808594 525.89990234375 377.0571899414062 532.0136108398438 C 376.963623046875 542.340087890625 377.0504455566406 552.810791015625 377.3152465820312 563.1348266601562 C 377.4720153808594 569.2467651367188 376.2062072753906 574.7160034179688 373.5530090332031 579.3905029296875 C 370.900634765625 584.0635375976562 366.852783203125 587.9578247070312 361.5218811035156 590.9652099609375 C 352.5130615234375 596.04736328125 343.4687805175781 601.3578491210938 334.6402282714844 606.7492065429688 C 329.3445434570312 609.9832153320312 323.8933715820312 611.6229858398438 318.4381713867188 611.6229858398438 Z" stroke="none" fill="#f9f9f9"/>
    </g>
    <path id="Polygon_1-3" data-name="Polygon 1" d="M354.426,581.874q-12.987,7.327-25.712,15.1t-25.577.211q-12.852-7.56-25.959-14.671t-12.972-22q.135-14.887-.247-29.769t12.605-22.209q12.987-7.327,25.712-15.1t25.577-.211q12.852,7.56,25.959,14.671t12.972,22q-.135,14.886.247,29.768T354.426,581.874Z" transform="translate(-165.043 -333.503)" opacity="0.5"/>
  </g>
</svg>
