<svg xmlns="http://www.w3.org/2000/svg" width="45" height="45" viewBox="0 0 45 45"><defs><style>.a{fill:#fff;}</style></defs><path class="a" d="M0,22.5a22.5,22.5,0,1,1,45,.007c0,4.7-2.291,10.7-7.409,13.518a12.216,12.216,0,0,1-9.981.792l-.543-.185h0l-.365-.125-.138-.052-.057-.021-.13-.048h0a19.235,19.235,0,0,1-3.812-1.992,41.352,41.352,0,0,1-6.426-5.735l-.014.007a.749.749,0,0,0-.118-.127c-.04-.045-.086-.084-.126-.124l.007-.007q-2.261-2.342-4.371-4.819c-3.688-4.327-3.2-10.141.571-12.531a3.662,3.662,0,0,1,.487-.322,21.7,21.7,0,0,1,3.392-.745c1.436-.329,4.241,6.283,2.449,6.856a17.042,17.042,0,0,0-3.312.94c-.494.369-.263,1.285.224,1.858,1.284,1.509,3.174,3.188,4.663,4.663.039.039.086.084.125.125s.086.086.124.125c1.475,1.488,3.154,3.378,4.663,4.663.573.487,1.482.718,1.858.224a17.07,17.07,0,0,0,.94-3.312c.573-1.792,7.184,1.013,6.856,2.442a21.569,21.569,0,0,1-.745,3.4,3.461,3.461,0,0,1-.322.487,6.3,6.3,0,0,1-1.133,1.309,7.828,7.828,0,0,0,3.461-.956c3.245-1.784,5.511-6.023,5.511-10.31A18.833,18.833,0,1,0,22.5,41.333,1.834,1.834,0,0,1,22.5,45,22.524,22.524,0,0,1,0,22.5Zm35.528.494A13.312,13.312,0,0,0,22.233,9.7V7.456a15.555,15.555,0,0,1,15.54,15.538Zm-3.879,0a9.422,9.422,0,0,0-9.416-9.416V11.334A11.671,11.671,0,0,1,33.894,22.995Z"/></svg>