<svg xmlns="http://www.w3.org/2000/svg" width="51.425" height="30.417" viewBox="0 0 51.425 30.417"><defs><style>.a{opacity:0.502;}</style></defs><path class="a" d="M238.8,283.4l0-.008-2.225-4.87a3,3,0,0,0-.7-5.921H209.26a1.006,1.006,0,0,0-.79.383l-7.734,9.822h-8.249a5.018,5.018,0,0,0-5.022,5v6.2a5.018,5.018,0,0,0,5.022,5h.145a6.033,6.033,0,0,0,11.362,0h16.56a6.033,6.033,0,0,0,11.362,0h1.953a5.018,5.018,0,0,0,5.022-5s0-10.226,0-10.236A1.007,1.007,0,0,0,238.8,283.4Zm-44.786,1.407-1.205,3h-3.337a3.011,3.011,0,0,1,3.013-3Zm-1.73,12.2a3.018,3.018,0,0,1-2.64-1.993h2.986A5.956,5.956,0,0,0,192.286,297.006Zm1.539-3.994h-4.352v-3.2h4.018a1,1,0,0,0,.933-.629l1.756-4.374h4.343l.748,6.981a6.027,6.027,0,0,0-7.446,1.224Zm4.487,8a4,4,0,1,1,4.018-4A4.014,4.014,0,0,1,198.312,301.016Zm32.04-26.414h5.524a1,1,0,1,1,0,2h-5.524Zm-.273,4H234.4l1.92,4.2h-7.606Zm-1.736-4v2.844l-1.736,5.36h-9.477l2.422-8.2Zm-18.595,0h7.711l-2.422,8.2H203.289Zm-6.326,18.41-.88-8.2h12.241v8.2Zm16.785,4H204.339a5.954,5.954,0,0,0-.346-2h16.56A5.954,5.954,0,0,0,220.208,297.014Zm6.026,4a4,4,0,1,1,4.018-4A4.014,4.014,0,0,1,226.234,301.016Zm7.633-4h-1.607a5.953,5.953,0,0,0-.346-2h4.794A3.018,3.018,0,0,1,233.868,297.014Zm3.013-4h-2.009v-3h2.009Zm0-5h-3.013a1,1,0,0,0-1,1v4h-2.142a6.031,6.031,0,0,0-8.974,0h-4.954v-8.2h20.088Z" transform="translate(-187.465 -272.601)"/></svg>