<svg xmlns="http://www.w3.org/2000/svg" width="45" height="45.005" viewBox="0 0 45 45.005"><defs><style>.a{fill:#fff;}</style></defs><path class="a" d="M610.1,974.658l-5.423-1.015a17.168,17.168,0,0,0-1.295-3.14l3.135-4.586a1.158,1.158,0,0,0-.136-1.423l-3.867-3.872a1.159,1.159,0,0,0-1.423-.131l-4.59,3.14a16.62,16.62,0,0,0-3.231-1.323l-1.01-5.394a1.167,1.167,0,0,0-1.1-.914h-5.471a1.163,1.163,0,0,0-1.1.914l-1.023,5.449a16.921,16.921,0,0,0-3.1,1.295l-4.527-3.1a1.163,1.163,0,0,0-1.426.133l-3.867,3.867a1.164,1.164,0,0,0-.133,1.427l3.118,4.559a16.808,16.808,0,0,0-1.277,3.1l-5.421,1.015a1.17,1.17,0,0,0-.913,1.1v5.472a1.164,1.164,0,0,0,.913,1.1l5.417,1.018a17.132,17.132,0,0,0,1.3,3.164l-3.081,4.509a1.16,1.16,0,0,0,.131,1.423l3.868,3.872a1.171,1.171,0,0,0,1.426.131l4.5-3.086a16.631,16.631,0,0,0,3.072,1.281l1.018,5.445a1.167,1.167,0,0,0,1.1.913h5.467a1.162,1.162,0,0,0,1.1-.913l1.014-5.4a16.69,16.69,0,0,0,3.2-1.3l4.562,3.123a1.158,1.158,0,0,0,1.423-.133l3.867-3.868a1.164,1.164,0,0,0,.137-1.422l-3.1-4.541a17.1,17.1,0,0,0,1.322-3.2l5.418-1.018a1.164,1.164,0,0,0,.913-1.1v-5.472a1.171,1.171,0,0,0-.913-1.1Zm-21.587,13.235A9.388,9.388,0,1,1,597.9,978.5a9.39,9.39,0,0,1-9.384,9.391Zm0,0" transform="translate(-566.014 -955.999)"/></svg>