<svg xmlns="http://www.w3.org/2000/svg" width="57.822" height="23.303" viewBox="0 0 57.822 23.303"><defs><style>.a{opacity:0.502;}</style></defs><path class="a" d="M43.657,22.721A5.814,5.814,0,0,1,40.7,19.452H15.2a5.845,5.845,0,0,1-10.986,0H1.069A1.072,1.072,0,0,1,0,18.381v-5.71a4.512,4.512,0,0,1,2.257-3.9,22.819,22.819,0,0,1,11-3l3.268-1.785A32.786,32.786,0,0,1,32.164,0H33.3a32.217,32.217,0,0,1,13.42,2.895,33.073,33.073,0,0,1,3.688,1.956l6.5.93a1.076,1.076,0,0,1,.918,1.06v7.79a3.723,3.723,0,0,1-2.363,3.5l-3.109,1.25a1.075,1.075,0,0,1-.4.076h-.268a5.836,5.836,0,0,1-8.028,3.269Zm-37.6-6.05a3.726,3.726,0,1,0,3.655-2.99A3.718,3.718,0,0,0,6.054,16.671ZM44.136,14.3a3.735,3.735,0,1,0,5.712,3.867h0a3.738,3.738,0,0,0-3.663-4.488A3.7,3.7,0,0,0,44.136,14.3ZM15.578,17.31H30.722v-9.4H13.55A20.658,20.658,0,0,0,3.319,10.634a2.357,2.357,0,0,0-1.181,2.037V17.31h1.7a5.869,5.869,0,0,1,11.737,0Zm17.283,0h7.466a5.869,5.869,0,0,1,6.465-5.74c.045,0,.089.012.132.019l.082.013.1.015c.086.011.175.024.263.041.045.009.088.021.131.033l.09.024.09.022c.082.02.167.04.25.065.054.017.1.034.149.054l.1.036.078.028c.075.026.152.054.216.081s.108.049.161.076l.082.04.065.031c.069.032.141.066.2.1.083.044.153.089.236.142.041.026.081.05.121.074s.085.05.126.077c.059.04.115.082.168.123l.06.046.073.053c.049.036.1.072.152.116s.091.081.134.122l.079.073.054.047c.048.042.1.086.149.138.035.035.07.075.1.114s.059.067.087.1l.015.015c.054.055.11.113.169.184s.1.127.142.186l.036.048.056.074c.034.045.068.09.1.141.064.093.12.188.156.252.02.034.04.067.061.1s.053.084.079.13.06.119.088.178c.013.027.026.055.039.081s.025.05.038.074a1.918,1.918,0,0,1,.085.182c.019.049.037.1.055.148l.042.117.027.073c.024.063.048.128.07.2s.034.12.049.179c.008.033.016.066.026.1l.014.054c.021.076.043.155.059.228s.024.131.033.2c0,.03.009.06.014.09s.01.061.015.091c.011.066.023.134.03.2s.009.13.012.193c0,.035,0,.068.006.1s0,.055.007.082c0,.01,0,.021,0,.031l2.612-1.052a1.6,1.6,0,0,0,1.019-1.5V10.8H52.8V8.655h2.881V7.769l-5.8-.83a1.056,1.056,0,0,1-.415-.152A30.781,30.781,0,0,0,46.5,5.159L44.068,7.6a1.074,1.074,0,0,1-.756.313H32.861Zm0-11.539H42.87L44.4,4.241a30.1,30.1,0,0,0-11.068-2.1H32.86Zm-15.115,0H30.722V2.189A30.724,30.724,0,0,0,17.745,5.77ZM24,10.8V8.657h4.061V10.8Z" transform="translate(0 0)"/></svg>