<svg xmlns="http://www.w3.org/2000/svg" width="33.81" height="45.08" viewBox="0 0 33.81 45.08"><defs><style>.a{fill:#fff;}</style></defs><g transform="translate(-179 -545)"><path class="a" d="M390.4,1128.12l-2.878,1.587c-.385.213-.64.029-.569-.4l.556-3.387-2.337-2.383c-.308-.314-.2-.623.232-.689l3.21-.486,1.446-3.074c.188-.4.493-.4.681,0l1.446,3.074,3.21.486c.436.066.538.377.232.689l-2.337,2.383.557,3.387c.071.433-.182.613-.569.4Z" transform="translate(-194.491 -562.853)"/><path class="a" d="M19.9,0A16.986,16.986,0,0,0,3,17.027c0,13.342,15.316,27.117,15.968,27.7a1.412,1.412,0,0,0,1.875,0c.652-.58,15.968-14.356,15.968-27.7A16.986,16.986,0,0,0,19.9,0Zm0,26.3A9.392,9.392,0,1,1,29.3,16.9,9.4,9.4,0,0,1,19.9,26.3Z" transform="translate(176 545)"/></g></svg>