<svg id="Group_13445" data-name="Group 13445" xmlns="http://www.w3.org/2000/svg" xmlns:xlink="http://www.w3.org/1999/xlink" width="315.997" height="208.003" viewBox="0 0 315.997 208.003">
  <defs>
    <clipPath id="clip-path">
      <rect id="Rectangle_155" data-name="Rectangle 155" width="315.997" height="208.003" fill="none"/>
    </clipPath>
  </defs>
  <g id="Group_13444" data-name="Group 13444" clip-path="url(#clip-path)">
    <path id="Path_287" data-name="Path 287" d="M295.137,161.187c-5.422,7.3-20.4,25.8-49.8,40.458q-3.732,1.861-7.777,3.631-2.708,1.18-5.408,2.248H94.983c-4.286-1.54-7.16-2.761-8.361-3.285-1.615-.705-3.582-1.563-5.834-2.593-18.1-8.282-54.447-27.605-71.625-66.393C1.85,118.735-4.447,98.247,4.149,87.705c9.164-11.238,15.789-3.906,43.916-4.841,17.3-.576,26.467-1,33.888-7.262,8.825-7.443,4.609-16.159,10.892-34.234,2.1-6.048,12.07-35.951,32.159-40.458,26.972-6.052,42.673,19.909,46.683,24.033,26.429,27.187,14.226,50.17,38.384,66.739,10.04,6.886,21.735,8.048,45.126,10.374,36.987,3.678,51.3-4.546,58.093,4.149,11.388,14.574-16.764,53.107-18.154,54.982" transform="translate(0 0)" fill="#c4932f" opacity="0.05"/>
    <path id="Path_288" data-name="Path 288" d="M136.318,789.854a91.933,91.933,0,0,1-32.375-9.436,120.863,120.863,0,0,1-24.56-16.406,131.369,131.369,0,0,1-21.054-22.5l.427-.294a130.863,130.863,0,0,0,20.975,22.41c12.274,10.466,32.063,23.423,56.635,25.711Z" transform="translate(-46.164 -586.629)" fill="#e2ac3c"/>
    <path id="Path_289" data-name="Path 289" d="M16.688,681.013S1.523,668.977,6.072,664.6s10.616,16.409,10.616,16.409" transform="translate(-4.132 -525.516)" fill="#e2ac3c"/>
    <path id="Path_290" data-name="Path 290" d="M39.694,773.737s-19.357.327-18.62-5.94,18.62,5.94,18.62,5.94" transform="translate(-16.663 -606.25)" fill="#e2ac3c"/>
    <path id="Path_291" data-name="Path 291" d="M93.58,833.108s-19.2,2.491-19.168-3.819,19.168,3.819,19.168,3.819" transform="translate(-58.893 -654.695)" fill="#e2ac3c"/>
    <path id="Path_292" data-name="Path 292" d="M143.175,782.938s-10.083-16.527-4.306-19.064,4.306,19.064,4.306,19.064" transform="translate(-108.493 -604.397)" fill="#e2ac3c"/>
    <path id="Path_293" data-name="Path 293" d="M149.672,882.106s-18.848,4.425-19.456-1.856,19.456,1.856,19.456,1.856" transform="translate(-103.047 -694.782)" fill="#e2ac3c"/>
    <path id="Path_294" data-name="Path 294" d="M199.591,825.1s-10.031-16.559-4.245-19.078,4.245,19.078,4.245,19.078" transform="translate(-153.181 -637.755)" fill="#e2ac3c"/>
    <path id="Path_295" data-name="Path 295" d="M248.7,870.558s-15.164-12.036-10.616-16.409S248.7,870.558,248.7,870.558" transform="translate(-187.757 -675.53)" fill="#e2ac3c"/>
    <path id="Path_296" data-name="Path 296" d="M218.3,927.68s-17.61,8.043-19.441,2,19.441-2,19.441-2" transform="translate(-157.299 -733.16)" fill="#e2ac3c"/>
    <path id="Path_297" data-name="Path 297" d="M316.818,895.876s-15.164-12.036-10.616-16.409,10.616,16.409,10.616,16.409" transform="translate(-241.667 -695.568)" fill="#e2ac3c"/>
    <path id="Path_298" data-name="Path 298" d="M288.425,958.206s-16.678,9.831-19.127,4.016,19.127-4.016,19.127-4.016" transform="translate(-212.98 -758.155)" fill="#e2ac3c"/>
    <path id="Path_299" data-name="Path 299" d="M96.392,728.73s-7.387-17.895-1.284-19.5,1.284,19.5,1.284,19.5" transform="translate(-73.361 -561.243)" fill="#e2ac3c"/>
    <path id="Path_300" data-name="Path 300" d="M996.921,382.41c-8.36,13.709-17.066,13.984-22.387,23.9-5.452,10.159,5.73,18.744-.071,30.658-1.217,2.5-2.516,4.021-3.123,7.331-1.1,5.958,1.183,11.516,3.67,15.646a2.234,2.234,0,0,0,1.208.966,1.389,1.389,0,0,0,.144.043,2.234,2.234,0,0,0,1.518-.131,17.782,17.782,0,0,0,8.426-7.394c2.774-5.128.684-8.816,1.348-15.016.349-3.242,1.405-6.775,15.647-24.458,12.553-15.587,13.482-15.018,15.726-20.04,4.51-10.1.492-11.809,4.649-24.8,4.238-13.24,9.517-14.9,10.957-26.653.488-3.989,1.69-13.79-3.326-16.907-.039-.024-.08-.049-.121-.071s-.095-.056-.143-.083c-4.385-2.418-11.784.73-16.258,4.985-6.837,6.5-4.492,13.328-10.334,32.72-2.762,9.17-4.146,13.755-7.529,19.305" transform="translate(-768.535 -256.869)" fill="#e2ac3c"/>
    <path id="Path_301" data-name="Path 301" d="M1048.266,328.588a77.3,77.3,0,0,0-8.049,10.815,67.116,67.116,0,0,0-8.124,19.161l-.305,1.27c-.086.427-.161.855-.242,1.283l-.241,1.285-.182,1.293c-.055.432-.127.862-.172,1.295l-.132,1.3c-.1.867-.144,1.737-.212,2.605a77.3,77.3,0,0,1-1.052,10.371,35.552,35.552,0,0,1-3.629,9.731,36.968,36.968,0,0,1-6.112,8.4,38.669,38.669,0,0,1-3.884,3.467c-1.368,1.072-2.8,2.065-4.243,3.034s-2.905,1.92-4.307,2.953a28.353,28.353,0,0,0-3.951,3.418,19.021,19.021,0,0,0-3.016,4.258,23.19,23.19,0,0,0-1.847,4.884,24.588,24.588,0,0,0-.517,2.563,22.773,22.773,0,0,0-.211,2.607q-.025,1.307.079,2.612c.073.868.178,1.734.3,2.6.25,1.724.566,3.437.8,5.159a42.246,42.246,0,0,1,.416,5.2,41.644,41.644,0,0,1-1.234,10.329,71.428,71.428,0,0,1-4.755,13.621c-.906,1.94-.79,1.981.144.043a71.532,71.532,0,0,0,4.943-13.582,41.821,41.821,0,0,0,1.326-10.417,42.759,42.759,0,0,0-.379-5.251c-.222-1.739-.524-3.458-.76-5.168-.114-.857-.213-1.711-.277-2.566s-.079-1.707-.058-2.559a23.43,23.43,0,0,1,.216-2.541,23.87,23.87,0,0,1,.511-2.5,22.753,22.753,0,0,1,1.814-4.757,18.566,18.566,0,0,1,2.938-4.122,28.02,28.02,0,0,1,3.878-3.334c1.388-1.014,2.845-1.956,4.3-2.926s2.9-1.967,4.287-3.049a39.081,39.081,0,0,0,3.958-3.514,37.649,37.649,0,0,0,6.19-8.561,36.131,36.131,0,0,0,3.663-9.907,77.954,77.954,0,0,0,1.036-10.452,61.908,61.908,0,0,1,1.415-10.249l.292-1.261c.109-.418.237-.83.356-1.245l.359-1.245c.062-.208.116-.418.186-.62l.213-.612.85-2.451.961-2.413a71.481,71.481,0,0,1,4.711-9.253,76.747,76.747,0,0,1,7.9-10.909c-.047-.031-.1-.057-.144-.083" transform="translate(-785.759 -260.058)" fill="#fff"/>
    <path id="Path_302" data-name="Path 302" d="M950.166,671.737c-6.292,6.445-14.154,6.5-13.895,11.255a6.272,6.272,0,0,0,1.311,3.277c.054.074.107.145.161.215a14.974,14.974,0,0,0,4.481,3.778c10.836,5.958,25.641-6.239,28.284-8.416,10.045-8.277,7.814-12.767,17.6-21.532,9.253-8.286,13.182-6.01,23.906-13.5,13.1-9.143,24.9-24.875,22.475-31.51-.03-.084-.061-.163-.1-.243a4.313,4.313,0,0,0-.362-.662c-3.442-5.111-19.575-3.5-30.555,3.289-11.065,6.839-8.615,13.818-20.588,21.268-10.4,6.469-16,3.546-23.2,10.056-7.724,6.991-1.852,14.86-9.531,22.726" transform="translate(-740.999 -483.882)" fill="#b0b0b0"/>
    <path id="Path_303" data-name="Path 303" d="M913.469,704.715s15.351-.156,18.194-1.085a32.558,32.558,0,0,0,7.979-3.857A14.669,14.669,0,0,0,943,696.845,16.8,16.8,0,0,0,945.366,693c1.26-2.759,2.049-5.685,3.342-8.292a21.353,21.353,0,0,1,5.17-6.789,23.363,23.363,0,0,1,3.431-2.522,19.3,19.3,0,0,1,3.943-1.7c1.391-.444,2.839-.844,4.255-1.34a35.929,35.929,0,0,0,4.124-1.752c.653-.35,1.318-.686,1.948-1.071l.954-.563.927-.6.925-.605c.311-.2.6-.43.9-.642l.89-.657c.3-.216.573-.465.862-.7a36.827,36.827,0,0,0,6.1-6.386c1.791-2.346,3.383-4.815,5.149-7.111a47.342,47.342,0,0,1,5.82-6.389,45.142,45.142,0,0,1,6.944-5.143,52.038,52.038,0,0,1,7.846-3.833,67.671,67.671,0,0,1,8.441-2.682l.153-.036c-.03-.084-.061-.163-.1-.243l-.144.033a68,68,0,0,0-8.534,2.553,51.96,51.96,0,0,0-7.952,3.768,45.508,45.508,0,0,0-7.071,5.117,44.844,44.844,0,0,0-5.934,6.406c-1.792,2.312-3.4,4.774-5.177,7.089a36.261,36.261,0,0,1-6.038,6.268c-.283.226-.552.469-.848.68l-.882.642c-.3.21-.58.436-.889.632l-.914.592-.918.592-.944.551c-.622.38-1.276.706-1.921,1.049a36.07,36.07,0,0,1-4.043,1.736c-1.39.5-2.825.9-4.236,1.352a19.713,19.713,0,0,0-4.047,1.763,23.46,23.46,0,0,0-3.51,2.6,21.858,21.858,0,0,0-5.27,6.981,41.259,41.259,0,0,0-1.691,4.151c-.506,1.413-.993,2.834-1.6,4.192a16.423,16.423,0,0,1-2.265,3.763,14.235,14.235,0,0,1-3.236,2.886,32.287,32.287,0,0,1-7.837,3.9,35.83,35.83,0,0,1-8.784,1.794q-1.059.094-2.13.12c-.816.023-1.636.016-2.461-.009a39.061,39.061,0,0,1-4.647-.435" transform="translate(-722.957 -501.736)" fill="#fff"/>
    <path id="Path_304" data-name="Path 304" d="M309.775,314.041s16.824-25.723,1.3-44.721-13.137-19.613-14.5-32.339-4.956-25.732-15.816-29.149-5.369-13.1-20.406-13.118c0,0,9.822,19.632,7.034,30s-.776,29.022,6.412,36.683,17.488,18.635,16.95,32.6,12.978,20.472,19.027,20.035" transform="translate(-206.054 -154.105)" fill="#b0b0b0"/>
    <path id="Path_305" data-name="Path 305" d="M309.075,317.53A54.59,54.59,0,0,0,309.514,300a46.112,46.112,0,0,0-2.049-8.526l-.357-1.037c-.118-.346-.273-.678-.407-1.018l-.418-1.014-.209-.506c-.07-.168-.157-.33-.235-.5l-.959-1.972a19.128,19.128,0,0,0-1.1-1.88c-.4-.6-.847-1.185-1.283-1.778s-.871-1.188-1.3-1.788c-.856-1.2-1.681-2.421-2.5-3.639q-2.469-3.655-4.919-7.325c-1.624-2.453-3.233-4.919-4.774-7.431a83.994,83.994,0,0,1-4.283-7.748l-.468-1.006c-.155-.336-.289-.682-.435-1.022s-.292-.68-.422-1.027l-.385-1.044-.192-.522-.168-.53-.335-1.061c-.105-.356-.192-.717-.288-1.075s-.2-.715-.266-1.081a31.229,31.229,0,0,1-.777-8.85,29.45,29.45,0,0,1,.662-4.4c.316-1.447.719-2.863,1.01-4.288a20.694,20.694,0,0,0,.329-2.146,15.178,15.178,0,0,0,.033-2.157,15.612,15.612,0,0,0-.288-2.141,18.908,18.908,0,0,0-.584-2.091,30.025,30.025,0,0,0-4.159-7.661c-1.682-2.4-3.484-4.726-5.278-7.053s-3.59-4.658-5.417-6.96-3.688-4.578-5.575-6.834q2.918,3.308,5.72,6.717c1.869,2.272,3.7,4.571,5.543,6.864q1.374,1.727,2.725,3.472c.9,1.164,1.789,2.338,2.645,3.538s1.685,2.424,2.432,3.7a22.754,22.754,0,0,1,1.876,4.037,19.448,19.448,0,0,1,.625,2.148,16.177,16.177,0,0,1,.323,2.223,15.181,15.181,0,0,1-.024,2.248,21.249,21.249,0,0,1-.331,2.213c-.293,1.457-.69,2.874-1,4.3a28.791,28.791,0,0,0-.633,4.313,30.619,30.619,0,0,0,.794,8.659,39.517,39.517,0,0,0,2.939,8.217,83.293,83.293,0,0,0,4.221,7.7c1.525,2.506,3.122,4.972,4.734,7.428s3.249,4.9,4.89,7.338c.816,1.222,1.639,2.437,2.48,3.639q.627.9,1.273,1.795c.428.6.868,1.187,1.277,1.812a19.74,19.74,0,0,1,1.1,1.941l.948,2.005c.077.168.163.332.232.5l.206.514.411,1.03c.132.345.285.682.4,1.033l.349,1.052a46.067,46.067,0,0,1,1.969,8.621,50.931,50.931,0,0,1,.334,8.826l-.058,1.1c-.019.367-.06.734-.089,1.1-.054.735-.144,1.465-.232,2.2-.194,1.459-.432,2.911-.733,4.351" transform="translate(-207.136 -151.077)" fill="#fff"/>
    <path id="Path_306" data-name="Path 306" d="M141.374,474s1.592-21.425-20.011-32.646S85.194,424.595,80.2,406.941,68.581,379.128,57.47,374.77s-10.9-8.594-19.458-11.894-23.047-3.97-23.047-3.97S40.107,374.186,43.3,391.588s9.694,28.462,21.4,36.305,18.6,30.838,41.575,34.149,35.1,11.96,35.1,11.96" transform="translate(-11.844 -284.054)" fill="#e2ac3c"/>
    <path id="Path_307" data-name="Path 307" d="M136.114,474.82a49.88,49.88,0,0,0-4.864-10.3,40.821,40.821,0,0,0-7.3-8.707c-.724-.614-1.432-1.247-2.188-1.821s-1.525-1.127-2.322-1.642a52.165,52.165,0,0,0-4.973-2.77l-10.216-5.108c-3.4-1.706-6.806-3.416-10.186-5.174q-2.537-1.312-5.05-2.677c-1.672-.914-3.336-1.847-4.953-2.869a58.1,58.1,0,0,1-8.912-7.185c-.351-.324-.671-.68-1.005-1.021l-.993-1.034-.954-1.069c-.318-.356-.639-.71-.939-1.082-.611-.735-1.227-1.464-1.8-2.226-.291-.379-.591-.751-.874-1.135l-.844-1.156c-2.241-3.093-4.229-6.355-6.159-9.639-1.9-3.294-3.851-6.583-5.444-10.06-.808-1.731-1.509-3.512-2.145-5.311s-1.187-3.624-1.852-5.4a36.1,36.1,0,0,0-5.606-9.827,44.981,44.981,0,0,0-8.106-7.944A59.888,59.888,0,0,0,28.74,363.7l-1.271-.646-1.3-.586-1.3-.583c-.435-.192-.863-.4-1.31-.564L20.9,360.28l-.664-.26-.674-.231-1.35-.463-1.35-.463c-.225-.076-.449-.157-.676-.229l-.684-.2-2.736-.813c-.908-.287-1.837-.5-2.758-.738l-2.767-.7,2.775.676c.923.232,1.855.432,2.766.71l2.746.785.687.2c.228.07.452.149.678.223l1.355.45,1.355.45.678.225.668.253,2.67,1.019c.449.161.88.364,1.318.551l1.311.572,1.309.575,1.281.635a59.87,59.87,0,0,1,9.77,5.934,45.305,45.305,0,0,1,8.209,7.956,35.823,35.823,0,0,1,5.7,9.908c.675,1.791,1.227,3.614,1.865,5.4s1.335,3.553,2.14,5.271c1.587,3.448,3.532,6.721,5.443,10.012,1.932,3.275,3.92,6.52,6.152,9.592l.837,1.151c.281.383.578.752.866,1.129.57.758,1.182,1.484,1.787,2.215.3.37.615.722.931,1.076l.945,1.063.983,1.028c.332.339.648.693,1,1.015a57.641,57.641,0,0,0,8.826,7.144c1.6,1.016,3.257,1.949,4.924,2.864s3.348,1.8,5.037,2.682c3.376,1.757,6.768,3.485,10.161,5.212l10.188,5.165a52.457,52.457,0,0,1,4.984,2.813q1.2.784,2.33,1.668c.756.583,1.468,1.221,2.188,1.847a41,41,0,0,1,7.24,8.817,49.938,49.938,0,0,1,4.769,10.358" transform="translate(-5.733 -281.893)" fill="#fff"/>
    <path id="Path_308" data-name="Path 308" d="M138.833,697.884c-4.455-7.293-14.192-14.012-28.491-12.979s-22.7-8.088-27.261-16.159-16.527-17.6-16.527-17.6.141.023.428.057c.056.009.116.015.184.023a87.734,87.734,0,0,0,11.362.384c8.17-.149,13.864,8.284,21.172,8.419a39.156,39.156,0,0,1,19.866,5.637c6.461,3.734,11.222,5.381,23.728,4.033s27.37,19.212,27.37,19.212q.051,1.105.007,2.12a.6.6,0,0,1,0,.061c-.891,19.437-27.4,14.063-31.835,6.793" transform="translate(-52.674 -515.343)" fill="#b0b0b0"/>
    <path id="Path_309" data-name="Path 309" d="M172.291,691.312c-3.568-.466-7.114-1.09-10.621-1.894a103.149,103.149,0,0,1-14.254-4.38c-2.32-.9-4.6-1.9-6.852-2.95s-4.5-2.092-6.808-2.99-4.657-1.687-7.041-2.368a71.61,71.61,0,0,0-7.218-1.711c-1.22-.205-2.445-.366-3.676-.492s-2.48-.24-3.713-.47a27.445,27.445,0,0,1-3.632-.935c-.6-.188-1.181-.406-1.769-.612l-1.74-.682a42.1,42.1,0,0,1-6.629-3.463c-2.1-1.338-4.1-2.823-6.135-4.241a110.842,110.842,0,0,0-12.724-7.694q-5.307-2.77-10.874-5.008c.056.008.116.015.184.023q5.506,2.12,10.792,4.78a110.535,110.535,0,0,1,12.826,7.6l3.062,2.122L97,667.007c.516.343,1.03.689,1.552,1.018a41.917,41.917,0,0,0,6.573,3.409l1.73.672c.584.2,1.164.418,1.752.6a27.227,27.227,0,0,0,3.58.913c1.208.22,2.44.33,3.678.454s2.478.28,3.71.486a72.2,72.2,0,0,1,7.266,1.743c2.39.69,4.755,1.481,7.07,2.4s4.577,1.968,6.823,3.02,4.512,2.067,6.815,2.983A103.787,103.787,0,0,0,161.72,689.2q5.231,1.28,10.572,2.053a.591.591,0,0,1,0,.061" transform="translate(-54.297 -515.563)" fill="#fff"/>
    <path id="Path_310" data-name="Path 310" d="M542.874,345.162c7.9-.76,14.549,4.586,15.4,5.438,6.8,6.779,6.106,16.667,4.952,23.5-1.54,9.123,6.521,10.8,10.069,18.215,3.353,7.006-.6,17.91-7.954,22.5-10.113,6.3-24.108-.931-31.147-7.528-15.092-14.145-10.12-36.529-9.4-39.557.759-3.174,5.029-21.312,18.073-22.567" transform="translate(-414.273 -273.117)" fill="#464646"/>
    <path id="Path_311" data-name="Path 311" d="M591.1,418.641c-8.34-1.138-12.465-8.811-12.465-8.811s-3.9.744-4.824-4.028c-.614-3.178,3.616-6.1,5.1-.355.035,0,1.7-.019,3.129-3.761.9-2.364,1.222-5.419,4.54-4.686a4.837,4.837,0,0,0,1.113.1c3.226-.043,7.408-2.726,7.823-4.33.006-.021.01-.043.015-.064l.025.075a71.571,71.571,0,0,1,2.832,11.518c1.1,7.4.565,15.41-7.29,14.337" transform="translate(-454.093 -310.808)" fill="#ffd5c0"/>
    <path id="Path_312" data-name="Path 312" d="M572.972,458.281s-7.632,10.952-6.156,17.281-23.662,8.873-18.219-2.763,9.478-14.284,14.291-25.275,10.084,10.756,10.084,10.756" transform="translate(-433.57 -351.734)" fill="#ffd5c0"/>
    <path id="Path_313" data-name="Path 313" d="M666.671,559.93c-4.757,1.176-7.449,4.74-6.365,9.519,4.485,19.777,15.771,66.754,21.788,66.77,7.621.022,35.717,1.344,35.717,1.344l4.313-13.555-33.887,1.232L677.145,574.1c-.747-4.251-1.01-8.926-4.429-11.56-3.392-2.611-6.045-2.611-6.045-2.611" transform="translate(-522.404 -443.152)" fill="#c4932f"/>
    <path id="Path_314" data-name="Path 314" d="M507.214,591.666c-12.939,26.494,3.081,52.988,3.081,52.988H449.913s16.636-26.494,9.242-38.817-16.635-36.352-14.171-43.13c1.812-4.991,13.648-6.642,19.76-7.166,2.194-.185,3.654-.229,3.654-.229l21.079-.437,4.184.437c3.7.616,5.163,1.066,6.544,3.728,5.193,10.007,12.517,21.351,7.011,32.625" transform="translate(-351.857 -439.152)" fill="#e2ac3c"/>
    <path id="Path_315" data-name="Path 315" d="M583.782,915.449s11.707,3.081,13.555,2.465,8.01-4.313,12.323-2.465a66.528,66.528,0,0,1,9.607,5.731,1.2,1.2,0,0,1-.36,2.146,8.861,8.861,0,0,1-3.7.134,28.308,28.308,0,0,0-14.171,1.848c-3.2,1.373-21.565-2.465-21.565-2.465Z" transform="translate(-458.616 -724.118)" fill="#ffd5c0"/>
    <path id="Path_316" data-name="Path 316" d="M422.934,568.5h0a8.993,8.993,0,0,0-10.289,7.266c-3.626,19.952-9.663,64.263-4.135,66.637,7,3.007,39.433,7.394,39.433,7.394l3.081-8.01-29.681-10.5,9.019-52.376a9,9,0,0,0-7.34-10.392l-.087-.015" transform="translate(-321.545 -449.844)" fill="#c4932f"/>
    <path id="Path_317" data-name="Path 317" d="M569.471,573.884s-25.117-14.425-28.2-18.343c2.193-.185,3.654-.229,3.654-.229l21.079-.437c5.4,10.7,3.465,19.009,3.465,19.009" transform="translate(-428.386 -439.151)" fill="#ffd5c0"/>
    <path id="Path_318" data-name="Path 318" d="M523.883,376.936c3.962,4.564,1.941,8.961,1.045,11.65-1.53,4.591-3.331,5.3-3.883,11.5-.6,6.779,3.633,10.353,2.539,14.936-1.031,4.317-4.6,9.945-9.559,10.305-5.531.4-10.929-5.894-11.65-11.65-.808-6.458,3.624-9.062,4.63-17.176.794-6.4-1.635-8.2-2.539-15.085-1.424-10.841,4.144-19.407,5.377-21.358,5.26-8.329,13.173-12.9,14.04-12.1,1.332,1.227-13.342,15.286-9.858,22.254,2.689,5.378,6.7,3.088,9.858,6.722" transform="translate(-397.523 -275.319)" fill="#464646"/>
    <path id="Path_319" data-name="Path 319" d="M682.92,399.659A7.077,7.077,0,0,1,681,404.545a61.321,61.321,0,0,0-1.665-7.2c-.416-1.8-.567-2.261-1.207-4.33a.405.405,0,0,1,.04.011,6.836,6.836,0,0,1,4.751,6.633" transform="translate(-536.699 -311.049)" fill="#b0b0b0"/>
    <path id="Path_320" data-name="Path 320" d="M566.736,368.427a12.875,12.875,0,0,1,8.327-17.745,14.264,14.264,0,0,1,14.394,4.8,19.725,19.725,0,0,1,2.9,5.858c.663,1.007-2.107-2.386-3.286-1.942a11.574,11.574,0,0,0-13.392-6.735A10.66,10.66,0,0,0,569,358.139a10.8,10.8,0,0,0-.214,9.482Z" transform="translate(-447.624 -277.201)" fill="#1a6bbe"/>
    <path id="Path_321" data-name="Path 321" d="M562.953,430.531a6.9,6.9,0,1,1-6.5,6.884,6.7,6.7,0,0,1,6.5-6.884" transform="translate(-440.404 -340.74)" fill="#b0b0b0"/>
    <path id="Path_322" data-name="Path 322" d="M562.119,430.531c3.126,0,5.66,3.082,5.66,6.884s-2.534,6.884-5.66,6.884-5.66-3.082-5.66-6.884,2.534-6.884,5.66-6.884" transform="translate(-440.405 -340.74)" fill="#1a6bbe"/>
    <path id="Path_323" data-name="Path 323" d="M660.57,495.141c1.289,0,2.334.774,2.334,1.729s-1.045,1.729-2.334,1.729-2.334-.774-2.334-1.729,1.045-1.729,2.334-1.729" transform="translate(-520.955 -391.875)" fill="#1a6bbe"/>
    <path id="Path_324" data-name="Path 324" d="M596.244,494.014a10.913,10.913,0,0,1-5.143-1.3,13.4,13.4,0,0,1-4.494-3.91l1-.677a12.4,12.4,0,0,0,4.1,3.539c3.451,1.812,7.2,1.484,11.13-.976l.642,1.026a13.565,13.565,0,0,1-7.236,2.3" transform="translate(-464.265 -386.325)" fill="#1a6bbe"/>
    <path id="Path_325" data-name="Path 325" d="M660.57,495.278c1.289,0,2.334.774,2.334,1.729s-1.045,1.729-2.334,1.729-2.334-.774-2.334-1.729,1.045-1.729,2.334-1.729" transform="translate(-520.955 -391.983)" fill="#b0b0b0"/>
    <path id="Path_326" data-name="Path 326" d="M831.347,680.23h60.059l-13.421,59.556h-60.06Z" transform="translate(-647.34 -538.362)" fill="#464646"/>
    <path id="Path_327" data-name="Path 327" d="M999.011,803.235c.8-3.1,2.8-5.26,4.46-4.831s2.366,3.289,1.567,6.386-2.8,5.261-4.46,4.831-2.366-3.289-1.567-6.386" transform="translate(-790.398 -631.847)" fill="#b0b0b0"/>
    <rect id="Rectangle_146" data-name="Rectangle 146" width="197.104" height="8.299" transform="translate(64.837 199.224)" fill="#efeeee"/>
    <rect id="Rectangle_147" data-name="Rectangle 147" width="56.685" height="27.797" transform="translate(170.16 68.903)" fill="#fff"/>
    <path id="Path_328" data-name="Path 328" d="M1019.686,450.546l7.267,9.75.727-12.718s-8.357-.969-7.994,2.967" transform="translate(-807.013 -354.149)" fill="#fff"/>
    <path id="Path_329" data-name="Path 329" d="M871.694,356.826H814.1V327.8h57.594Zm-56.52-1.075h55.445V328.873H815.175Z" transform="translate(-644.312 -259.433)" fill="#1a6bbe"/>
    <path id="Path_330" data-name="Path 330" d="M1025.971,473.194l-8.028-11.24,8.5-.189ZM1020,462.985l5.027,7.037.3-7.156Z" transform="translate(-805.642 -365.461)" fill="#1a6bbe"/>
    <rect id="Rectangle_148" data-name="Rectangle 148" width="46.537" height="2.304" transform="translate(174.549 75.584)" fill="#1a6bbe"/>
    <rect id="Rectangle_149" data-name="Rectangle 149" width="46.536" height="2.304" transform="translate(174.626 82.265)" fill="#1a6bbe"/>
    <rect id="Rectangle_150" data-name="Rectangle 150" width="46.536" height="2.304" transform="translate(174.702 88.946)" fill="#1a6bbe"/>
    <rect id="Rectangle_151" data-name="Rectangle 151" width="43.886" height="21.521" transform="translate(205.443 24.975)" fill="#fff"/>
    <path id="Path_331" data-name="Path 331" d="M1014.18,212.789l-5.626,7.549-.562-9.845s6.471-.751,6.189,2.3" transform="translate(-797.766 -166.528)" fill="#fff"/>
    <path id="Path_332" data-name="Path 332" d="M983.065,117.752h44.59v22.474h-44.59Zm43.758.833H983.9v20.809h42.926Z" transform="translate(-778.038 -93.194)" fill="#1a6bbe"/>
    <path id="Path_333" data-name="Path 333" d="M1007.494,221.474l6.581.147-6.216,8.7Zm.868.852.229,5.54,3.892-5.448Z" transform="translate(-797.372 -175.284)" fill="#1a6bbe"/>
    <rect id="Rectangle_152" data-name="Rectangle 152" width="36.029" height="1.784" transform="translate(209.902 30.147)" fill="#1a6bbe"/>
    <rect id="Rectangle_153" data-name="Rectangle 153" width="36.03" height="1.784" transform="translate(209.842 35.32)" fill="#1a6bbe"/>
    <rect id="Rectangle_154" data-name="Rectangle 154" width="36.03" height="1.784" transform="translate(209.783 40.492)" fill="#1a6bbe"/>
  </g>
</svg>
