<svg xmlns="http://www.w3.org/2000/svg" width="40.639" height="48.637" viewBox="0 0 40.639 48.637">
  <g id="Group_13724" data-name="Group 13724" transform="translate(0 0)">
    <path id="Path_480" data-name="Path 480" d="M117.838,523.452l-1.1,3.19-1.124-3.19h-1.386l1.714,4.665h1.523l1.724-4.665Z" transform="translate(-114.228 -479.573)" fill="#fff" fill-rule="evenodd"/>
    <path id="Path_481" data-name="Path 481" d="M159.528,519.906a1.26,1.26,0,1,1,1.26,1.261,1.26,1.26,0,0,1-1.26-1.261ZM162,515.665v2.291l-.007-.005a2.292,2.292,0,0,0-1.359-.458,2.407,2.407,0,0,0,0,4.812A2.276,2.276,0,0,0,162,521.85v.39h1.2v-6.575Z" transform="translate(-147.527 -473.689)" fill="#fff" fill-rule="evenodd"/>
    <path id="Path_482" data-name="Path 482" d="M182.867,525.555a1.261,1.261,0,1,1,1.26,1.261,1.26,1.26,0,0,1-1.26-1.261Zm2.469-2.333v.383l-.007-.005a2.294,2.294,0,0,0-1.359-.458,2.407,2.407,0,0,0,0,4.812,2.28,2.28,0,0,0,1.366-.454v.39h1.2v-4.667Z" transform="translate(-165.162 -479.338)" fill="#fff" fill-rule="evenodd"/>
    <path id="Path_483" data-name="Path 483" d="M207.427,517.22h-.717s0-.15,0-.283c0-.3,0-.672.471-.672a1.614,1.614,0,0,1,.238.02V515.2s-.2,0-.332,0c-1.1.044-1.588.42-1.588,1.521v.5h-.536V518.3h.536v3.584h1.214V518.3h.717V517.22Z" transform="translate(-182.787 -473.336)" fill="#fff" fill-rule="evenodd"/>
    <path id="Path_484" data-name="Path 484" d="M241.035,523.58a2.05,2.05,0,0,1,1.372-.5,1.585,1.585,0,0,1,1.732,1.623v3.134H242.9v-2.723a.814.814,0,0,0-.856-.894.928.928,0,0,0-.976,1.029v2.589h-1.24v-4.661h1.2v.407Z" transform="translate(-209.136 -479.289)" fill="#fff" fill-rule="evenodd"/>
    <path id="Path_485" data-name="Path 485" d="M262.069,525.892a1.129,1.129,0,0,0,1.149,1.013,1.016,1.016,0,0,0,.974-.527h1.3a2.3,2.3,0,0,1-2.227,1.548,2.388,2.388,0,0,1-2.469-2.409,2.433,2.433,0,0,1,2.469-2.409,2.392,2.392,0,0,1,2.354,2.409,1.723,1.723,0,0,1-.029.373l-3.515,0Zm2.237-.9a1.043,1.043,0,0,0-1.088-.834,1.1,1.1,0,0,0-1.117.831l2.205,0Z" transform="translate(-224.974 -479.313)" fill="#fff" fill-rule="evenodd"/>
    <path id="Path_486" data-name="Path 486" d="M138.267,523.163a.987.987,0,0,0-.778.963c0,.011,0,.023,0,.032a1.211,1.211,0,0,1,1.055,1.244,1.271,1.271,0,0,1-1.272,1.268,1.393,1.393,0,0,1-1.354-1.45,2.17,2.17,0,0,1,2.2-2.079c.023,0,.06,0,.1,0a2.582,2.582,0,0,0-.916-.167,2.428,2.428,0,1,0,2.508,2.427,2.428,2.428,0,0,0-1.541-2.239Z" transform="translate(-129.766 -479.213)" fill="#fff" fill-rule="evenodd"/>
    <path id="Path_487" data-name="Path 487" d="M218.673,523.06a2.469,2.469,0,0,0-2.508,2.427,2.428,2.428,0,0,0,1.541,2.24.989.989,0,0,0,.777-.964c0-.01,0-.022,0-.031a1.211,1.211,0,0,1-1.054-1.244,1.272,1.272,0,0,1,1.272-1.267,1.394,1.394,0,0,1,1.354,1.449,2.169,2.169,0,0,1-2.2,2.079c-.023,0-.06,0-.1,0a2.581,2.581,0,0,0,.916.167,2.428,2.428,0,1,0,0-4.854Z" transform="translate(-191.253 -479.277)" fill="#fff" fill-rule="evenodd"/>
    <path id="Path_488" data-name="Path 488" d="M145.038,357.278a7.629,7.629,0,0,0-6,7.435c0,.079.02.172.022.25,5.409,1.151,8.137,4.8,8.137,9.6a9.815,9.815,0,0,1-9.82,9.782c-5.4,0-10.449-4.506-10.449-11.189,0-8.158,6.993-15.81,16.958-16.052.18,0,.465,0,.755.016a19.881,19.881,0,0,0-7.071-1.289c-10.693,0-19.363,8.387-19.363,18.732S126.88,393.3,137.574,393.3s19.361-8.387,19.361-18.732a18.744,18.744,0,0,0-11.9-17.289Z" transform="translate(-117.238 -355.835)" fill="#fff" fill-rule="evenodd"/>
  </g>
</svg>
